<svg width="32" height="32" viewBox="0 0 32 32" fill="none" xmlns="http://www.w3.org/2000/svg">
<g clip-path="url(#clip0_4_22)">
<rect width="32" height="31.8667" rx="11" fill="#6842FF"/>
<path d="M21.0251 7.52194H11.0638C7.90404 7.52194 5.33337 10.2648 5.33337 13.6361V20.0132C5.33337 23.3846 7.90404 26.1274 11.0638 26.1274H21.0251C24.1849 26.1274 26.7556 23.3846 26.7556 20.0132V13.6361C26.7556 10.2648 24.1849 7.52194 21.0251 7.52194ZM18.7223 14.7219C18.7223 14.0933 19.2043 13.579 19.7934 13.579C20.3825 13.579 20.8645 14.0933 20.8645 14.7219C20.8645 15.3504 20.3825 15.876 19.7934 15.876C19.2043 15.876 18.7223 15.3733 18.7223 14.7447V14.7219ZM14.0415 19.3504C13.8808 19.5218 13.6773 19.6018 13.4738 19.6018C13.2703 19.6018 13.0668 19.5218 12.9061 19.3504L11.8029 18.1731L10.7425 19.3046C10.5818 19.4761 10.3783 19.5561 10.1748 19.5561C9.97128 19.5561 9.76777 19.4761 9.60711 19.3046C9.29648 18.9732 9.29648 18.4246 9.60711 18.0932L10.6675 16.9618L9.63924 15.8647C9.32862 15.5333 9.32862 14.9847 9.63924 14.6533C9.94986 14.3219 10.464 14.3219 10.7746 14.6533L11.8029 15.7504L12.8633 14.619C13.1739 14.2876 13.688 14.2876 13.9987 14.619C14.3093 14.9504 14.3093 15.499 13.9987 15.8303L12.9383 16.9618L14.0415 18.139C14.3521 18.4704 14.3521 19.0189 14.0415 19.3504ZM17.694 18.1275C17.1049 18.1275 16.6122 17.6133 16.6122 16.9847C16.6122 16.3561 17.0835 15.8419 17.6726 15.8419H17.694C18.2831 15.8419 18.7651 16.3561 18.7651 16.9847C18.7651 17.6133 18.2938 18.1275 17.694 18.1275ZM19.7934 20.3789C19.2043 20.3789 18.7223 19.8761 18.7223 19.2475V19.2245C18.7223 18.596 19.2043 18.0817 19.7934 18.0817C20.3825 18.0817 20.8645 18.596 20.8645 19.2245C20.8645 19.8531 20.3932 20.3789 19.7934 20.3789ZM21.9142 18.1275C21.3251 18.1275 20.8323 17.6133 20.8323 16.9847C20.8323 16.3561 21.3036 15.8419 21.8927 15.8419H21.9142C22.5033 15.8419 22.9853 16.3561 22.9853 16.9847C22.9853 17.6133 22.514 18.1275 21.9142 18.1275Z" fill="white"/>
<path d="M17.8004 4.08348L17.7896 5.15775C17.7789 6.16344 16.997 6.99771 16.0437 6.99771C15.8831 6.99771 15.7867 7.112 15.7867 7.26056C15.7867 7.40913 15.8938 7.52342 16.033 7.52342H14.3085C14.2978 7.44342 14.2871 7.35199 14.2871 7.26056C14.2871 6.23201 15.069 5.39774 16.0223 5.39774C16.183 5.39774 16.2901 5.28346 16.2901 5.13489L16.3008 4.06062C16.3115 3.62634 16.6436 3.27206 17.0506 3.27206H17.0613C17.479 3.27206 17.8004 3.63777 17.8004 4.08348Z" fill="white"/>
</g>
<defs>
<clipPath id="clip0_4_22">
<rect width="32" height="32" fill="white"/>
</clipPath>
</defs>
</svg>
