<svg width="16" height="16" viewBox="0 0 16 16" fill="none" xmlns="http://www.w3.org/2000/svg">
<g clip-path="url(#clip0_4_2)">
<rect width="16" height="15.9333" rx="5" fill="#6842FF"/>
<path d="M10.5126 3.76099H5.53191C3.95202 3.76099 2.66669 5.13239 2.66669 6.81805V10.0066C2.66669 11.6923 3.95202 13.0637 5.53191 13.0637H10.5126C12.0925 13.0637 13.3778 11.6923 13.3778 10.0066V6.81805C13.3778 5.13239 12.0925 3.76099 10.5126 3.76099ZM9.36113 7.36095C9.36113 7.04667 9.60213 6.78953 9.89669 6.78953C10.1912 6.78953 10.4322 7.04667 10.4322 7.36095C10.4322 7.67523 10.1912 7.93803 9.89669 7.93803C9.60213 7.93803 9.36113 7.68666 9.36113 7.37238V7.36095ZM7.02075 9.6752C6.94042 9.76091 6.83866 9.80091 6.73691 9.80091C6.63515 9.80091 6.5334 9.76091 6.45306 9.6752L5.90144 9.08658L5.37124 9.65234C5.29091 9.73805 5.18915 9.77805 5.0874 9.77805C4.98564 9.77805 4.88389 9.73805 4.80355 9.65234C4.64824 9.48663 4.64824 9.21229 4.80355 9.04664L5.33375 8.48093L4.81962 7.93237C4.66431 7.76666 4.66431 7.49238 4.81962 7.32667C4.97493 7.16096 5.232 7.16096 5.38731 7.32667L5.90144 7.87523L6.43164 7.30952C6.58695 7.14381 6.84402 7.14381 6.99933 7.30952C7.15464 7.47524 7.15464 7.74952 6.99933 7.91517L6.46913 8.48093L7.02075 9.06949C7.17606 9.2352 7.17606 9.50949 7.02075 9.6752ZM8.847 9.06378C8.55244 9.06378 8.30609 8.80664 8.30609 8.49236C8.30609 8.17808 8.54173 7.92094 8.83629 7.92094H8.847C9.14155 7.92094 9.38255 8.17808 9.38255 8.49236C9.38255 8.80664 9.14691 9.06378 8.847 9.06378ZM9.89669 10.1895C9.60213 10.1895 9.36113 9.93805 9.36113 9.62377V9.61228C9.36113 9.298 9.60213 9.04087 9.89669 9.04087C10.1912 9.04087 10.4322 9.298 10.4322 9.61228C10.4322 9.92656 10.1966 10.1895 9.89669 10.1895ZM10.9571 9.06378C10.6625 9.06378 10.4162 8.80664 10.4162 8.49236C10.4162 8.17808 10.6518 7.92094 10.9464 7.92094H10.9571C11.2516 7.92094 11.4926 8.17808 11.4926 8.49236C11.4926 8.80664 11.257 9.06378 10.9571 9.06378Z" fill="white"/>
<path d="M8.90018 2.04175L8.89482 2.57889C8.88947 3.08174 8.49851 3.49887 8.02187 3.49887C7.94153 3.49887 7.89333 3.55601 7.89333 3.6303C7.89333 3.70458 7.94689 3.76172 8.01651 3.76172H7.15427C7.14891 3.72172 7.14355 3.67601 7.14355 3.6303C7.14355 3.11602 7.53451 2.69889 8.01115 2.69889C8.09149 2.69889 8.14504 2.64174 8.14504 2.56746L8.1504 2.03033C8.15575 1.81319 8.32178 1.63605 8.52529 1.63605H8.53064C8.73951 1.63605 8.90018 1.8189 8.90018 2.04175Z" fill="white"/>
</g>
<defs>
<clipPath id="clip0_4_2">
<rect width="16" height="16" fill="white"/>
</clipPath>
</defs>
</svg>
