<svg width="512" height="512" viewBox="0 0 512 512" fill="none" xmlns="http://www.w3.org/2000/svg">
<g clip-path="url(#clip0_4_47)">
<rect width="512" height="509.867" rx="139" fill="#6842FF"/>
<path d="M336.402 120.351H177.021C126.465 120.351 85.334 164.236 85.334 218.177V320.212C85.334 374.153 126.465 418.038 177.021 418.038H336.402C386.959 418.038 428.089 374.153 428.089 320.212V218.177C428.089 164.236 386.959 120.351 336.402 120.351ZM299.556 235.55C299.556 225.493 307.268 217.265 316.694 217.265C326.12 217.265 333.832 225.493 333.832 235.55C333.832 245.607 326.12 254.017 316.694 254.017C307.268 254.017 299.556 245.973 299.556 235.916V235.55ZM224.664 309.606C222.093 312.349 218.837 313.629 215.581 313.629C212.325 313.629 209.069 312.349 206.498 309.606L188.846 290.77L171.88 308.875C169.309 311.617 166.053 312.897 162.797 312.897C159.541 312.897 156.284 311.617 153.714 308.875C148.744 303.572 148.744 294.793 153.714 289.492L170.68 271.39L154.228 253.836C149.258 248.533 149.258 239.756 154.228 234.453C159.198 229.15 167.424 229.15 172.394 234.453L188.846 252.007L205.813 233.904C210.782 228.602 219.009 228.602 223.979 233.904C228.949 239.207 228.949 247.984 223.979 253.285L207.012 271.39L224.664 290.224C229.634 295.526 229.634 304.303 224.664 309.606ZM283.104 290.041C273.678 290.041 265.795 281.812 265.795 271.755C265.795 261.698 273.335 253.47 282.761 253.47H283.104C292.53 253.47 300.242 261.698 300.242 271.755C300.242 281.812 292.701 290.041 283.104 290.041ZM316.694 326.063C307.268 326.063 299.556 318.017 299.556 307.96V307.593C299.556 297.536 307.268 289.307 316.694 289.307C326.12 289.307 333.832 297.536 333.832 307.593C333.832 317.65 326.291 326.063 316.694 326.063ZM350.627 290.041C341.201 290.041 333.318 281.812 333.318 271.755C333.318 261.698 340.858 253.47 350.284 253.47H350.627C360.052 253.47 367.764 261.698 367.764 271.755C367.764 281.812 360.224 290.041 350.627 290.041Z" fill="white"/>
<path d="M284.806 65.3358L284.634 82.524C284.463 98.6152 271.952 111.964 256.7 111.964C254.129 111.964 252.587 113.792 252.587 116.169C252.587 118.546 254.3 120.375 256.528 120.375H228.937C228.765 119.095 228.594 117.632 228.594 116.169C228.594 99.7123 241.104 86.364 256.357 86.364C258.928 86.364 260.641 84.5354 260.641 82.1583L260.813 64.9701C260.984 58.0216 266.297 52.3531 272.809 52.3531H272.981C279.664 52.3531 284.806 58.2045 284.806 65.3358Z" fill="white"/>
</g>
<defs>
<clipPath id="clip0_4_47">
<rect width="512" height="512" fill="white"/>
</clipPath>
</defs>
</svg>
