<svg width="270" height="270" viewBox="0 0 270 270" fill="none" xmlns="http://www.w3.org/2000/svg">
<g clip-path="url(#clip0_4_31)">
<rect width="270" height="268.875" rx="86" fill="#6842FF"/>
<path d="M177.4 63.4665H93.351C66.6904 63.4665 45.0004 86.6089 45.0004 115.054V168.862C45.0004 197.307 66.6904 220.45 93.351 220.45H177.4C204.06 220.45 225.75 197.307 225.75 168.862V115.054C225.75 86.6089 204.06 63.4665 177.4 63.4665ZM157.969 124.216C157.969 118.912 162.036 114.573 167.007 114.573C171.977 114.573 176.044 118.912 176.044 124.216C176.044 129.519 171.977 133.954 167.007 133.954C162.036 133.954 157.969 129.712 157.969 124.409V124.216ZM118.475 163.269C117.12 164.715 115.402 165.39 113.685 165.39C111.968 165.39 110.251 164.715 108.895 163.269L99.5869 153.336L90.6397 162.883C89.2841 164.329 87.567 165.004 85.8499 165.004C84.1327 165.004 82.4156 164.329 81.06 162.883C78.4391 160.087 78.4391 155.457 81.06 152.662L90.0071 143.116L81.3311 133.859C78.7102 131.062 78.7102 126.434 81.3311 123.637C83.952 120.841 88.29 120.841 90.9109 123.637L99.5869 132.894L108.534 123.348C111.155 120.552 115.493 120.552 118.114 123.348C120.735 126.144 120.735 130.773 118.114 133.568L109.167 143.116L118.475 153.048C121.096 155.844 121.096 160.472 118.475 163.269ZM149.293 152.951C144.322 152.951 140.165 148.612 140.165 143.308C140.165 138.005 144.142 133.666 149.112 133.666H149.293C154.264 133.666 158.331 138.005 158.331 143.308C158.331 148.612 154.354 152.951 149.293 152.951ZM167.007 171.947C162.036 171.947 157.969 167.704 157.969 162.401V162.207C157.969 156.904 162.036 152.564 167.007 152.564C171.977 152.564 176.044 156.904 176.044 162.207C176.044 167.511 172.068 171.947 167.007 171.947ZM184.901 152.951C179.93 152.951 175.773 148.612 175.773 143.308C175.773 138.005 179.749 133.666 184.72 133.666H184.901C189.871 133.666 193.938 138.005 193.938 143.308C193.938 148.612 189.962 152.951 184.901 152.951Z" fill="white"/>
<path d="M150.19 34.4544L150.1 43.5185C150.01 52.0041 143.412 59.0433 135.369 59.0433C134.013 59.0433 133.2 60.0075 133.2 61.2611C133.2 62.5146 134.104 63.4789 135.279 63.4789H120.728C120.638 62.8039 120.547 62.0325 120.547 61.2611C120.547 52.5827 127.145 45.5435 135.188 45.5435C136.544 45.5435 137.448 44.5792 137.448 43.3257L137.538 34.2615C137.628 30.5973 140.43 27.6081 143.864 27.6081H143.955C147.479 27.6081 150.19 30.6938 150.19 34.4544Z" fill="white"/>
</g>
<defs>
<clipPath id="clip0_4_31">
<rect width="270" height="270" fill="white"/>
</clipPath>
</defs>
</svg>
