<svg width="120" height="44" viewBox="0 0 120 44" fill="none" xmlns="http://www.w3.org/2000/svg">
<rect x="1.77515" y="1.77515" width="42.6036" height="39.7633" rx="19.8817" fill="#6842FF"/>
<path d="M29.7671 11.161H16.505C12.2982 11.161 8.87573 14.5835 8.87573 18.7902V26.7476C8.87573 30.9545 12.2982 34.3769 16.505 34.3769H29.7671C33.974 34.3769 37.3964 30.9545 37.3964 26.7476V18.7902C37.3964 14.5835 33.974 11.161 29.7671 11.161ZM26.7012 20.1451C26.7012 19.3608 27.3429 18.7191 28.1272 18.7191C28.9115 18.7191 29.5532 19.3608 29.5532 20.1451C29.5532 20.9294 28.9115 21.5853 28.1272 21.5853C27.3429 21.5853 26.7012 20.9579 26.7012 20.1736V20.1451ZM20.4694 25.9205C20.2555 26.1345 19.9845 26.2343 19.7136 26.2343C19.4427 26.2343 19.1717 26.1345 18.9578 25.9205L17.489 24.4516L16.0772 25.8635C15.8633 26.0774 15.5924 26.1772 15.3214 26.1772C15.0505 26.1772 14.7795 26.0774 14.5656 25.8635C14.1521 25.45 14.1521 24.7653 14.5656 24.3519L15.9774 22.9401L14.6084 21.5711C14.1948 21.1576 14.1948 20.4731 14.6084 20.0595C15.0219 19.646 15.7064 19.646 16.12 20.0595L17.489 21.4285L18.9008 20.0168C19.3143 19.6032 19.9988 19.6032 20.4124 20.0168C20.8259 20.4303 20.8259 21.1148 20.4124 21.5282L19.0006 22.9401L20.4694 24.4089C20.8829 24.8225 20.8829 25.507 20.4694 25.9205ZM25.3322 24.3947C24.5479 24.3947 23.8919 23.753 23.8919 22.9687C23.8919 22.1843 24.5193 21.5426 25.3037 21.5426H25.3322C26.1165 21.5426 26.7582 22.1843 26.7582 22.9687C26.7582 23.753 26.1308 24.3947 25.3322 24.3947ZM28.1272 27.204C27.3429 27.204 26.7012 26.5765 26.7012 25.7922V25.7635C26.7012 24.9792 27.3429 24.3375 28.1272 24.3375C28.9115 24.3375 29.5532 24.9792 29.5532 25.7635C29.5532 26.5479 28.9258 27.204 28.1272 27.204ZM30.9508 24.3947C30.1664 24.3947 29.5105 23.753 29.5105 22.9687C29.5105 22.1843 30.1379 21.5426 30.9222 21.5426H30.9508C31.7351 21.5426 32.3768 22.1843 32.3768 22.9687C32.3768 23.753 31.7493 24.3947 30.9508 24.3947Z" fill="white"/>
<path d="M25.4739 6.87052L25.4596 8.21099C25.4454 9.4659 24.4044 10.5069 23.1352 10.5069C22.9213 10.5069 22.793 10.6495 22.793 10.8349C22.793 11.0203 22.9356 11.1629 23.1209 11.1629H20.825C20.8108 11.0631 20.7965 10.949 20.7965 10.8349C20.7965 9.55146 21.8375 8.51046 23.1067 8.51046C23.3206 8.51046 23.4632 8.36785 23.4632 8.18247L23.4775 6.842C23.4917 6.3001 23.9338 5.85803 24.4757 5.85803H24.4899C25.0461 5.85803 25.4739 6.31436 25.4739 6.87052Z" fill="white"/>
<path d="M55.5905 29.6591C55.0934 29.6591 54.71 29.5242 54.4402 29.2544C54.1846 28.9704 54.0568 28.5727 54.0568 28.0615V15.9195C54.0568 15.3798 54.1846 14.968 54.4402 14.684C54.71 14.3999 55.065 14.2579 55.5053 14.2579C55.8887 14.2579 56.1798 14.336 56.3787 14.4923C56.5917 14.6343 56.8331 14.8757 57.1029 15.2165L64.5798 24.7384H64.0047V15.8343C64.0047 15.3372 64.1325 14.9538 64.3881 14.684C64.6579 14.3999 65.0414 14.2579 65.5384 14.2579C66.0355 14.2579 66.4118 14.3999 66.6674 14.684C66.9372 14.9538 67.0721 15.3372 67.0721 15.8343V28.1254C67.0721 28.594 66.9514 28.9704 66.71 29.2544C66.4686 29.5242 66.142 29.6591 65.7301 29.6591C65.3325 29.6591 65.013 29.581 64.7716 29.4248C64.5443 29.2686 64.2958 29.0201 64.026 28.6792L56.5704 19.1573H57.1242V28.0615C57.1242 28.5727 56.9964 28.9704 56.7408 29.2544C56.4852 29.5242 56.1017 29.6591 55.5905 29.6591Z" fill="white"/>
<path d="M76.5286 29.7017C75.4636 29.7017 74.5192 29.5668 73.6955 29.297C72.886 29.013 72.2044 28.6011 71.6505 28.0615C71.0967 27.5218 70.6778 26.8473 70.3937 26.0378C70.1239 25.2141 69.989 24.2627 69.989 23.1834V15.9408C69.989 15.3869 70.131 14.968 70.415 14.684C70.6991 14.3999 71.1109 14.2579 71.6505 14.2579C72.176 14.2579 72.5807 14.3999 72.8647 14.684C73.1488 14.968 73.2908 15.3869 73.2908 15.9408V23.2047C73.2908 24.426 73.5677 25.3491 74.1215 25.9739C74.6754 26.5846 75.4778 26.8899 76.5286 26.8899C77.5795 26.8899 78.3748 26.5846 78.9144 25.9739C79.4683 25.3491 79.7452 24.426 79.7452 23.2047V15.9408C79.7452 15.3869 79.8872 14.968 80.1712 14.684C80.4553 14.3999 80.86 14.2579 81.3854 14.2579C81.9109 14.2579 82.3085 14.3999 82.5783 14.684C82.8624 14.968 83.0044 15.3869 83.0044 15.9408V23.1834C83.0044 24.6177 82.7559 25.8248 82.2588 26.8047C81.776 27.7704 81.0517 28.4946 80.086 28.9775C79.1346 29.4603 77.9488 29.7017 76.5286 29.7017Z" fill="white"/>
<path d="M87.6517 29.4674C87.0978 29.4674 86.6718 29.3183 86.3736 29.0201C86.0753 28.7218 85.9262 28.2958 85.9262 27.742V16.1751C85.9262 15.6212 86.0753 15.1952 86.3736 14.897C86.6718 14.5988 87.0978 14.4497 87.6517 14.4497H92.8067C93.8718 14.4497 94.7807 14.6059 95.5333 14.9183C96.286 15.2307 96.854 15.6781 97.2375 16.2603C97.6351 16.8426 97.8339 17.5384 97.8339 18.3479C97.8339 19.2426 97.5783 20.0023 97.067 20.6272C96.5558 21.252 95.8528 21.671 94.9582 21.884V21.5431C95.9949 21.7278 96.7972 22.1396 97.3653 22.7786C97.9475 23.4035 98.2386 24.2201 98.2386 25.2283C98.2386 26.5633 97.7771 27.607 96.854 28.3597C95.931 29.0982 94.6599 29.4674 93.041 29.4674H87.6517ZM89.0789 27.0177H92.5937C93.4457 27.0177 94.0706 26.8544 94.4682 26.5278C94.8659 26.1869 95.0647 25.6899 95.0647 25.0366C95.0647 24.3834 94.8659 23.8934 94.4682 23.5668C94.0706 23.2402 93.4457 23.0769 92.5937 23.0769H89.0789V27.0177ZM89.0789 20.6272H92.2315C93.0552 20.6272 93.6659 20.471 94.0635 20.1585C94.4611 19.8461 94.6599 19.3775 94.6599 18.7526C94.6599 18.142 94.4611 17.6804 94.0635 17.368C93.6659 17.0556 93.0552 16.8994 92.2315 16.8994H89.0789V20.6272Z" fill="white"/>
<path d="M108.172 29.7017C106.482 29.7017 105.048 29.3822 103.869 28.7431C102.704 28.1041 101.817 27.2094 101.206 26.0591C100.596 24.9088 100.29 23.5597 100.29 22.0118C100.29 20.8189 100.468 19.7467 100.823 18.7952C101.192 17.8295 101.717 17.013 102.399 16.3455C103.095 15.6639 103.933 15.1384 104.913 14.7692C105.907 14.3999 107.029 14.2153 108.278 14.2153C109.045 14.2153 109.812 14.3005 110.579 14.471C111.346 14.6414 112.084 14.9254 112.794 15.323C113.093 15.4934 113.291 15.7136 113.391 15.9834C113.504 16.239 113.533 16.5159 113.476 16.8141C113.433 17.0982 113.32 17.3538 113.135 17.581C112.965 17.794 112.738 17.936 112.454 18.007C112.184 18.0639 111.871 18.007 111.516 17.8366C111.048 17.581 110.551 17.3964 110.025 17.2828C109.5 17.155 108.925 17.0911 108.3 17.0911C107.291 17.0911 106.446 17.2828 105.765 17.6662C105.083 18.0355 104.572 18.5893 104.231 19.3278C103.904 20.052 103.741 20.9467 103.741 22.0118C103.741 23.6165 104.125 24.8307 104.891 25.6544C105.673 26.4781 106.823 26.8899 108.342 26.8899C108.854 26.8899 109.379 26.8402 109.919 26.7408C110.458 26.6414 110.991 26.4994 111.516 26.3147L110.899 27.6568V23.5668H108.981C108.555 23.5668 108.229 23.4603 108.002 23.2473C107.774 23.0343 107.661 22.7431 107.661 22.3739C107.661 21.9905 107.774 21.6994 108.002 21.5005C108.229 21.2875 108.555 21.181 108.981 21.181H112.326C112.752 21.181 113.071 21.2946 113.284 21.5218C113.512 21.7491 113.625 22.0757 113.625 22.5017V27.4437C113.625 27.813 113.554 28.1254 113.412 28.381C113.27 28.6366 113.029 28.8213 112.688 28.9349C112.049 29.1621 111.332 29.3467 110.536 29.4887C109.741 29.6307 108.953 29.7017 108.172 29.7017Z" fill="white"/>
</svg>
