<svg width="150" height="55" viewBox="0 0 150 55" fill="none" xmlns="http://www.w3.org/2000/svg">
<rect x="2.21899" y="2.21893" width="53.2544" height="49.7041" rx="13" fill="#6842FF"/>
<path d="M37.209 13.9513H20.6313C15.3728 13.9513 11.0947 18.2294 11.0947 23.4878V33.4346C11.0947 38.6931 15.3728 42.9712 20.6313 42.9712H37.209C42.4675 42.9712 46.7456 38.6931 46.7456 33.4346V23.4878C46.7456 18.2294 42.4675 13.9513 37.209 13.9513ZM33.3765 25.1814C33.3765 24.201 34.1787 23.3989 35.1591 23.3989C36.1395 23.3989 36.9416 24.201 36.9416 25.1814C36.9416 26.1618 36.1395 26.9816 35.1591 26.9816C34.1787 26.9816 33.3765 26.1975 33.3765 25.2171V25.1814ZM25.5868 32.4007C25.3194 32.6681 24.9807 32.7929 24.6421 32.7929C24.3034 32.7929 23.9647 32.6681 23.6973 32.4007L21.8613 30.5645L20.0966 32.3294C19.8292 32.5968 19.4905 32.7216 19.1518 32.7216C18.8131 32.7216 18.4745 32.5968 18.2071 32.3294C17.6901 31.8125 17.6901 30.9567 18.2071 30.4399L19.9718 28.6752L18.2606 26.964C17.7436 26.447 17.7436 25.5914 18.2606 25.0745C18.7775 24.5575 19.6331 24.5575 20.15 25.0745L21.8613 26.7857L23.626 25.021C24.1429 24.504 24.9986 24.504 25.5155 25.021C26.0324 25.5379 26.0324 26.3935 25.5155 26.9103L23.7508 28.6752L25.5868 30.5112C26.1037 31.0282 26.1037 31.8838 25.5868 32.4007ZM31.6653 30.4934C30.6849 30.4934 29.8649 29.6912 29.8649 28.7108C29.8649 27.7304 30.6492 26.9283 31.6296 26.9283H31.6653C32.6457 26.9283 33.4478 27.7304 33.4478 28.7108C33.4478 29.6912 32.6635 30.4934 31.6653 30.4934ZM35.1591 34.005C34.1787 34.005 33.3765 33.2207 33.3765 32.2403V32.2045C33.3765 31.2241 34.1787 30.4219 35.1591 30.4219C36.1395 30.4219 36.9416 31.2241 36.9416 32.2045C36.9416 33.1849 36.1573 34.005 35.1591 34.005ZM38.6885 30.4934C37.7081 30.4934 36.8881 29.6912 36.8881 28.7108C36.8881 27.7304 37.6725 26.9283 38.6529 26.9283H38.6885C39.6689 26.9283 40.471 27.7304 40.471 28.7108C40.471 29.6912 39.6867 30.4934 38.6885 30.4934Z" fill="white"/>
<path d="M31.8425 8.58812L31.8246 10.2637C31.8068 11.8323 30.5056 13.1336 28.9191 13.1336C28.6517 13.1336 28.4913 13.3119 28.4913 13.5436C28.4913 13.7753 28.6695 13.9536 28.9013 13.9536H26.0314C26.0136 13.8288 25.9957 13.6862 25.9957 13.5436C25.9957 11.9393 27.297 10.638 28.8834 10.638C29.1508 10.638 29.3291 10.4598 29.3291 10.2281L29.3469 8.55247C29.3647 7.8751 29.9173 7.32251 30.5947 7.32251H30.6125C31.3077 7.32251 31.8425 7.89292 31.8425 8.58812Z" fill="white"/>
<path d="M69.4882 37.074C68.8669 37.074 68.3876 36.9053 68.0503 36.568C67.7308 36.213 67.571 35.716 67.571 35.0769V19.8994C67.571 19.2248 67.7308 18.7101 68.0503 18.355C68.3876 18 68.8314 17.8225 69.3817 17.8225C69.861 17.8225 70.2249 17.9201 70.4734 18.1154C70.7397 18.2929 71.0415 18.5947 71.3787 19.0207L80.7249 30.9231H80.006V19.7929C80.006 19.1716 80.1657 18.6923 80.4852 18.355C80.8225 18 81.3018 17.8225 81.9231 17.8225C82.5444 17.8225 83.0148 18 83.3344 18.355C83.6716 18.6923 83.8403 19.1716 83.8403 19.7929V35.1568C83.8403 35.7426 83.6894 36.213 83.3876 36.568C83.0858 36.9053 82.6776 37.074 82.1628 37.074C81.6657 37.074 81.2663 36.9763 80.9645 36.7811C80.6805 36.5858 80.3699 36.2751 80.0326 35.8491L70.7131 23.9467H71.4054V35.0769C71.4054 35.716 71.2456 36.213 70.9261 36.568C70.6065 36.9053 70.1273 37.074 69.4882 37.074Z" fill="white"/>
<path d="M95.6609 37.1272C94.3295 37.1272 93.1491 36.9586 92.1195 36.6213C91.1076 36.2663 90.2556 35.7515 89.5633 35.0769C88.8709 34.4024 88.3473 33.5592 87.9923 32.5473C87.655 31.5177 87.4863 30.3284 87.4863 28.9793V19.926C87.4863 19.2337 87.6638 18.7101 88.0189 18.355C88.3739 18 88.8887 17.8225 89.5633 17.8225C90.2201 17.8225 90.726 18 91.081 18.355C91.436 18.7101 91.6136 19.2337 91.6136 19.926V29.0059C91.6136 30.5325 91.9597 31.6864 92.652 32.4675C93.3443 33.2308 94.3473 33.6124 95.6609 33.6124C96.9745 33.6124 97.9686 33.2308 98.6431 32.4675C99.3354 31.6864 99.6816 30.5325 99.6816 29.0059V19.926C99.6816 19.2337 99.8591 18.7101 100.214 18.355C100.569 18 101.075 17.8225 101.732 17.8225C102.389 17.8225 102.886 18 103.223 18.355C103.578 18.7101 103.756 19.2337 103.756 19.926V28.9793C103.756 30.7722 103.445 32.2811 102.824 33.5059C102.22 34.713 101.315 35.6183 100.108 36.2219C98.9183 36.8254 97.436 37.1272 95.6609 37.1272Z" fill="white"/>
<path d="M109.565 36.8343C108.872 36.8343 108.34 36.6479 107.967 36.2751C107.594 35.9024 107.408 35.3698 107.408 34.6775V20.2189C107.408 19.5266 107.594 18.9941 107.967 18.6213C108.34 18.2485 108.872 18.0621 109.565 18.0621H116.008C117.34 18.0621 118.476 18.2574 119.417 18.6479C120.358 19.0385 121.068 19.5976 121.547 20.3254C122.044 21.0532 122.292 21.9231 122.292 22.9349C122.292 24.0532 121.973 25.003 121.334 25.784C120.695 26.5651 119.816 27.0888 118.698 27.355V26.929C119.994 27.1598 120.997 27.6746 121.707 28.4734C122.434 29.2544 122.798 30.2751 122.798 31.5355C122.798 33.2041 122.221 34.5089 121.068 35.4497C119.914 36.3728 118.325 36.8343 116.301 36.8343H109.565ZM111.349 33.7722H115.742C116.807 33.7722 117.588 33.568 118.085 33.1598C118.582 32.7337 118.831 32.1124 118.831 31.2959C118.831 30.4793 118.582 29.8669 118.085 29.4586C117.588 29.0503 116.807 28.8461 115.742 28.8461H111.349V33.7722ZM111.349 25.784H115.29C116.319 25.784 117.082 25.5888 117.579 25.1982C118.077 24.8077 118.325 24.2219 118.325 23.4408C118.325 22.6775 118.077 22.1006 117.579 21.7101C117.082 21.3195 116.319 21.1243 115.29 21.1243H111.349V25.784Z" fill="white"/>
<path d="M135.215 37.1272C133.103 37.1272 131.31 36.7278 129.836 35.929C128.381 35.1302 127.271 34.0118 126.508 32.574C125.745 31.1361 125.363 29.4497 125.363 27.5148C125.363 26.0237 125.585 24.6834 126.029 23.4941C126.49 22.287 127.147 21.2663 127.999 20.4319C128.869 19.5799 129.916 18.9231 131.141 18.4615C132.384 18 133.786 17.7692 135.348 17.7692C136.307 17.7692 137.265 17.8757 138.224 18.0888C139.182 18.3018 140.106 18.6568 140.993 19.1538C141.366 19.3669 141.614 19.642 141.739 19.9793C141.881 20.2988 141.916 20.645 141.845 21.0177C141.792 21.3728 141.65 21.6923 141.419 21.9763C141.206 22.2426 140.922 22.4201 140.567 22.5089C140.23 22.5799 139.839 22.5089 139.395 22.2959C138.81 21.9763 138.188 21.7456 137.532 21.6035C136.875 21.4438 136.156 21.3639 135.375 21.3639C134.114 21.3639 133.058 21.6035 132.206 22.0828C131.354 22.5444 130.715 23.2367 130.289 24.1598C129.881 25.0651 129.677 26.1834 129.677 27.5148C129.677 29.5207 130.156 31.0385 131.114 32.068C132.091 33.0976 133.529 33.6124 135.428 33.6124C136.067 33.6124 136.724 33.5503 137.398 33.426C138.073 33.3018 138.739 33.1243 139.395 32.8935L138.623 34.571V29.4586H136.227C135.694 29.4586 135.286 29.3254 135.002 29.0592C134.718 28.7929 134.576 28.429 134.576 27.9675C134.576 27.4882 134.718 27.1243 135.002 26.8757C135.286 26.6095 135.694 26.4763 136.227 26.4763H140.407C140.94 26.4763 141.339 26.6183 141.606 26.9024C141.89 27.1864 142.032 27.5947 142.032 28.1272V34.3047C142.032 34.7663 141.943 35.1568 141.765 35.4763C141.588 35.7959 141.286 36.0266 140.86 36.1686C140.061 36.4527 139.165 36.6834 138.171 36.8609C137.177 37.0385 136.191 37.1272 135.215 37.1272Z" fill="white"/>
</svg>
