<svg width="250" height="91" viewBox="0 0 250 91" fill="none" xmlns="http://www.w3.org/2000/svg">
<rect x="3.69824" y="3.69824" width="88.7574" height="82.8402" rx="25" fill="#6842FF"/>
<path d="M62.0149 23.2522H34.3854C25.6213 23.2522 18.4911 30.3824 18.4911 39.1464V55.7244C18.4911 64.4885 25.6213 71.6187 34.3854 71.6187H62.0149C70.779 71.6187 77.9092 64.4885 77.9092 55.7244V39.1464C77.9092 30.3824 70.779 23.2522 62.0149 23.2522ZM55.6274 41.9691C55.6274 40.3351 56.9643 38.9982 58.5983 38.9982C60.2323 38.9982 61.5692 40.3351 61.5692 41.9691C61.5692 43.6031 60.2323 44.9694 58.5983 44.9694C56.9643 44.9694 55.6274 43.6625 55.6274 42.0285V41.9691ZM42.6446 54.0012C42.1989 54.4469 41.6345 54.6548 41.07 54.6548C40.5055 54.6548 39.941 54.4469 39.4954 54.0012L36.4354 50.9409L33.4942 53.8824C33.0485 54.328 32.4841 54.536 31.9196 54.536C31.3551 54.536 30.7906 54.328 30.345 53.8824C29.4834 53.0208 29.4834 51.5945 30.345 50.7332L33.2862 47.792L30.4341 44.94C29.5726 44.0784 29.5726 42.6524 30.4341 41.7908C31.2957 40.9292 32.7217 40.9292 33.5833 41.7908L36.4354 44.6429L39.3766 41.7017C40.2381 40.8401 41.6642 40.8401 42.5257 41.7017C43.3873 42.5632 43.3873 43.9893 42.5257 44.8505L39.5845 47.792L42.6446 50.8521C43.5061 51.7136 43.5061 53.1397 42.6446 54.0012ZM52.7754 50.8224C51.1414 50.8224 49.7747 49.4855 49.7747 47.8515C49.7747 46.2175 51.0819 44.8805 52.7159 44.8805H52.7754C54.4094 44.8805 55.7463 46.2175 55.7463 47.8515C55.7463 49.4855 54.4391 50.8224 52.7754 50.8224ZM58.5983 56.675C56.9643 56.675 55.6274 55.3678 55.6274 53.7338V53.6741C55.6274 52.0401 56.9643 50.7032 58.5983 50.7032C60.2323 50.7032 61.5692 52.0401 61.5692 53.6741C61.5692 55.3081 60.262 56.675 58.5983 56.675ZM64.4807 50.8224C62.8467 50.8224 61.4801 49.4855 61.4801 47.8515C61.4801 46.2175 62.7873 44.8805 64.4213 44.8805H64.4807C66.1147 44.8805 67.4516 46.2175 67.4516 47.8515C67.4516 49.4855 66.1444 50.8224 64.4807 50.8224Z" fill="white"/>
<path d="M53.0707 14.3135L53.041 17.1062C53.0113 19.7206 50.8426 21.8893 48.1985 21.8893C47.7528 21.8893 47.4854 22.1864 47.4854 22.5726C47.4854 22.9588 47.7825 23.2559 48.1687 23.2559H43.3856C43.3559 23.048 43.3262 22.8103 43.3262 22.5726C43.3262 19.8988 45.4949 17.73 48.139 17.73C48.5847 17.73 48.8818 17.433 48.8818 17.0467L48.9115 14.2541C48.9412 13.1251 49.8622 12.2042 50.9911 12.2042H51.0208C52.1795 12.2042 53.0707 13.1549 53.0707 14.3135Z" fill="white"/>
<path d="M115.814 61.7899C114.778 61.7899 113.979 61.5088 113.417 60.9467C112.885 60.355 112.618 59.5266 112.618 58.4615V33.1657C112.618 32.0414 112.885 31.1834 113.417 30.5917C113.979 30 114.719 29.7041 115.636 29.7041C116.435 29.7041 117.041 29.8668 117.456 30.1923C117.899 30.4881 118.402 30.9911 118.965 31.7012L134.541 51.5384H133.343V32.9881C133.343 31.9526 133.61 31.1538 134.142 30.5917C134.704 30 135.503 29.7041 136.539 29.7041C137.574 29.7041 138.358 30 138.891 30.5917C139.453 31.1538 139.734 31.9526 139.734 32.9881V58.5946C139.734 59.571 139.482 60.355 138.979 60.9467C138.476 61.5088 137.796 61.7899 136.938 61.7899C136.11 61.7899 135.444 61.6272 134.941 61.3017C134.468 60.9763 133.95 60.4586 133.388 59.7485L117.855 39.9112H119.009V58.4615C119.009 59.5266 118.743 60.355 118.21 60.9467C117.678 61.5088 116.879 61.7899 115.814 61.7899Z" fill="white"/>
<path d="M159.435 61.8787C157.216 61.8787 155.248 61.5976 153.532 61.0355C151.846 60.4438 150.426 59.5858 149.272 58.4615C148.118 57.3373 147.245 55.9319 146.654 54.2455C146.092 52.5296 145.811 50.5473 145.811 48.2988V33.21C145.811 32.0562 146.106 31.1834 146.698 30.5917C147.29 30 148.148 29.7041 149.272 29.7041C150.367 29.7041 151.21 30 151.802 30.5917C152.393 31.1834 152.689 32.0562 152.689 33.21V48.3432C152.689 50.8875 153.266 52.8106 154.42 54.1124C155.574 55.3846 157.245 56.0207 159.435 56.0207C161.624 56.0207 163.281 55.3846 164.405 54.1124C165.559 52.8106 166.136 50.8875 166.136 48.3432V33.21C166.136 32.0562 166.432 31.1834 167.024 30.5917C167.615 30 168.458 29.7041 169.553 29.7041C170.648 29.7041 171.476 30 172.038 30.5917C172.63 31.1834 172.926 32.0562 172.926 33.21V48.2988C172.926 51.287 172.408 53.8018 171.373 55.8432C170.367 57.855 168.858 59.3639 166.846 60.3698C164.864 61.3757 162.393 61.8787 159.435 61.8787Z" fill="white"/>
<path d="M182.608 61.3905C181.454 61.3905 180.566 61.0799 179.945 60.4586C179.324 59.8373 179.013 58.9497 179.013 57.7958V33.6982C179.013 32.5443 179.324 31.6568 179.945 31.0355C180.566 30.4142 181.454 30.1035 182.608 30.1035H193.347C195.566 30.1035 197.46 30.429 199.028 31.0799C200.596 31.7307 201.779 32.6627 202.578 33.8757C203.407 35.0887 203.821 36.5384 203.821 38.2248C203.821 40.0887 203.288 41.6716 202.223 42.9733C201.158 44.2751 199.694 45.1479 197.83 45.5917V44.8816C199.989 45.2662 201.661 46.1242 202.844 47.4556C204.057 48.7574 204.664 50.4586 204.664 52.5591C204.664 55.3402 203.702 57.5148 201.779 59.0828C199.856 60.6213 197.208 61.3905 193.836 61.3905H182.608ZM185.581 56.287H192.904C194.679 56.287 195.981 55.9467 196.809 55.2662C197.637 54.5562 198.052 53.5207 198.052 52.1597C198.052 50.7988 197.637 49.7781 196.809 49.0976C195.981 48.4171 194.679 48.0769 192.904 48.0769H185.581V56.287ZM185.581 42.9733H192.149C193.865 42.9733 195.137 42.6479 195.966 41.997C196.794 41.3461 197.208 40.3698 197.208 39.068C197.208 37.7958 196.794 36.8343 195.966 36.1834C195.137 35.5325 193.865 35.2071 192.149 35.2071H185.581V42.9733Z" fill="white"/>
<path d="M225.358 61.8787C221.838 61.8787 218.849 61.213 216.394 59.8816C213.968 58.5503 212.119 56.6864 210.847 54.2899C209.574 51.8935 208.938 49.0828 208.938 45.858C208.938 43.3728 209.308 41.139 210.048 39.1568C210.817 37.1449 211.912 35.4438 213.332 34.0532C214.781 32.6331 216.527 31.5384 218.568 30.7692C220.639 30 222.977 29.6154 225.58 29.6154C227.178 29.6154 228.775 29.7929 230.373 30.1479C231.971 30.5029 233.509 31.0946 234.989 31.923C235.61 32.2781 236.024 32.7367 236.231 33.2988C236.468 33.8313 236.527 34.4083 236.409 35.0296C236.32 35.6213 236.083 36.1538 235.699 36.6272C235.344 37.071 234.87 37.3668 234.278 37.5148C233.716 37.6331 233.065 37.5148 232.326 37.1597C231.349 36.6272 230.314 36.2426 229.219 36.0059C228.125 35.7396 226.926 35.6065 225.625 35.6065C223.524 35.6065 221.764 36.0059 220.344 36.8047C218.923 37.5739 217.858 38.7278 217.148 40.2662C216.468 41.7751 216.128 43.639 216.128 45.858C216.128 49.2012 216.926 51.7307 218.524 53.4467C220.151 55.1627 222.548 56.0207 225.713 56.0207C226.778 56.0207 227.873 55.9171 228.997 55.71C230.122 55.5029 231.231 55.2071 232.326 54.8225L231.039 57.6183V49.0976H227.045C226.157 49.0976 225.477 48.8757 225.003 48.4319C224.53 47.9881 224.293 47.3816 224.293 46.6124C224.293 45.8136 224.53 45.2071 225.003 44.7929C225.477 44.3491 226.157 44.1272 227.045 44.1272H234.012C234.9 44.1272 235.565 44.3639 236.009 44.8373C236.483 45.3106 236.719 45.9911 236.719 46.8787V57.1745C236.719 57.9438 236.571 58.5946 236.275 59.1272C235.98 59.6597 235.477 60.0444 234.767 60.281C233.435 60.7544 231.941 61.139 230.284 61.4349C228.628 61.7307 226.986 61.8787 225.358 61.8787Z" fill="white"/>
</svg>
