<?xml version="1.0" encoding="UTF-8"?>
<svg xmlns="http://www.w3.org/2000/svg" viewBox="0 0 2080.81 1226.59">
  <defs>
    <style>
      .cls-1, .cls-2, .cls-3, .cls-4, .cls-5, .cls-6, .cls-7, .cls-8, .cls-9, .cls-10, .cls-11, .cls-12, .cls-13, .cls-14, .cls-15, .cls-16, .cls-17, .cls-18, .cls-19, .cls-20, .cls-21, .cls-22, .cls-23, .cls-24, .cls-25, .cls-26, .cls-27, .cls-28, .cls-29, .cls-30, .cls-31, .cls-32, .cls-33, .cls-34, .cls-35, .cls-36, .cls-37, .cls-38, .cls-39, .cls-40, .cls-41, .cls-42, .cls-43, .cls-44, .cls-45 {
        stroke-width: 0px;
      }

      .cls-1, .cls-42 {
        fill: #edf2f4;
      }

      .cls-1, .cls-43 {
        opacity: .56;
      }

      .cls-2 {
        fill: #0b0119;
      }

      .cls-46 {
        opacity: .69;
      }

      .cls-3 {
        opacity: .4;
      }

      .cls-3, .cls-4, .cls-15, .cls-18, .cls-23, .cls-30, .cls-32, .cls-37, .cls-41, .cls-43 {
        fill: #fff;
      }

      .cls-4, .cls-5, .cls-47, .cls-44 {
        opacity: .38;
      }

      .cls-5, .cls-6, .cls-9, .cls-16, .cls-21, .cls-25, .cls-27, .cls-28, .cls-47, .cls-35, .cls-39, .cls-44 {
        mix-blend-mode: multiply;
      }

      .cls-5, .cls-19, .cls-21 {
        fill: #ad863a;
      }

      .cls-6, .cls-33 {
        fill: #7bcdff;
      }

      .cls-48 {
        isolation: isolate;
      }

      .cls-7 {
        fill: #48006c;
      }

      .cls-9, .cls-29 {
        fill: #a55d0e;
      }

      .cls-10 {
        fill: #784496;
      }

      .cls-11 {
        fill: #a186b7;
      }

      .cls-12 {
        fill: #542200;
      }

      .cls-13, .cls-27, .cls-44 {
        fill: #a04608;
      }

      .cls-14 {
        fill: #ccc;
      }

      .cls-15 {
        opacity: .31;
      }

      .cls-16, .cls-22 {
        fill: #2f0c59;
      }

      .cls-16, .cls-27 {
        opacity: .65;
      }

      .cls-17 {
        fill: #ea9611;
      }

      .cls-20 {
        fill: #c6a155;
      }

      .cls-23, .cls-49 {
        opacity: .14;
      }

      .cls-24 {
        fill: #3f0077;
      }

      .cls-25 {
        fill: #5f2696;
      }

      .cls-25, .cls-28, .cls-39 {
        opacity: .46;
      }

      .cls-26 {
        fill: #ff6b06;
      }

      .cls-50 {
        opacity: .53;
      }

      .cls-28, .cls-45 {
        fill: #a44aff;
      }

      .cls-30 {
        opacity: .7;
      }

      .cls-31 {
        fill: #79a5cc;
      }

      .cls-32 {
        opacity: .67;
      }

      .cls-34 {
        fill: #fcda4c;
      }

      .cls-35 {
        fill: #afd6e2;
      }

      .cls-36 {
        fill: #ffb93e;
      }

      .cls-37 {
        opacity: .29;
      }

      .cls-38 {
        fill: #d3b572;
      }

      .cls-40 {
        fill: #dceaef;
      }

      .cls-41 {
        opacity: .54;
      }
    </style>
  </defs>
  <g class="cls-48">
    <g id="_Layer_" data-name="&amp;lt;Layer&amp;gt;">
      <g>
        <g>
          <g>
            <path class="cls-14" d="M1419.44,439.43c-.14.02-.3.02-.46,0L2.02,306.91c-1.23-.11-2.13-1.21-2.01-2.44.11-1.23,1.21-2.14,2.43-2.02l1415.95,132.44L1875.25.61c.88-.85,2.31-.81,3.16.08.85.89.81,2.31-.09,3.16l-457.59,434.97c-.35.34-.81.55-1.29.6Z"/>
            <path class="cls-14" d="M2008.07,427.28c-.07,0-.14.02-.21.02l-588.62,12.15c-.68.01-1.33-.28-1.77-.8l-240.95-288.5c-.8-.94-.67-2.35.28-3.15.95-.79,2.36-.67,3.15.28l240.26,287.67,587.56-12.13c1.23-.03,2.25.96,2.29,2.19.01,1.17-.84,2.14-1.99,2.27Z"/>
            <path class="cls-14" d="M1932.11,1212.53c-.8.1-1.63-.26-2.12-.98l-511.79-771.79-896.65,218.86c-1.2.26-2.4-.45-2.7-1.65-.3-1.2.44-2.41,1.64-2.7l898.17-219.23c.9-.2,1.87.16,2.4.94l512.66,773.1c.68,1.03.4,2.42-.63,3.1-.3.21-.64.32-.99.36Z"/>
            <path class="cls-14" d="M1601.34,1084.03c-1.08.12-2.11-.54-2.41-1.62l-180.05-638.04-253.38,673.1c-.42,1.15-1.71,1.75-2.88,1.31-1.15-.44-1.74-1.73-1.3-2.88l255.78-679.48c.34-.9,1.2-1.49,2.19-1.45.96.04,1.8.7,2.05,1.63l181.89,644.6c.34,1.19-.35,2.43-1.54,2.76-.13.03-.24.05-.36.06Z"/>
            <path class="cls-14" d="M600.81,924.16c-.73.09-1.5-.2-2-.83-39.64-49.77-39.59-265.2-39.52-281.5C404.85,403.74,48.4,314.54,44.82,313.67c-1.2-.3-1.94-1.51-1.64-2.7.3-1.21,1.5-1.93,2.7-1.65,3.61.87,362.34,90.65,517.53,330.64.22.36.36.79.36,1.23-.02,2.3-.8,229.96,38.53,279.36.78.98.61,2.38-.34,3.15-.34.27-.74.43-1.15.47Z"/>
            <path class="cls-14" d="M1274.5,628.69c-82.89,9.48-241.12-20.06-247.1-54.46-2.72-15.62,22.13-28.28,75.99-38.7,4.12-1.76,57.17-23.28,125.21-2.67,55.02,16.67,113.23,42.84,111.58,66.28-.93,13.28-19.84,22.6-57.83,28.5-2.53.39-5.14.74-7.84,1.05ZM1146.64,529.72c-25.53,2.92-41.39,9.88-41.68,10.01-.16.07-.32.12-.49.15-66.09,12.76-73.9,26.52-72.66,33.59,5.33,30.61,166.34,62.67,249.86,49.75,43.73-6.78,53.53-17.01,54.05-24.39,1.19-16.88-42.38-41.67-108.41-61.68-31.32-9.49-59.36-9.86-80.66-7.43Z"/>
            <path class="cls-14" d="M1591.16,392.18c-20.1,2.3-49.04-7.94-54.86-24.09-2.44-6.8-1.73-17.29,15.62-28.59,10.63-6.92,22.41-6.46,33.16,1.28,13.21,9.52,22.03,28.52,18.86,40.67-1.61,6.17-6.15,9.99-12.77,10.74ZM1565.03,339.22c-3.36.39-6.95,1.61-10.67,4.03-8.22,5.36-17.29,13.76-13.84,23.32,4.92,13.67,32.14,23.22,50.14,21.16,4.79-.55,7.8-3.04,8.94-7.42,2.72-10.39-5.46-27.5-17.14-35.91-4.38-3.15-10.43-5.99-17.42-5.19Z"/>
            <path class="cls-14" d="M1428.3,473.31c-.7.08-1.41-.18-1.91-.72-9.05-9.97-16.83-9.04-17.14-8.99-.62.17-1.6-.2-2.09-.83-7.99-10.23-23.12-14.8-23.27-14.84-.5-.15-.94-.47-1.23-.9l-8.78-13.18c-.44-.64-.5-1.45-.18-2.15.32-.7.96-1.2,1.73-1.31,13.85-1.94,26.87-14.02,27-14.14.69-.64,1.68-.79,2.52-.38,13.71,6.7,30.93,3.04,31.09,3,.95-.19,1.97.24,2.45,1.11,6.63,12.16,17.72,14.16,18.18,14.23.91.16,1.64.85,1.83,1.76.19.9-.19,1.82-.97,2.33-5.36,3.49-14.08,23.21-17,30.51-.24.63-.78,1.12-1.42,1.32l-10.38,3.1c-.13.04-.26.06-.39.08ZM1409.95,459.09c3.01,0,10.58.96,18.79,9.45l8.02-2.4c1.9-4.69,8.86-21.16,15.17-28.66-4.37-1.64-11.45-5.45-16.58-13.94-4.74.79-18.65,2.43-31.03-3.02-3.31,2.86-13.35,10.87-24.87,13.65l6.49,9.72c3.32,1.09,16.06,5.77,24,15.21Z"/>
            <path class="cls-14" d="M1434.51,494.07c-.48.05-.97-.04-1.39-.3-.16-.09-15.13-8.8-31.88-4.73-.96.22-1.91-.16-2.41-.97-.19-.32-20.28-31.6-43.23-33.31-1.05-.08-1.91-.89-2.05-1.93-1.12-8.29-3.51-18.17-5.42-19.69-.61-.48-.92-1.23-.83-2,.08-.76.55-1.43,1.25-1.77.28-.14,28.27-13.89,34.35-33.39.34-1.11,1.47-1.76,2.62-1.52.4.09,40.11,8.7,69.65,5.33.6-.07,1.2.11,1.67.49.47.38.76.94.82,1.54.02.26,2.51,25.94,22.27,32.14.77.25,1.35.88,1.51,1.67.17.79-.1,1.61-.7,2.14-.28.26-28.63,25.91-25.05,50.81.12.81-.22,1.61-.86,2.09-.65.49-1.51.59-2.26.26-.1-.05-11.35-4.93-16.48,2.22-.39.53-.96.85-1.57.92ZM1405.46,483.75c13.08-1.5,24.12,3.19,28.24,5.25,5.19-5.5,12.83-4.55,17.23-3.35-.92-21.5,17.24-41.77,24.21-48.73-16.31-7.27-20.63-25.93-21.67-32.46-26.46,2.5-58.71-3.53-66.98-5.22-6.48,17.03-26.65,29.15-33.63,32.93,2.57,4.76,4.17,13.65,4.87,18.3,21.81,2.87,39.86,27.72,44.01,33.87,1.26-.26,2.51-.46,3.73-.6Z"/>
            <path class="cls-14" d="M1430.27,456.98c-1.11.13-2.17-.58-2.43-1.69-1.67-6.89,9.13-17.44,11.31-19.48.89-.84,2.31-.8,3.16.1.85.9.8,2.32-.11,3.16-4.49,4.22-10.8,11.97-10.02,15.16.29,1.2-.44,2.41-1.65,2.7-.09.02-.19.04-.27.05Z"/>
            <path class="cls-14" d="M1436.76,423.27c-.38.04-.78,0-1.15-.17-15.56-6.78-28.14-19.76-28.67-20.31-.85-.89-.82-2.31.06-3.16.88-.85,2.31-.83,3.16.06.14.12,12.52,12.89,27.24,19.3,1.14.49,1.65,1.81,1.16,2.94-.34.76-1.03,1.24-1.8,1.33Z"/>
            <path class="cls-14" d="M1444.26,528.98c-.64.07-1.29-.13-1.77-.57-.94-.86-23.4-21-53.4-8.15-.91.39-1.97.13-2.61-.64-11.55-14.18-42.24-49.3-57.03-56.11,1.99,6.75,5.03,20.31.87,30.58-.46,1.14-1.77,1.69-2.91,1.23-1.15-.46-1.71-1.77-1.25-2.92,5-12.3-2.19-31.26-2.26-31.45-.28-.72-.16-1.54.3-2.16.48-.62,1.25-.96,2-.88,15.86,1.54,54.62,47.75,62.71,57.58,26.39-10.43,47.59,2.72,54.37,7.8,2.32-4.01,5.53-6.79,9.59-8.3,6.29-2.34,13.15-.95,17.3.36-4.03-31.94,22.59-71.57,28.17-79.45-9.23-13.85-10.12-50.14-10.15-62.33-41.59,23.27-105.4,10.4-116.11,8-30.56,40.97-54.43,47.49-55.43,47.75-1.19.29-2.41-.41-2.72-1.61-.32-1.19.4-2.41,1.59-2.73.24-.06,23.95-6.7,53.83-47.24.54-.73,1.46-1.07,2.33-.86.75.18,74.91,17.68,117.59-9.15.69-.44,1.57-.46,2.29-.06.71.4,1.15,1.17,1.14,1.99-.02.52-.81,51.22,10.15,64.81.65.79.67,1.92.07,2.73-.36.48-34.83,47.75-27.69,81.16.17.84-.13,1.69-.81,2.23-.66.53-1.58.63-2.35.26-.1-.05-9.75-4.6-17.65-1.66-3.68,1.37-6.48,4.22-8.34,8.46-.29.66-.88,1.15-1.59,1.3-.07.01-.13.02-.2.03Z"/>
            <path class="cls-14" d="M1058.19,599.24c-.68.08-1.39-.16-1.9-.7-8.97-9.67-12.11-19.09-9.33-28,6.29-20.31,41.76-31.18,53.14-34.19-8.93-10.62-16.57-14.29-16.66-14.33-1.12-.52-1.61-1.85-1.08-2.97.52-1.12,1.84-1.61,2.95-1.09.41.18,9.94,4.69,20.49,18.35.48.6.6,1.41.34,2.13-.26.72-.87,1.26-1.61,1.43-.47.1-46.72,10.72-53.32,32-2.26,7.27.55,15.21,8.34,23.63.84.9.8,2.32-.12,3.16-.35.33-.8.53-1.26.58Z"/>
            <path class="cls-14" d="M1426.09,658.35c-.41.05-.84-.02-1.24-.22-30.28-14.82-73.36-45.52-73.78-45.83l-14.38-7.36c-1.11-.56-1.54-1.91-.97-3.01.57-1.11,1.92-1.53,3.01-.98l14.65,7.52c.71.48,43.48,30.97,73.43,45.63,1.12.54,1.57,1.88,1.02,2.99-.34.71-1.02,1.15-1.75,1.24Z"/>
            <path class="cls-14" d="M1450.6,550.88c-.48.05-.97-.05-1.42-.31-29-17.6-69.35-3.26-69.76-3.11-.9.33-1.97.03-2.56-.77-31.54-42.59-86.54-75.69-87.09-76.01-.59-.35-.97-.95-1.07-1.63-4.76-35.36-35.52-45.16-35.83-45.25-.95-.3-1.61-1.2-1.59-2.21.03-1,.73-1.87,1.71-2.11,64.41-15.71,79.94-82.32,80.09-83,.15-.65.57-1.2,1.15-1.5.61-.3,1.3-.33,1.9-.07,66.25,27.89,184.05,2.37,185.24,2.1.83-.17,1.63.1,2.17.72.54.62.69,1.49.4,2.25-14.37,37.95,32.98,92.22,33.46,92.76.49.56.67,1.32.48,2.04-.18.72-.71,1.3-1.41,1.55-46.44,16.42-68.89,100-69.11,100.84-.15.59-.54,1.09-1.08,1.39-.54.29-1.17.36-1.77.17-15.82-5.01-32.42,11.32-32.59,11.49-.36.36-.83.58-1.33.64ZM1401.83,537.95c14.19-1.62,32.41-1.04,48.21,7.93,4.28-3.84,18.56-15.27,33.59-12,3.84-13.46,25.43-82.66,68.34-100.6-9.07-10.94-43.42-55.49-33.46-91.1-20.95,4.24-119.99,22.28-181.74-2.18-3.5,12.28-21.6,65.29-76.52,82.12,9.85,4.99,28.61,17.92,32.73,45.26,7.34,4.52,56.56,35.68,86.5,75.32,3.38-1.1,11.74-3.55,22.35-4.76Z"/>
            <path class="cls-14" d="M1459,574.07c-.51.06-1.05-.06-1.48-.35-30.07-19.91-84.39-14.35-84.93-14.29-.75.08-1.49-.23-1.97-.81-22.6-27.67-126.9-75.41-127.95-75.89-.74-.34-1.24-1.05-1.31-1.87-.03-.46-3.87-46.33-38.36-60.64-.78-.32-1.31-1.05-1.38-1.89-.06-.84.34-1.65,1.06-2.09.96-.59,95.97-59.46,104.85-111.79.1-.59.43-1.12.92-1.46.49-.35,1.11-.47,1.69-.37,1.97.37,197.74,36.74,228.11,17.72,1.05-.65,2.43-.34,3.09.71.49.79.43,1.77-.08,2.49.08.35.07.73-.04,1.1-8.43,28.44-7.13,61.15,58.87,107.43.56.4.92,1.03.95,1.72.04.69-.25,1.35-.76,1.81-.42.36-41.89,36.55-53.12,50.67-20.77,26.14-47.65,71.5-47.92,71.96-.48.81-1.4,1.23-2.33,1.06-25.05-4.6-35.78,12.95-36.23,13.7-.32.53-.83.9-1.42,1.04-.08.02-.17.03-.25.04ZM1373.3,554.86c8.3-.75,55.43-4.09,84.86,13.96,3.81-4.94,15.9-17.59,38.02-14.19,4.61-7.72,28.52-47.29,47.47-71.14,10.12-12.72,42.75-41.66,51.54-49.38-63.95-45.62-66.53-80.06-59.07-107.85-40.24,14.39-202.67-14.78-224.62-18.83-10.23,48.42-85.42,99.15-102.96,110.41,30.69,15.49,36.33,53.58,37.17,61.36,12.12,5.57,104.07,48.43,127.6,75.66Z"/>
            <path class="cls-14" d="M1350.25,578.47c-.49.06-1-.05-1.46-.33-122.63-77.51-236.9-63.33-238.08-63.11-1.2.17-2.36-.69-2.53-1.92-.16-1.22.7-2.35,1.92-2.51,1.07-.19,117.03-14.63,241.09,63.77,1.04.66,1.36,2.04.69,3.09-.37.59-.99.95-1.63,1.02Z"/>
            <path class="cls-14" d="M1029.16,573.42c-.38.04-.78,0-1.16-.18-48.09-21.43-80.86-18.79-81.18-18.77-1.24.11-2.32-.79-2.43-2.02-.12-1.23.64-2.36,2.03-2.43,1.37-.13,34.16-2.81,83.4,19.14,1.12.51,1.64,1.83,1.14,2.96-.34.75-1.02,1.22-1.79,1.31Z"/>
            <path class="cls-14" d="M1492.73,697.88c-.28.03-.56.02-.83-.06-98.97-26-163.96-16-164.59-15.9-.5.11-1.01,0-1.46-.26-147.69-82.45-508.36-93.87-511.97-93.98-1.24-.03-2.21-1.07-2.17-2.3.03-1.23,1.06-2.19,2.3-2.17,3.63.11,364.32,11.52,513.37,94.17,7.67-1.06,71.16-8.58,164.8,15.88,6.8-3.69,52.1-27.48,81.61-22.25,9.95-20.5,101.83-205.37,199.62-243.58-14.08-18.54-101.64-139.43-79.76-250.66-34.77,7-330.87,66.03-435.48,67.95-1.24.02-2.26-.96-2.28-2.2-.02-1.24.99-2.28,2.19-2.28,110.24-2.03,434.74-67.86,438-68.53.69-.13,1.51.08,2.04.62.54.54.76,1.31.6,2.05-25.82,119.02,79,251.35,80.06,252.68.45.56.6,1.31.41,2-.2.7-.72,1.25-1.39,1.5-100.7,36.33-199.73,241.88-200.72,243.95-.45.94-1.5,1.44-2.5,1.22-29.51-6.58-80.5,21.6-81.01,21.88-.26.14-.54.23-.83.26Z"/>
            <path class="cls-14" d="M1507.37,752.18c-.48.06-.98-.05-1.41-.3-76.49-45.98-198.73-13.82-199.96-13.49-.79.21-1.64-.02-2.21-.62-78.9-82.99-189.38-120.52-190.49-120.89-1.17-.39-1.8-1.66-1.42-2.83.4-1.18,1.67-1.81,2.83-1.42,1.11.37,111.82,37.97,191.41,121.11,13.41-3.35,126.9-29.76,200.77,13.49,8.43-6.9,56.04-44.43,91.67-41.65,13.64-20.1,167.75-245.33,244.32-276.36-6.37-27.77-67.69-296.96-61.01-337.96l-596.52,67.5c-34.21,68.64-240.93,214.33-266.38,232.09,51.06,50.16,39.05,155.76,38.52,160.29-.15,1.22-1.27,2.1-2.49,1.95-1.22-.15-2.09-1.26-1.95-2.49.13-1.1,12.58-110.61-39.11-158.38-.5-.46-.76-1.13-.71-1.8.04-.68.4-1.3.95-1.68,2.35-1.63,234.34-163.02,267.7-233.04.33-.69,1-1.17,1.76-1.26.01,0,601.03-68.01,601.03-68.01.81-.09,1.62.28,2.09.96.46.67.53,1.56.15,2.29-9.99,19.45,40.5,252.33,60.78,340.41.26,1.1-.34,2.21-1.4,2.6-76.41,28.28-243.07,274-244.75,276.47-.46.69-1.27,1.06-2.09.98-36.69-3.93-90.34,41.06-90.88,41.51-.34.3-.76.47-1.19.52Z"/>
            <path class="cls-14" d="M1290.16,777.04c-.67.07-1.35-.14-1.86-.65-155.36-157.33-609.6-154.34-614.17-154.3-1.24,0-2.25-.98-2.27-2.21-.02-1.23.96-2.25,2.21-2.26,4.58-.05,460.73-3.04,617.42,155.62.86.89.86,2.3-.03,3.17-.37.37-.83.58-1.31.63Z"/>
            <path class="cls-14" d="M1465.05,606.73c-.47.05-.94-.04-1.36-.28-34.62-19.49-101.97-13.57-102.64-13.5-.91.08-1.78-.4-2.2-1.21-17.04-33.32-125.73-92.73-173.58-94.87-.7-.03-1.34-.39-1.74-.97-.4-.58-.5-1.31-.28-1.98,7.79-22.89-49.5-67.94-72.23-83.37-.7-.48-1.08-1.31-.96-2.15.11-.84.7-1.55,1.49-1.82,66.3-22.56,143.82-163.73,144.6-165.16.29-.54.8-.94,1.41-1.09.58-.16,1.23-.06,1.75.27,88.53,56.16,303.92,55.17,306.08,55.15.78,0,1.5.39,1.92,1.04.41.65.46,1.47.12,2.17-5.12,10.6,1.34,32.83,3.18,34.88.96.77,1.08,2.13.32,3.1-.78.97-2.23,1.1-3.19.32-3.16-2.51-9.26-23.96-5.54-37.04-27.23-.11-218.59-2.77-303.27-54.59-10.03,18.03-78.69,138.1-141.88,163.66,15.59,11.02,75.65,55.48,71.12,83.28,50.52,4.13,154.35,61.21,173.93,95.8,10.34-.82,69.31-4.52,102.84,13.68l50.12-19.09c5.7-9.14,69.87-110.87,127.65-152.59,1.01-.72,2.41-.5,3.12.5.73,1,.5,2.4-.49,3.12-59.49,42.97-126.19,150.88-126.87,151.96-.26.42-.64.74-1.11.92l-51.79,19.73c-.17.07-.37.11-.54.13Z"/>
            <path class="cls-14" d="M1647.26,435.21c-.43.05-.88-.02-1.28-.23-34.95-17.94-51.79-43.81-52.5-44.9-.66-1.04-.36-2.43.69-3.09,1.02-.66,2.42-.36,3.09.68.16.26,16.94,25.99,50.77,43.34,1.09.56,1.53,1.91.96,3.01-.36.7-1.01,1.12-1.73,1.2Z"/>
            <path class="cls-14" d="M1482.15,665.74c-.18.02-.38.02-.56,0l-141.35-19.1c-.39-.05-.78-.21-1.1-.46-5.68-4.52-22.84-14.55-47.08-20.15-1.21-.28-1.95-1.48-1.68-2.68.29-1.21,1.5-1.95,2.68-1.68,24.36,5.63,41.97,15.72,48.38,20.62l139.67,18.87c32.56-31.61,61.68-27.36,70.72-24.96,7.31-81.62,125.31-188.04,143.29-203.81-62.19-47.35-104.87-135.9-101.24-162.76-15.67-4.09-116.53-30.67-153.7-47.56-1.13-.51-1.63-1.84-1.12-2.97.51-1.13,1.85-1.62,2.97-1.11,39.8,18.08,153.87,47.55,155.02,47.84.59.15,1.08.53,1.38,1.05.3.52.38,1.14.21,1.72-5.48,19.74,35.1,112.85,101.37,161.88.54.4.88,1.04.9,1.72.02.69-.26,1.33-.78,1.78-1.39,1.19-139.14,120.46-144.04,205.35-.04.71-.42,1.36-1.03,1.75-.61.38-1.37.45-2.03.2-1.33-.52-32.94-12.31-69.59,23.86-.35.35-.82.57-1.31.63Z"/>
            <path class="cls-14" d="M1674.13,413.74c-.48.05-.98-.05-1.43-.32-20.26-12.53-77.88-55.7-78.46-56.14-.99-.74-1.18-2.15-.44-3.14.75-.98,2.15-1.19,3.13-.44.58.43,58.03,43.49,78.13,55.91,1.06.65,1.39,2.03.73,3.08-.38.6-.99.97-1.65,1.04Z"/>
            <path class="cls-14" d="M1085.99,520.53c-.19.02-.38.02-.58,0-1.23-.18-2.07-1.32-1.9-2.54,5.43-37.01-39.53-115.07-39.98-115.85-.3-.52-.38-1.15-.21-1.74.16-.58.56-1.07,1.09-1.36,99.16-53.46,154.36-221.89,154.91-223.59.3-.93,1.18-1.57,2.15-1.55.99,0,1.83.65,2.12,1.59,1.61,5.29,39.3,130.2,23.78,188.66-.32,1.19-1.55,1.91-2.74,1.59-1.19-.32-1.9-1.54-1.59-2.74,13.18-49.63-14.05-152.28-21.77-179.49-11.42,31.97-64.66,169.25-152.73,218.36,7.23,12.82,44.62,81.17,39.39,116.77-.15,1.02-.97,1.78-1.95,1.9Z"/>
            <path class="cls-14" d="M679.48,619.96c-.78.09-1.58-.24-2.07-.91-108.78-151.54-378.82-283.93-381.52-285.24-.86-.42-1.37-1.35-1.25-2.31.13-.96.87-1.72,1.82-1.9,7.41-1.37,743.49-137.43,888.67-172.99,1.23-.27,2.42.44,2.71,1.64.29,1.2-.44,2.41-1.65,2.7-137.94,33.78-808.35,158.13-882.35,171.82,40.7,20.57,276.87,143.89,377.19,283.66.72,1,.49,2.4-.51,3.12-.32.23-.68.36-1.06.41Z"/>
            <path class="cls-14" d="M811.37,586.46c-.19.02-.39.02-.58-.01-1.23-.18-2.07-1.32-1.89-2.54,6.97-46.16-116.84-202.13-125.67-213.19-39.96-9.22-155.78-76.18-160.73-79.04-1.07-.62-1.43-1.99-.81-3.06.62-1.07,1.98-1.43,3.05-.81,1.22.7,121.69,70.35,160.22,78.72.5.11.94.38,1.27.78,5.5,6.82,134.58,167.72,127.12,217.27-.16,1.02-.98,1.78-1.96,1.89Z"/>
            <path class="cls-14" d="M537.27,482.88c-.24.03-.5.02-.76-.05-1.2-.28-1.95-1.48-1.66-2.68,7.55-32.37.2-124.16.12-125.08-.09-1.23.88-2.29,2.05-2.41,1.23-.1,2.3.81,2.41,2.05.3,3.8,7.47,93.41-.22,126.46-.23.95-1.02,1.62-1.94,1.72Z"/>
            <path class="cls-14" d="M915.71,392.8c-.71.08-1.44-.18-1.95-.77-.81-.94-.7-2.35.23-3.16,91.87-79.03,118.08-196.77,118.33-197.95.26-1.21,1.45-1.98,2.65-1.72,1.22.26,1.99,1.45,1.73,2.65-.26,1.19-26.76,120.36-119.8,200.41-.35.3-.77.48-1.2.53Z"/>
            <path class="cls-14" d="M1529.67,833.2c-.65.06-1.24-.14-1.7-.52-54.79-46.23-232.43-54.48-234.21-54.56-1.25-.05-2.2-1.1-2.15-2.33.05-1.24,1.12-2.22,2.34-2.14,7.29.31,177.55,8.24,235.23,54.23,8.72-9.49,55.19-56.39,115.72-49.7,4.63-60.71,277.99-334.7,289.79-346.52.88-.86,2.3-.88,3.17,0,.88.88.88,2.29.01,3.17-2.93,2.92-292.33,292.98-288.53,345.72.04.67-.21,1.33-.7,1.79-.49.46-1.16.66-1.84.58-65.7-8.85-115.18,48.92-115.68,49.5-.36.44-.89.72-1.46.78Z"/>
            <path class="cls-14" d="M1252.84,1194.58c-.76.09-1.54-.21-2.04-.86-.4-.54-41-54.52-29.14-131.83,11.55-75.25.24-99.64.14-99.87-.27-.56-.3-1.22-.08-1.8.22-.58.68-1.05,1.27-1.27,2.02-.79,202.57-77.96,328.46-37.45.92.3,1.55,1.15,1.55,2.12-.01,1.6.55,161.07,46.25,225.69.72,1.01.48,2.41-.52,3.12-1,.7-2.41.48-3.12-.54-44.55-62.99-46.97-208.55-47.08-226.64-117.53-36.72-300.18,28.99-321.81,37.06,2.64,7.62,9.37,35.19-.62,100.26-11.58,75.36,27.85,127.91,28.25,128.43.77.99.56,2.39-.42,3.14-.32.26-.7.4-1.09.44Z"/>
            <path class="cls-14" d="M1727.6,901.03c-.29.03-.59,0-.88-.07-1.19-.35-1.87-1.59-1.52-2.78.95-3.28,97.1-328.55,245.9-476.33-14.93-18.4-154.87-190.69-169.29-204.08-.9-.84-.95-2.26-.11-3.16.83-.91,2.24-.96,3.17-.12,15.36,14.28,164.64,198.29,170.98,206.11.72.9.65,2.19-.16,3-148.81,146.29-245.24,472.54-246.2,475.82-.26.9-1.03,1.51-1.89,1.6Z"/>
            <path class="cls-14" d="M1414.45,918.46c-.35.04-.7,0-1.06-.14-45.24-17.58-150.84-60.42-151.91-60.84-1.15-.46-1.69-1.77-1.23-2.91.46-1.15,1.77-1.7,2.91-1.23,1.06.43,106.64,43.26,151.84,60.82,1.17.45,1.73,1.74,1.28,2.9-.31.8-1.03,1.32-1.83,1.41Z"/>
          </g>
          <g>
            <path class="cls-24" d="M895.28,899.16l-72.65,2.76,9.86,259.44-107.06,4.07,11.17-267.36-86.58,10.4,2.72-115.51,244.97-16.42-2.45,122.62Z"/>
            <path class="cls-24" d="M1057.28,1224.76l-57.18-94.09,9.41,89.35-71.55,2.71-1.81-191.38-12.24-5.55-4.29-113.06c21.54-8.83,42.06-13.45,61.56-13.82,19.49-.38,36.75,2.7,51.77,9.25,15.02,6.53,27.41,16.01,37.18,28.39,9.77,12.4,15.69,26.75,17.77,43.09,2.07,16.33-.16,34.19-6.72,53.58-6.56,19.39-18.38,39.45-35.45,60.15l69.81,81.03-58.25,50.35ZM996.69,1041.09c4.37-.17,7.84-2.49,10.4-6.96,2.56-4.47,4.01-9.72,4.32-15.75.32-6.03-.92-12-3.69-17.91-2.78-5.91-7.14-10.2-13.07-12.9l2.03,53.52Z"/>
            <path class="cls-24" d="M1226.55,1035.54l1.37,36.05,35.82-7.38-4.64,36.28-29.57,13.7-5.66,23.74,59.96-19.78-3.04,78.33-144.35,30.1,4.42-200.36-18.5-11.88,20.45-109.63,156.85-17.99-6.04,157.75-67.08-8.94Z"/>
            <path class="cls-24" d="M1463.23,885.24l73.52,322.67-85.75,3.25-9.49-91.53-18.33,7.26,3.24,85.2-85.98-2.75,36.26-326.84,86.53,2.73ZM1420.36,1052.61l18.57-.71-14.43-48.68-4.14,49.39Z"/>
            <path class="cls-24" d="M1712.67,875.37l-61.72,2.35,8.34,219.57-90.67,3.45,9.46-226.27-72.96,8.79,2.31-97.46,207.33-13.89-2.09,103.46Z"/>
          </g>
          <g>
            <path class="cls-18" d="M853.05,483.1l-72.64,2.76,9.86,259.44-107.06,4.07,11.17-267.35-86.57,10.4,2.72-115.51,244.97-16.42-2.45,122.62Z"/>
            <path class="cls-18" d="M1023.4,649.1l-57.18-94.09,9.41,89.35-71.55,2.72-1.8-191.38-12.24-5.55-4.3-113.06c21.55-8.83,42.06-13.44,61.56-13.83,19.49-.37,36.75,2.71,51.77,9.25,15.02,6.54,27.41,16.01,37.18,28.4,9.77,12.4,15.69,26.75,17.77,43.08,2.07,16.33-.16,34.19-6.72,53.59-6.56,19.39-18.38,39.45-35.45,60.15l69.81,81.04-58.25,50.35ZM962.81,465.43c4.37-.17,7.84-2.49,10.4-6.96,2.56-4.47,4.01-9.73,4.32-15.75.32-6.03-.92-12-3.69-17.91-2.78-5.91-7.13-10.21-13.07-12.9l2.03,53.53Z"/>
            <path class="cls-18" d="M1070.81,313.64l107.9-10.66-5.73,338.8-76.46,2.91-25.71-331.04Z"/>
            <path class="cls-18" d="M1454.43,542.48c-5.18,12.84-11.53,24.72-19.1,35.65-7.57,10.94-16.26,20.57-26.09,28.93-9.83,8.36-20.47,14.99-31.91,19.92-11.46,4.93-23.33,7.62-35.61,8.09-17.94.68-34.7-2.83-50.29-10.56-15.6-7.72-29.39-18.42-41.38-32.1-12-13.68-21.58-29.77-28.78-48.29-7.19-18.51-11.18-38.07-11.96-58.66-.78-20.59,1.72-40.05,7.51-58.4,5.79-18.34,14.16-34.46,25.1-48.35,10.94-13.89,23.91-24.93,38.9-33.16,14.98-8.22,31.45-12.67,49.38-13.35,12.29-.47,24.31,1.07,36.1,4.61,11.77,3.54,22.86,8.78,33.28,15.7,10.4,6.92,19.78,15.21,28.13,24.87,8.35,9.66,15.58,20.53,21.7,32.6l-75.87,25.33c-3.31-8.52-8.69-14.22-16.12-17.1-7.42-2.87-15.46-4.15-24.09-3.82-5.31.2-10.58,1.74-15.79,4.59-5.21,2.86-9.8,6.78-13.77,11.75-3.98,4.98-7.16,10.92-9.55,17.82-2.41,6.91-3.44,14.35-3.14,22.32.28,7.31,1.87,14.24,4.78,20.77,2.91,6.55,6.53,12.31,10.89,17.3,4.34,5,9.23,8.96,14.67,11.92,5.43,2.96,10.81,4.33,16.12,4.13,5.31-.2,10.75-1.57,16.31-4.11,5.55-2.53,11.1-5.24,16.65-8.11l83.95,29.73Z"/>
            <path class="cls-18" d="M1619.39,585.05l99.89,80.99-70.05,56.81-69.62-76.12,2.76,72.64-72.42,8.77-24.65-332.18,96.67-3.67-1.63,115.47,44.17-104.51,91.37,15.13-96.5,166.67Z"/>
          </g>
          <g>
            <path class="cls-45" d="M1005.56,693.49c75.11-8.42,81.83,103.9,43.68,148.56-12.26,14.13-28.07,23.01-48.03,21.65-86.57-4.56-78.86-160.86,4.35-170.21ZM1036.99,779.39c.99-32.35-14.03-46.48-29.45-46.48-42.7,0-42.1,99.79.39,88.86,16.01-2.97,28.27-19.6,29.06-42.39Z"/>
            <path class="cls-45" d="M1182.66,832.03c8.3.46,10.87,7.52,10.47,15.72-.59,8.2-5.14,13.67-12.25,15.72-24.51,6.15-40.52-28.93-56.13-45.12-2.17,3.43-1.58,29.62-1.98,33.95-.98,12.76-11.27,12.76-19.57,12.99-8.3.22-16.6-5.01-16.6-18,0-39.41.79-82.94.79-115.98,0-12.07.39-26.88,11.27-31.44,20.16-8.43,59.1-9.11,76.69,4.33,31.62,24.38,29.06,95.01-13.64,109.36.6,8.21,11.46,18.68,20.95,18.46ZM1158.16,744.08c-6.13-14.36-24.12-16.18-34-11.62,0,15.26-.4,34.18-.4,50.12,26.29,6.84,45.66-11.84,34.39-38.5Z"/>
          </g>
          <path class="cls-18" d="M895.28,899.16l-72.65,2.76,9.86,259.44-107.06,4.07,11.17-267.36-86.58,10.4,2.72-115.51,244.97-16.42-2.45,122.62ZM1057.28,1224.76l-57.18-94.09,9.41,89.35-71.55,2.71-1.81-191.38-12.24-5.55-4.29-113.06c21.54-8.83,42.06-13.45,61.56-13.82,19.49-.38,36.75,2.7,51.77,9.25,15.02,6.53,27.41,16.01,37.18,28.39,9.77,12.4,15.69,26.75,17.77,43.09,2.07,16.33-.16,34.19-6.72,53.58-6.56,19.39-18.38,39.45-35.45,60.15l69.81,81.03-58.25,50.35ZM996.69,1041.09c4.37-.17,7.84-2.49,10.4-6.96,2.56-4.47,4.01-9.72,4.32-15.75.32-6.03-.92-12-3.69-17.91-2.78-5.91-7.14-10.2-13.07-12.9l2.03,53.52ZM1226.55,1035.54l1.37,36.05,35.82-7.38-4.64,36.28-29.57,13.7-5.66,23.74,59.96-19.78-3.04,78.33-144.35,30.1,4.42-200.36-18.5-11.88,20.45-109.63,156.85-17.99-6.04,157.75-67.08-8.94ZM1463.23,885.24l73.52,322.67-85.75,3.25-9.49-91.53-18.33,7.26,3.24,85.2-85.98-2.75,36.26-326.84,86.53,2.73ZM1420.36,1052.61l18.57-.71-14.43-48.68-4.14,49.39ZM1712.67,875.37l-61.72,2.35,8.34,219.57-90.67,3.45,9.46-226.27-72.96,8.79,2.31-97.46,207.33-13.89-2.09,103.46Z"/>
          <g>
            <path class="cls-25" d="M1404.77,815.22c.08-.18.15-.36.22-.54.12.05.25.1.37.14-.35.24-.58.4-.6.41Z"/>
            <g>
              <path class="cls-11" d="M1362.74,737.77l3.26,2.76-3.26-2.76Z"/>
              <g>
                <path class="cls-8" d="M1462.66,776.32c-22.02,33.54-56.2,26.36-89.74,4.35-33.55-22.01-53.74-50.52-31.73-84.07,22.01-33.54,67.04-42.89,100.59-20.87,33.54,22.01,42.89,67.05,20.88,100.59Z"/>
                <path class="cls-39" d="M1456.96,783.78c.13-.26.22-.5.36-.77,6.81-12.88,7.12-22.82-8.16-25.98-15.26-3.15-41.85,28.37-68.13,11.27-26.14-17.3-7.81-54.24-16.77-66.99-8.98-12.76-17.98-8.53-27.09,2.85-.18.22-.37.41-.56.62-13.99,30.01,5.53,55.68,36.3,75.87,30.77,20.2,62.08,27.88,84.04,3.12Z"/>
                <path class="cls-8" d="M1398.99,798.97c-8.02,12.22-22.49,8.28-37.19-1.37-14.7-9.65-24.08-21.36-16.06-33.58,8.02-12.21,26.44-14.29,41.14-4.64,14.71,9.65,20.13,27.38,12.11,39.59Z"/>
                <path class="cls-39" d="M1380.35,769.34c-12.56-8.25-27.82-7.9-37-.02-2.74,10.28,5.89,20.03,18.45,28.28,12.56,8.24,24.94,12.28,33.29,5.68,3.58-11.56-2.17-25.7-14.73-33.94Z"/>
                <path class="cls-43" d="M1344.45,767.56c7.8-11.88,25.72-13.91,40.03-4.52,14.31,9.39,19.58,26.64,11.78,38.53-.45.69-.93,1.31-1.41,1.89,1.51-1.15,2.91-2.6,4.14-4.48,8.02-12.21,2.6-29.94-12.11-39.59-14.7-9.65-33.12-7.57-41.14,4.64-1.23,1.88-2.01,3.74-2.46,5.59.34-.68.72-1.36,1.17-2.05Z"/>
                <path class="cls-45" d="M1473.59,748.34c4.54-27.5-7.01-56.34-31.81-72.62-24.79-16.27-55.86-15.39-79.27-.29,3.45,2.6,13.22,9.42,21.23,9.51,9.9.11,21.99-12.9,31.17-11.95,4.94.53,7.91,5.78,6.01,10.28-1.29,3.06-3.16,6.18-5.83,9.16-12.35,13.83-25.21,19.47-31.3,28.24-6.08,8.78-.79,27.63,6.99,32.74,7.79,5.11,27.2,2.46,32.83-6.61,5.63-9.07,5.68-23.13,13.45-39.96,1.68-3.63,3.8-6.58,6.09-8.98,3.37-3.53,9.37-2.89,11.78,1.35,4.56,8.12-2.57,24.39,1.47,33.42,3.27,7.31,13.41,13.57,17.18,15.7Z"/>
                <path class="cls-37" d="M1441.78,675.73c-21.36-14.02-47.37-15.28-69.14-5.71,2.98,2.57,8.32,6.48,12.98,6.13,6.88-.5,27-11.53,35.48-7.5,8.48,4.04,6.8,16.9-.68,24.66-7.48,7.74-28.71,26.78-29.67,32.91-.97,6.13,3.74,12.93,7.7,15.54,3.97,2.59,12.07,4.21,17.32.88,5.24-3.32,14.25-30.37,18.39-40.32,4.13-9.95,15.27-16.61,22.34-10.43,7.08,6.17,4.97,29.01,7.24,35.53,1.54,4.4,7.25,7.75,10.79,9.46.12-23.78-11.38-47.13-32.74-61.15Z"/>
                <path class="cls-43" d="M1341.19,700.35c21.39-32.59,65.15-41.67,97.74-20.28,32.59,21.39,41.67,65.14,20.28,97.74-6.69,10.2-14.55,16.53-23.17,19.75,9.97-2.94,19.02-9.67,26.62-21.24,22.01-33.54,12.66-78.58-20.88-100.59-33.54-22.02-78.58-12.67-100.59,20.87-7.6,11.58-10.16,22.56-8.89,32.88-.48-9.2,2.19-18.92,8.89-29.12Z"/>
                <g>
                  <path class="cls-8" d="M1348.1,761.11s7.69-39.16,3.08-47.1c-4.62-7.93-44.84-26.47-45.05-24.65-.21,1.83-.62,18.91,40.14,28.64,0,0,.71,13.89,1.83,43.11Z"/>
                  <path class="cls-43" d="M1349.13,714.64c1.84,3.17-.01,40.42-.01,40.42l.11-.21c1.95-11.39,5.4-34.89,1.95-40.85-4.62-7.93-44.84-26.47-45.05-24.65,6.75,5.17,41.16,22.1,43.01,25.28Z"/>
                  <path class="cls-8" d="M1344.55,763.03s-18.59-40.02-23.16-43.03c-4.58-3-50.27-1.23-50.49.59-.21,1.83,13.39,23.52,46.61,9.31,0,0,7.42,7.16,27.04,33.14Z"/>
                  <path class="cls-43" d="M1341.52,756.67c-5.42-11.41-16.71-34.43-20.13-36.68-4.58-3-50.27-1.23-50.49.59,9.7,2.39,47.37-.67,49.13.81,1.76,1.48,21.49,35.27,21.49,35.27Z"/>
                  <path class="cls-8" d="M1340.54,764.66s-29.14-18.47-34.09-20.4c-4.94-1.94-43.4,24.22-43.69,25.67-.29,1.44,22.71,12.28,42.7-16.18,0,0,8.45,2.59,35.08,10.91Z"/>
                  <path class="cls-43" d="M1305.22,746.29c1.75.03,24.36,12.1,31.05,15.69-8.27-5.19-26.06-16.25-29.83-17.72-4.94-1.94-43.4,24.23-43.69,25.67,9.95.26,40.42-23.68,42.47-23.64Z"/>
                  <path class="cls-8" d="M1334.94,768.19s-35.21,1.77-39.9,3.93c-4.69,2.16-6.83,31.86-11.39,42.3,0,0,7.58,8.84,14.77-4.71,5.07-9.56,3.46-32.22,3.46-32.22,0,0,11.93-2.21,33.06-9.3Z"/>
                  <path class="cls-43" d="M1295.79,774.79c1.16-1.25,19.92-4.52,28.62-5.99-10.78.7-26.36,1.93-29.37,3.31-4.69,2.16-6.83,31.86-11.39,42.3,5.79-.47,10.63-37.99,12.14-39.62Z"/>
                </g>
                <g>
                  <path class="cls-8" d="M1400.72,795.65s32.86-22.64,41.98-21.57c9.12,1.07,42.13,30.6,40.54,31.52-1.59.92-17.1,8.1-42.25-25.43,0,0-13.03,4.88-40.28,15.48Z"/>
                  <path class="cls-43" d="M1442.95,776.21c-3.65-.43-37.08,16.1-37.08,16.1l.15-.19c9.68-6.31,29.86-18.83,36.7-18.03,9.12,1.07,42.13,30.6,40.54,31.52-7.44-4.13-36.66-28.96-40.3-29.39Z"/>
                  <path class="cls-8" d="M1400.38,799.67s44.12,1.13,48.7,4.13c4.58,3,21.14,45.63,19.55,46.55-1.59.92-26.9-2.92-27.08-39.05,0,0-9.52-3.96-41.16-11.63Z"/>
                  <path class="cls-43" d="M1407.41,799.92c12.62.43,38.23,1.63,41.66,3.88,4.58,3,21.14,45.63,19.55,46.55-6.05-7.95-18.23-43.72-20.29-44.75-2.05-1.02-40.91-5.68-40.91-5.68Z"/>
                  <path class="cls-8" d="M1400.48,804s28.54,19.38,32.28,23.15c3.75,3.76-4.96,49.46-6.17,50.31-1.21.84-20.31-15.95-2.15-45.61,0,0-5.75-6.72-23.97-27.84Z"/>
                  <path class="cls-43" d="M1431.39,829.09c-.72-1.59-20.79-17.54-26.75-22.25,8.06,5.53,25.27,17.45,28.13,20.32,3.75,3.77-4.96,49.46-6.17,50.31-4.19-9.02,5.64-46.51,4.79-48.37Z"/>
                  <path class="cls-8" d="M1399.47,810.53s12.39,33.01,12.27,38.17c-.11,5.17-26.51,18.95-34.27,27.28,0,0-11.13-3.44-1.55-15.43,6.75-8.45,28.18-15.99,28.18-15.99,0,0-2.72-11.83-4.62-34.03Z"/>
                  <path class="cls-43" d="M1408.98,849.08c.69-1.56-3.77-20.08-5.89-28.64,3.64,10.17,8.72,24.95,8.64,28.26-.11,5.17-26.51,18.95-34.27,27.28-1.87-5.51,30.62-24.87,31.51-26.91Z"/>
                </g>
                <g>
                  <path class="cls-8" d="M1395.42,822.94c9.37-14.29,1.25-36.19-18.15-48.92-19.4-12.73-42.73-11.47-52.11,2.81-.46.7-.84,1.39-1.21,2.11-.02-.07-5.25,7.07-5.04,15.07,0,0,1.43-1.02,3.13-1.44,0,0-3.04,6.29-.62,12.25,0,0,1.55-3.35,3.1-5.05,0,0-.59,5.39,2.31,10.46,0,0,.39-2.07,2.08-4.08.42,1.34,2.32,6.98,5.25,10.53,0,0,.11-2.33.58-3.88,0,0,2.14,5.56,4.38,8.12,0,0,.36-3.04.81-3.72,0,0,3.32,4.25-.74,9.77,0,0,4.09.95,10.44-3.41.44,2.26-1.84,3.74-1.84,3.74,5.45,2.43,10.88,1,10.88,1-.82,2.24-2.88,3.27-2.88,3.27,4.68,1.63,10.87-.43,11.19-.54-1.16,2.41-2.94,3.63-2.94,3.63,5.8.64,10.51-2.05,10.51-2.05-.95,2.11-3.41,4.86-3.41,4.86,6.43-.15,11-5.45,11-5.45.29,1.71-.08,3.44-.08,3.44,6.63-2.67,10.9-9.05,11.74-10.38.57-.66,1.12-1.36,1.62-2.13Z"/>
                  <path class="cls-43" d="M1375.51,776.7c18.78,12.33,26.95,33.23,18.95,47.51.32-.42.66-.8.96-1.27,9.37-14.29,1.25-36.19-18.15-48.92-19.4-12.73-42.73-11.47-52.11,2.81-.3.46-.52.93-.78,1.39,9.92-13.03,32.34-13.85,51.13-1.53Z"/>
                  <path class="cls-18" d="M1330.03,777.62s-5.31,6.09-4.89,11.62c.17,2.21,5.4-1.76,11.94-.62,0,0,.44-7.62-7.05-11Z"/>
                  <path class="cls-45" d="M1337.07,788.62s.44-7.62-7.05-11c0,0-.92,1.06-1.97,2.7,1.31-1.52,5.88.9,6.27,4.28.34,2.92-.88,3.72-1.26,3.89,1.25-.11,2.6-.11,4.01.14Z"/>
                  <path class="cls-18" d="M1392.24,818.44s-3.47,7.3-8.71,9.11c-2.09.73-.53-5.65-4.19-11.2,0,0,6.82-3.43,12.9,2.09Z"/>
                  <path class="cls-18" d="M1337.64,789.76s-3.67,5.76-3.25,7.44c.42,1.68,4.63,1.26,5.12,1.83.5.58-1.41,5.97-.72,6.93.68.95,6.03.13,6.03.13,0,0-7.95-13-7.18-16.33Z"/>
                  <path class="cls-45" d="M1337.64,789.76s-.84,1.32-1.67,2.88c.72.36,1.74,1.1,2.37,2.55.76,1.75.59,2.87.52,3.6.31.06.57.13.66.24.12.14.1.6,0,1.21.47.46,1.25,1.25,2.54,3.19.64.95.99,1.93,1.19,2.85.89-.09,1.58-.19,1.58-.19,0,0-7.95-13-7.18-16.33Z"/>
                  <path class="cls-18" d="M1377.54,815.94s-3.82,5.66-5.53,5.94c-1.72.28-3-3.75-3.72-3.97-.73-.22-4.92,3.67-6.07,3.42-1.15-.24-2.51-5.48-2.51-5.48,0,0,15.09,2.11,17.84.09Z"/>
                  <path class="cls-45" d="M1348.1,793.47s-12.4-15.61-9.61-19.45c2.79-3.84,12.44-2.66,15.1,2.88,2.66,5.53-5.49,16.58-5.49,16.58Z"/>
                  <path class="cls-41" d="M1353.13,777.69c1.81,3.76-1.41,10.07-3.62,13.69,2.2-3.47,6.03-10.45,4.08-14.49-2.66-5.53-12.31-6.71-15.1-2.88-.16.22-.26.49-.33.78,2.82-3.76,12.33-2.58,14.96,2.89Z"/>
                  <path class="cls-45" d="M1371.04,808.51s19.25,5.17,21.66,1.08c2.41-4.08-2.5-12.47-8.64-12.71-6.13-.25-13.02,11.63-13.02,11.63Z"/>
                  <path class="cls-34" d="M1372.72,807.49s8.75,2.35,9.85.5c1.1-1.86-1.14-5.67-3.94-5.78-2.78-.11-5.92,5.29-5.92,5.29Z"/>
                  <path class="cls-34" d="M1348.01,791.27s-5.64-7.09-4.38-8.84c1.27-1.75,5.66-1.21,6.87,1.31,1.21,2.51-2.49,7.54-2.49,7.54Z"/>
                  <path class="cls-45" d="M1361.59,782.87s4.37-4.48,2.3-8.66c-2.06-4.17-10.51-3.28-2.3,8.66Z"/>
                  <path class="cls-45" d="M1375.39,791.93s2.37-5.79,7.03-5.55c4.65.22,7.2,8.33-7.03,5.55Z"/>
                  <path class="cls-45" d="M1375.81,778.9c-.43-.7-1.38-1.47-2.37-1.58-1.16-.09-2.69.07-3.66,1.37-1.31,1.75-1.25,4.1-.96,5.77.2,1.16,1.1,1.75,2.25,1.47,1.64-.4,3.82-1.28,4.9-3.18.79-1.39.36-2.83-.16-3.85Z"/>
                  <path class="cls-34" d="M1361.51,782.18s2.51-2.57,1.32-4.96c-1.18-2.39-6.02-1.88-1.32,4.96Z"/>
                  <path class="cls-34" d="M1375.95,791.64s1.36-3.32,4.03-3.18c2.66.14,4.12,4.77-4.03,3.18Z"/>
                  <path class="cls-34" d="M1373.59,781.16c-.25-.41-.8-.85-1.36-.9-.66-.06-1.54.04-2.1.78-.75,1.01-.71,2.35-.55,3.31.12.67.63,1.01,1.29.85.94-.23,2.19-.74,2.81-1.83.46-.79.21-1.63-.08-2.2Z"/>
                  <path class="cls-3" d="M1383.86,833.45c.46-1.34-.65-3.63-.65-3.63-3.09,2.96-7.86,5.25-7.86,5.25,1.36-1.57,1.54-4.48,1.54-4.48-2.95,1.51-8.98,2.71-8.98,2.71,1.75-1.8,1.79-4.72,1.79-4.72-5.83,1.91-10.18,1.67-10.18,1.67,1.35-1.82,1.15-4,1.15-4-4.92,1.76-9.95-.06-9.95-.06,1.29-3.33.32-4.86.32-4.86-3.56,2.82-8.18,3.48-8.18,3.48,1.94-4.95-3.13-10.82-3.13-10.82-.54.71-1.53,3.34-1.53,3.34-1.36-2.04-2.96-7.34-2.96-7.34-.9.62-2.13,2.61-2.13,2.61-2.55-3.72-2.91-8.78-2.91-8.78-1.57.28-3.48,2.06-3.48,2.06-1.06-1.75-1.61-8.02-1.61-8.02-1.78.96-2.96,2.88-2.96,2.88-.53-2.55,1.21-9.44,1.21-9.44-1.62-.16-3.18.86-3.18.86-.34-2.77,1.1-8.46,1.17-8.74-1.29,2.79-2.56,6.6-2.45,10.61,0,0,1.43-1.02,3.13-1.44,0,0-3.04,6.3-.62,12.25,0,0,1.55-3.35,3.1-5.06,0,0-.59,5.4,2.31,10.47,0,0,.39-2.07,2.08-4.08.42,1.34,2.32,6.98,5.25,10.53,0,0,.11-2.33.58-3.88,0,0,2.14,5.55,4.39,8.11,0,0,.36-3.04.81-3.72,0,0,3.32,4.25-.74,9.78,0,0,4.09.94,10.44-3.42.44,2.25-1.84,3.74-1.84,3.74,5.45,2.43,10.89,1,10.89,1-.82,2.25-2.88,3.27-2.88,3.27,4.67,1.63,10.87-.42,11.19-.54-1.16,2.41-2.95,3.63-2.95,3.63,5.8.64,10.51-2.05,10.51-2.05-.95,2.11-3.41,4.86-3.41,4.86,6.43-.15,10.99-5.45,10.99-5.45.29,1.71-.08,3.44-.08,3.44,3.75-1.51,6.74-4.2,8.78-6.5-2.91,3.04-6.98,4.49-6.98,4.49Z"/>
                  <path class="cls-41" d="M1349.9,783.37c-.52.79-1.91.8-3.1.02-1.19-.78-1.73-2.06-1.21-2.84.52-.8,1.9-.8,3.09-.02,1.19.78,1.74,2.06,1.22,2.85Z"/>
                  <g>
                    <path class="cls-41" d="M1383.51,797.63c-4.16-.16-8.68,5.3-11.12,8.77,2.3-3.4,7.18-9.69,11.67-9.51,6.14.24,11.06,8.62,8.64,12.71-.14.24-.34.43-.58.61,2.33-4.08-2.54-12.33-8.6-12.57Z"/>
                    <path class="cls-41" d="M1379.59,802.85c-.52.79.03,2.06,1.22,2.85,1.19.78,2.58.77,3.09-.02.52-.79-.02-2.07-1.22-2.84-1.19-.79-2.57-.78-3.09.02Z"/>
                  </g>
                  <g>
                    <path class="cls-28" d="M1379.34,816.36s6.81-3.44,12.9,2.09c0,0-.61,1.27-1.69,2.87.87-1.81-3.16-5.03-6.42-4.04-2.81.85-3.06,2.28-3.07,2.7-.39-1.19-.93-2.43-1.71-3.62Z"/>
                    <path class="cls-28" d="M1378.07,816.29s-.88,1.3-1.98,2.67c-.61-.5-1.69-1.15-3.28-1.15-1.9,0-2.87.6-3.52.95-.18-.26-.34-.46-.48-.5-.18-.06-.58.15-1.11.48-.6-.25-1.64-.64-3.94-1.06-1.13-.21-2.16-.14-3.09.05-.27-.86-.45-1.52-.45-1.52,0,0,15.09,2.11,17.84.09Z"/>
                  </g>
                  <path class="cls-10" d="M1386.38,814.86c-4.99-1.37-20.91,5.2-34.06-3.4-13.12-8.65-13.43-25.86-16.67-29.89-3.24-4.04-6.32-4.34-6.32-4.34,7.72,5.45,4.86,5.3,9.71,18.63,4.7,12.93,11.72,17.12,12.14,17.35.38.28,7.01,5.06,20.74,4.23,14.15-.86,12.88-3.42,20.95,1.5,0,0-1.5-2.71-6.5-4.07Z"/>
                </g>
              </g>
            </g>
          </g>
          <path class="cls-18" d="M787.17,319.05c0-13.38-6.06-23.11-18.67-22.76,12.6-.34,17.75-11.89,18.55-24.19.12,12.17,6.19,24.08,18.55,24.16-12.36-.08-18.43,9.19-18.43,22.8Z"/>
          <path class="cls-18" d="M1868.25,290.73c0-10.88-4.93-18.79-15.18-18.51,10.25-.28,14.43-9.66,15.08-19.67.1,9.89,5.03,19.58,15.08,19.64-10.04-.06-14.98,7.47-14.98,18.54Z"/>
          <path class="cls-18" d="M1784.92,1148.27c0-10.88-4.93-18.79-15.18-18.51,10.25-.28,14.43-9.67,15.08-19.67.1,9.9,5.03,19.58,15.08,19.64-10.05-.06-14.98,7.47-14.98,18.54Z"/>
          <path class="cls-18" d="M477.88,727.44c0-10.88-4.93-18.79-15.18-18.51,10.25-.28,14.43-9.66,15.08-19.67.1,9.9,5.03,19.58,15.08,19.64-10.05-.06-14.98,7.47-14.98,18.54Z"/>
          <path class="cls-18" d="M1847.95,1004.66c0-22.18-10.06-38.31-30.95-37.74,20.9-.57,29.42-19.71,30.75-40.11.2,20.17,10.26,39.92,30.75,40.05-20.49-.13-30.55,15.24-30.55,37.8Z"/>
          <path class="cls-18" d="M427.98,656.74c0-22.19-10.06-38.31-30.96-37.74,20.9-.57,29.42-19.71,30.75-40.11.2,20.18,10.26,39.92,30.75,40.05-20.49-.13-30.55,15.24-30.55,37.8Z"/>
          <path class="cls-18" d="M893.83,195.46c0-22.18-10.06-38.31-30.96-37.74,20.9-.57,29.42-19.71,30.75-40.11.2,20.18,10.26,39.92,30.75,40.05-20.49-.13-30.55,15.24-30.55,37.8Z"/>
        </g>
        <g>
          <path class="cls-40" d="M2007.93,513.3s23.03-8.27,34.2-31.3c7.57-15.62,24.22-3.22,28.67,19.71,5.24,26.98-1.53,55.85-31.24,84.35-22.31,21.4-45.2-60.5-31.63-72.76Z"/>
          <path class="cls-18" d="M2070.82,501.71c-4.46-22.93-21.11-35.33-28.68-19.71-7.47,15.44-20.27,24.23-27.9,28.35,7.28-2.59,21.99-9.68,31.4-26.78,10.38-18.88,24.56,13.54,26.61,39.7.47-7.29-.05-14.49-1.42-21.56Z"/>
          <path class="cls-40" d="M1774.94,479.82l-2.96-9.71s1.69-76.45,69.7-110.25c0,0,20.27-9.29,30.83,0,10.56,9.3-9.72,54.07-9.72,54.07,0,0-69.69,14.36-87.86,65.89Z"/>
          <path class="cls-40" d="M1830.9,681.1s-18.81-4.25-41.18-17.11c-33.46-19.23-76.49-67.85-59.79-94.5,16-25.53,70.37,37.95,129.81,25.89,59.43-12.06,31.36,104.08-28.84,85.71Z"/>
          <path class="cls-40" d="M2026.69,505.59c-22.4-67.58-118.48-142.56-201.48-106.45-83,36.12-53.85,148.26-33.16,185.44,14.6,26.22,29.76,69.42,30.57,105.76-.11,2.2-.18,4.67-.16,7.65,0,1.17-.05,2.23-.09,3.33-.28,4.14-.75,8.15-1.51,11.97-9.84,40.2-62.05,16.35-62.81,6.25-.84-11.19,16.68-8.24,16.68-8.24-22.81-8.02-35.9,8.66-20.49,29.36,0,0,.73.95,2.07,2.47.5.58.99,1.15,1.51,1.67,10.61,11.25,45.51,41.59,113.63,42.11,157.13,1.19,191.98-170.44,155.23-281.32Z"/>
          <path class="cls-40" d="M2026.69,505.59c-18.27-55.15-85.63-115.2-154.9-115.81,3.65-12.19,5.93-25.35.73-29.93-10.56-9.29-30.83,0-30.83,0-60.1,29.87-68.41,93.02-69.52,107.3-8.46,44.19,7.27,94.74,19.89,117.42,14.6,26.22,29.76,69.42,30.57,105.76-.11,2.2-.18,4.67-.16,7.65,0,1.17-.05,2.23-.09,3.33-.28,4.14-.75,8.15-1.51,11.97-9.84,40.2-62.05,16.35-62.81,6.25-.84-11.19,16.68-8.24,16.68-8.24-22.81-8.02-35.9,8.66-20.49,29.36,0,0,.73.95,2.07,2.47.5.58.99,1.15,1.51,1.67,10.61,11.25,45.51,41.59,113.63,42.11,157.13,1.19,191.98-170.44,155.23-281.32Z"/>
          <path class="cls-18" d="M2027.13,505.59c-22.4-67.58-118.48-142.56-201.48-106.45-4.51,1.96-8.63,4.19-12.5,6.57,20.55-9.64,79.57-29.58,145.28,19.25,48.94,36.37,69.16,83.62,77.52,115.64-2.19-12.13-5.12-23.88-8.82-35.02Z"/>
          <path class="cls-7" d="M1846.31,548.44s-10.21-37.73-1.85-42.69c8.35-4.95,30.31,10.52,30.31,10.52,0,0-21.97-10.21-27.22-4.96-5.26,5.27-1.24,37.12-1.24,37.12Z"/>
          <path class="cls-7" d="M1928.6,479.46s-6.81-22.59-.93-27.84c5.87-5.27,30.01,10.2,36.5,19.48,0,0-28.77-18.56-33.1-15.47-4.33,3.1-2.47,23.83-2.47,23.83Z"/>
          <path class="cls-31" d="M1902.17,423.81s18.91,4.96,20.44-.98c1.53-5.95-11.63-14.17-17.44-13.56-5.81.6-16.19,10.81-3,14.54Z"/>
          <path class="cls-18" d="M1900.36,419.67s19.64,9.04,22.45,2.85c2.81-6.18-9.95-17.66-16.39-18.12-6.45-.46-19.7,8.67-6.05,15.26Z"/>
          <path class="cls-31" d="M1812.85,459.73s8.16-13.48,2.7-15.42c-6.75-2.39-13.76,2.55-16.22,9.31-2.47,6.76-2.14,17.02,1.33,18.02,3.46.99,10.11-8.17,12.2-11.92Z"/>
          <path class="cls-18" d="M1811.62,456.68s7.2-16.18.84-17.56c-7.86-1.71-14.97,4.78-16.78,12.66-1.79,7.88.02,19.26,4.01,19.89,4,.62,10.13-10.52,11.93-14.99Z"/>
          <path class="cls-7" d="M1920.56,511.61s-9.51,25.98-41.5,19.01c0,0,19.01,38.65,40.55,29.46,21.54-9.19.95-48.48.95-48.48Z"/>
          <path class="cls-33" d="M1904.25,538.54c-6.21,0-11.68,3.12-14.97,7.86,7.57,9.43,18.55,18.7,30.33,13.69,1.01-.44,1.84-.99,2.67-1.55.06-.59.18-1.17.18-1.78,0-10.06-8.15-18.22-18.21-18.22Z"/>
          <path class="cls-30" d="M1902.86,540.88c10.12,0,18.35,7.68,19.43,17.5.06-.54.16-1.07.16-1.63,0-10.06-8.15-18.22-18.21-18.22-6.21,0-11.68,3.12-14.97,7.86,3.55-3.37,8.29-5.52,13.58-5.52Z"/>
          <path class="cls-31" d="M1796.5,590.92s1.34,41.48-6.69,58.87c0,0,34.35-5.79,51.75-31.66,0,0,18.29,59.33,17.84,74.94,0,0,37.06-18.23,44.85-62.65,0,0,10.46,39.01,49.27,60.42,0,0,8.62-61.56,29.29-83.86,0,0,15.31,27.65,38.51,33.9,0,0-8.83-65.76-.62-92.66,0,0,13.11,8.36,30.96,2.55,0,0-23.91-35.69-25.11-47.74,0,0,7.11,108.29-92.65,124.47-82.52,13.38-137.39-36.58-137.39-36.58Z"/>
          <path class="cls-7" d="M1792.04,584.59s-6.57,30.88-21.83,56.88c0,0,38.62,4.89,72-25.51,0,0,5.14,58.92,6.79,78.73,0,0,36.69-20.95,55.25-64.26,0,0,26.42,53.95,77.15,56.84,0,0-8.08-44.81,1.41-80.28,0,0,48.09,22.94,89.34,1.49,0,0-40.31-34.26-51.45-60.25,0,0,46.91-3.68,60.11-40.8,0,0-38.18,4.27-54.26-4.39,0,0,3.12,67.9-42.26,102.55-45.37,34.65-124.18,35.93-192.24-20.99Z"/>
          <path class="cls-26" d="M2026.54,503.02s.94,20.78-5.89,45.21c.04-.02,46.95-3.7,60.15-40.82,0,0-38.18,4.27-54.26-4.39Z"/>
          <path class="cls-26" d="M1792.04,584.59s-6.57,30.88-21.83,56.88c0,0,38.62,4.89,72-25.51-16.92-7.46-33.86-17.73-50.17-31.36Z"/>
          <path class="cls-7" d="M1981.4,687.25s-8.08-44.81,1.41-80.28c-20.93,15.06-48.49,23.51-78.72,22.79l.15.65s26.42,53.95,77.15,56.84Z"/>
          <g class="cls-50">
            <path class="cls-42" d="M1788.97,596.56c-.77,2.69-2.07,6.76-3.18,10.13,8.77,11.46,27.52,21.61,34.13,24.67,4.18-2.09,8.1-4.47,11.12-6.61-16.86-8.01-40.53-26.97-42.07-28.19Z"/>
            <path class="cls-42" d="M1781.46,618.28c-1.51,3.79-3.2,7.68-5.08,11.59,4.47,5.61,9.37,9.61,11.55,11.24,4.96-.62,10.68-1.71,16.87-3.62-13.67-7.47-21.49-16.8-23.35-19.2Z"/>
          </g>
          <path class="cls-26" d="M1977.34,672.33c-4.45,0-8.05-3.69-8.05-8.25s3.6-8.23,8.05-8.23c.35,0,.68.06,1.02.1-.25-7.08-.22-14.85.34-22.82-.44.08-.89.14-1.36.14-4.45,0-8.05-3.69-8.05-8.24s3.6-8.24,8.05-8.24c1.15,0,2.24.26,3.23.7.61-3.57,1.32-7.1,2.24-10.53-6.43,4.41-13.47,8.34-20.95,11.68,1.83,1.51,3.03,3.79,3.03,6.39,0,4.55-3.6,8.24-8.05,8.24s-8.06-3.69-8.06-8.24c0-.5.06-1,.14-1.47-1.5.48-3.02.91-4.55,1.33.01,4.7-3.6,8.38-8.04,8.38-3.37,0-6.24-2.12-7.45-5.12-1.98.29-3.98.54-5.99.76-1.36,2.58-4,4.36-7.06,4.36-2.76,0-5.19-1.42-6.64-3.59-1.7.02-3.38.11-5.1.07l.15.65s8.2,16.7,24.21,32.02c.74-3.76,3.99-6.58,7.89-6.58,4.44,0,8.05,3.69,8.05,8.23,0,3.4-2.01,6.31-4.88,7.57,1.86,1.35,3.81,2.63,5.81,3.85.42-.06.83-.13,1.27-.13,3.24,0,6,1.96,7.29,4.78,1.71.8,3.49,1.5,5.29,2.19.6-3.94,3.91-6.97,7.93-6.97,4.45,0,8.05,3.69,8.05,8.24,0,.99-.2,1.94-.51,2.82,2.22.34,4.44.7,6.76.82,0,0-1.07-5.98-1.97-15.24-.67.18-1.36.31-2.09.31ZM1926.09,652.79c-4.45,0-8.06-3.69-8.06-8.23s3.6-8.24,8.06-8.24,8.06,3.7,8.06,8.24-3.61,8.23-8.06,8.23ZM1938.54,644.56c0-4.54,3.6-8.24,8.05-8.24s8.06,3.7,8.06,8.24-3.61,8.23-8.06,8.23-8.05-3.69-8.05-8.23ZM1956.85,672.33c-4.45,0-8.06-3.69-8.06-8.25s3.61-8.23,8.06-8.23,8.05,3.69,8.05,8.23-3.6,8.25-8.05,8.25ZM1959.04,644.56c0-4.54,3.6-8.24,8.05-8.24s8.05,3.7,8.05,8.24-3.6,8.23-8.05,8.23-8.05-3.69-8.05-8.23Z"/>
          <g>
            <path class="cls-26" d="M2039.36,575.77c-3.52,24.06-18.35,37.26-22.76,40.7,3.48.48,7.09.84,10.85,1.01,15.7-14.57,17.37-30.65,17.49-35.42-1.87-2.04-3.74-4.14-5.58-6.29Z"/>
            <path class="cls-26" d="M2054.82,592.35c-.67,13.19-7.87,21.4-11.44,24.63,3.77-.43,7.58-1.08,11.4-2.03,5.66-7.99,6-14.18,5.71-17.1-1.79-1.71-3.66-3.51-5.67-5.5Z"/>
            <path class="cls-26" d="M2003.46,613.93c21.49-17.6,26.95-40.96,28.12-47.83-2.16-2.91-4.18-5.81-5.96-8.68-4.72,32.14-29.31,53.26-30.43,54.21,2.44.77,5.26,1.55,8.27,2.29Z"/>
          </g>
          <path class="cls-18" d="M1885.94,654.74l-10.04,4.93-6.09-9.39-10.04,4.94-6.07-9.38-8.54,4.18c.18,2.12.37,4.27.55,6.43l5.83-2.86,6.09,9.39,10.04-4.94,6.09,9.39,10.04-4.93.44.69c1.32-1.62,2.63-3.27,3.92-5.01l-2.23-3.44Z"/>
          <path class="cls-26" d="M1871.04,677.27l-6.09-9.4-10.04,4.94-6.09-9.39-2.4,1.18c.2,2.42.41,4.8.61,7.12l5.73,8.85,10.03-4.93,3.8,5.87c1.56-1.36,3.16-2.85,4.82-4.43l-.39.19Z"/>
          <path class="cls-26" d="M1890.8,637.14l-10.04,4.93-6.07-9.39-10.05,4.93-6.09-9.38-10.03,4.93-5.57-8.61c.3,3.52.69,7.91,1.11,12.8l2.31,3.57,10.04-4.93,6.07,9.39,10.04-4.93,6.09,9.4,10.04-4.94,4.22,6.51c1.2-1.82,2.39-3.67,3.53-5.62l-5.61-8.66Z"/>
          <path class="cls-4" d="M2080.81,507.41s-13.75,1.52-28.22.88c-2.12,3.98-6.78,10.66-15.87,14.93,0,0,7.87,9.57,19.69,13.14,10.03-6.08,19.52-15.22,24.4-28.94Z"/>
          <path class="cls-18" d="M1872.58,359.86c-10.56-9.29-30.83,0-30.83,0-60.11,29.87-68.4,93.02-69.52,107.3-7.3,38.15,3.42,80.99,14.61,106.6-5.68-18.69-21.31-77.5-8.34-121.58,15.61-53.08,40.14-79.85,74.5-91.45,17.27-5.83,21.79,4.25,22.02,15.71,1.15-7.35.86-13.68-2.43-16.58Z"/>
          <path class="cls-18" d="M1729.93,569.5c-11.5,18.36,5.33,47.12,27.85,69.54-33.68-35.36-31.01-61.46-22.64-69.98,8.36-8.53,54.03,13.38,54.03,13.38-28.2-12.91-50.06-27.6-59.25-12.94Z"/>
        </g>
        <g>
          <path class="cls-2" d="M424.33,737.37s-23.8-5.25-37.92,4.04c-14.11,9.28,101.67,49.22,106.51,52.04,4.84,2.83,15.73,0,15.73,0,0,0-36.31-45.19-84.32-56.08Z"/>
          <path class="cls-40" d="M591.35,888.26s-42.76-120.23-133.13-96.02c-90.38,24.21-116.19,124.26-90.38,221.9,25.83,97.63,99.26,161.37,171.87,151.68,84.6-11.28,85.53-139.59,27.44-96.81,0,0,20.98-12.11,26.62,5.65,5.66,17.75-19.37,40.33-40.34,28.24-20.97-12.1,62.13-115.38,37.92-214.63Z"/>
          <path class="cls-7" d="M417.26,938.49s6.26-16.54,28.44-13.92c0,0,1.11-32.48-19.06-28.04-15.51,3.41-21.68,27.63-9.38,41.95Z"/>
          <path class="cls-7" d="M547.5,927.36s-11.22-13.82-32.76-4.34c0,0-11.37-31.64,10.26-33.75,16.62-1.62,30.62,20.56,22.51,38.09Z"/>
          <path class="cls-7" d="M504.51,933.81s-38.65,23.36-62.87,8.3c0,0,5,46.67,33.94,46.48,28.94-.18,33.07-38.72,28.94-54.78Z"/>
          <path class="cls-22" d="M499.36,766.02s90.37-19.76,94-22.59c3.63-2.82,24.21-59.71,26.23-61.72,2.01-2.02,71-10.49,73.42-10.09,2.43.41,22.59,45.6,33.89,57.69,11.3,12.11-32.28-16.94-34.69-19.36-2.42-2.42-44.38,19.77-44.38,20.98s7.66,60.52,7.66,66.17-45.99,66.97-45.99,66.97l-110.14-98.04Z"/>
          <path class="cls-2" d="M565.6,750.93c-19.61,4.7-44.83,10.34-58,13.24l-8.72,1.91,109.96,98.1s15.69-20.92,28.74-39.45c-25.64-41.71-58.97-65.58-71.97-73.81Z"/>
          <path class="cls-36" d="M584.76,764.39c-7.76,5.33-39.84,27.35-49.54,33.82l55.09,49.03,37.16-38.17c-14.53-19.8-30.17-34.57-42.71-44.68ZM589.67,828.72l-31.7-28.21c5.58-3.73,24.04-16.4,28.51-19.46,7.21,5.82,16.21,14.32,24.56,25.71l-21.38,21.96Z"/>
          <polygon class="cls-17" points="595.26 823.03 600.63 826.88 607.74 819.02 603.45 814.54 595.26 823.03"/>
          <path class="cls-31" d="M420.01,868.69s13.6-5.77,13.28-13.74c-.36-9.29-15.15-13.09-24.73-5.12-9.59,7.98-9.76,17.31-7.98,21.51,2.16,5.11,19.43-2.65,19.43-2.65Z"/>
          <path class="cls-31" d="M519.56,864.88s16.17,10.46,19.49,2.07c3.31-8.38-9.27-18.38-17.68-14.31-8.42,4.07-4.88,9.97-1.81,12.24Z"/>
          <path class="cls-18" d="M519.08,858.28s15.99,16.36,22.03,7.51c6.04-8.85-5.92-23.73-16.74-21.23-10.81,2.51-8.26,10.27-5.29,13.72Z"/>
          <path class="cls-33" d="M456.98,980.23s-7.86-10.43-2.12-15.43c5.76-5,19.22-2.72,21.04,10.58,0,0,3.33-4.83,8.32-2.71,4.99,2.11,7.09,15.19-9.08,15.88-10.6.46-18.16-8.31-18.16-8.31Z"/>
          <path class="cls-30" d="M484.15,972.67c-4.99-2.11-8.31,2.71-8.31,2.71-1.81-13.3-15.28-15.58-21.03-10.58-1.67,1.45-2.12,3.36-2.02,5.34.34-2.46,2.07-6.89,10.64-5.98,11.71,1.27,11.54,15.23,11.54,15.23,0,0,2.93-6.78,9.2-4.85,2.66.82,3.44,3.26,3.5,5.8.46-3.36-1.2-6.69-3.52-7.67Z"/>
          <path class="cls-6" d="M484.51,985.54c-2.67,1.58-6.71,2.73-12.89,1.79-12.44-1.88-17.66-12.72-18.85-15.64.85,4.34,3.99,8.54,3.99,8.54,0,0,7.56,8.77,18.16,8.31,4.54-.18,7.6-1.38,9.59-3Z"/>
          <path class="cls-40" d="M381.97,940.31s-48.82,12.91-73.84-13.32c0,0-13.44-7.54-16.13,9.48-2.9,18.31,27.43,84.53,98.44,87.35,70.99,2.83-8.48-83.51-8.48-83.51Z"/>
          <path class="cls-35" d="M595.81,924c-.17-11.97-1.49-24.05-4.42-36.08,0,0-42.76-120.22-133.14-96.02-18.99,5.09-35.09,13.57-48.49,24.62,20.31-2.67,50.7.51,81.29,30.39,48.34,47.22,84.27,72.96,104.76,77.09Z"/>
          <g class="cls-46">
            <path class="cls-18" d="M693.01,671.61c-2.42-.4-71.41,8.07-73.42,10.09-2.02,2.01-22.6,58.91-26.23,61.72-3.63,2.83-94,22.59-94,22.59l8.81,7.85c19.04-5.25,86.99-24.1,88.72-26.41,2.01-2.67,26.09-59.55,28.78-61.56,2.67-2.01,62.22-10.03,65.57-9.37,2.88.58,19.21,42.89,37.17,55.61.58-.13.28-.92-1.51-2.84-11.3-12.09-31.46-57.28-33.89-57.69Z"/>
            <path class="cls-18" d="M609.51,864.06s45.99-61.32,45.99-66.97c0-2.79-1.86-18.62-3.76-34.1l.69,33.31-50.86,60.69,7.93,7.06Z"/>
          </g>
          <path class="cls-22" d="M386.4,741.41s40.54-9.07,87.75,27.84c47.21,36.91,112.56,153.1,158.55,155.52,45.99,2.42,62.94-15.13,72.62-35.71,9.68-20.57-36.92-4.84-74.44-14.52-37.52-9.68-165.21-193.04-244.49-133.14Z"/>
          <path class="cls-1" d="M630.69,874.54c-37.49-9.68-164.99-192.73-244.29-133.27,3.38-2.33,52.79-34.13,134.15,44.11,84.31,81.1,89.56,93.6,117.39,97.64,27.83,4.03,69.79-9.28,68.17,3.23,3.96-16.21-39.82-2.51-75.44-11.7Z"/>
          <path class="cls-40" d="M583.68,938.09s24.21-1.22,36.92-13.32c12.7-12.1,19.36-15.73,25.41-7.87,6.05,7.87,4.23,55.68-33.89,79.28-38.13,23.61-52.04,30.27-52.04,30.27,0,0-20.58-71.41,23.6-88.36Z"/>
          <path class="cls-18" d="M646.02,916.9c-6.05-7.86-12.7-4.23-25.41,7.87-12.71,12.1-36.92,13.32-36.92,13.32,0,0,11.54,3.25,27.1-3.28,15.56-6.52,21.58-20.57,30.45-17.9,7.04,2.13,6.79,21.44,4.39,33.83,4.49-15.93,3.43-29.89.4-33.83Z"/>
          <path class="cls-32" d="M584.76,764.39c-6.86,4.72-32.77,22.49-45.36,31,.28.02,45.56-29.08,45.56-29.08,0,0,30.56,25.42,40.94,42.49l-33.68,36.47s35.25-36.19,35.25-36.19c-14.53-19.8-30.17-34.57-42.71-44.68Z"/>
          <path class="cls-17" d="M590.79,829.68l22.09-23.33c-5.44-11.55-26.26-28.7-26.26-28.7l-29.95,21.58,1.31,1.28c5.58-3.73,24.04-16.4,28.51-19.46,7.21,5.82,16.21,14.32,24.56,25.71l-21.38,21.96,1.12.96Z"/>
          <path class="cls-36" d="M594.12,808.28c-.46.15-6.5,6.2-6.5,6.2l12.36,9.51,4.56-5.41-10.42-10.3Z"/>
          <polygon class="cls-32" points="587.62 814.48 593.97 809.52 604.54 818.58 594.12 808.28 587.62 814.48"/>
          <path class="cls-16" d="M692.25,704.3l-46.17,11.72,1.76,14.9c0-1.21,41.96-23.4,44.38-20.98,1.28,1.29,14.14,10.05,24.26,16.2-.16-.13-.3-.3-.47-.42-10.71-8.03-23.75-21.41-23.75-21.41Z"/>
          <path class="cls-18" d="M420.01,866.03s12.52-7.82,10.96-15.65c-1.83-9.11-17.02-10.56-25.24-1.17-8.21,9.39-6.93,18.62-4.5,22.49,2.93,4.7,18.77-5.68,18.77-5.68Z"/>
          <path class="cls-18" d="M469.62,1152.51c-34.76-22.39-68.78-58.34-86.62-116.22-42.2-136.97,16.86-209.27,25.65-219.03-49.52,41.79-61.07,119.85-40.81,196.42,17.35,65.56,56.17,115.79,101.78,138.82Z"/>
          <path class="cls-7" d="M449.91,937.6s-12.49,8.14-13.38,14.94c0,0-2.56-11.83,13.38-14.94Z"/>
          <path class="cls-7" d="M496.96,930.37s10.81,6.41,11.8,12.12c0,0,1.75-10.05-11.8-12.12Z"/>
          <path class="cls-18" d="M358.14,943.4c-15.97.48-36.44-2.22-49.98-16.41,0,0-7.38-4.6-12.77,2.37,2.51,1.91,5.48,4,9.12,6.34,23.44,14.99,53.38,7.76,53.62,7.7Z"/>
          <g>
            <path class="cls-29" d="M317.2,926.78c-2.69-26.17-4.9-48.91-6.71-68.34-5.29-.7-9.3.38-10.95.98,7.94,57.53,18.66,152.9,29.71,304.23l22.74-2.02s-24.76-137.83-34.79-234.85Z"/>
            <path class="cls-9" d="M317.26,927.21c-.02-.14-.03-.29-.06-.42-2.69-26.17-4.9-48.91-6.71-68.34-5.29-.7-9.3.38-10.95.98,2.58,18.75,5.48,41.59,8.57,69l9.15-1.21Z"/>
            <path class="cls-21" d="M318.14,935.56l-1.37-.97-7.19,6.97c1.31,12.14,2.69,25.21,4.08,39.07,1.89-7.51,7.8-8.27,8.89-8.34-1.62-12.55-3.11-24.9-4.41-36.73Z"/>
            <path class="cls-13" d="M314.11,848.82c25.31-94.55,6.81-146.54,6.81-146.54,3.98,33.4-3,67.45-3,67.45,4.02-65.61-7.42-80.68-7.42-80.68,3.98,24.34.3,50.46.3,50.46-.97-40.5-15.5-61.08-15.5-61.08,6.19,23.25,4.61,50.27,4.61,50.27-2.95-31.56-15.46-54.77-15.46-54.77,4.12,16.42,4.56,40.82,4.56,40.82-1.53-20.7-11.52-45.81-11.52-45.81,5.2,18.64,4.12,67.68,4.12,67.68-4.01-15.63-7.83-53.79-7.83-53.79-5.08,9.34-2.66,33.87-2.66,33.87-3.8-10.94-3.71-28.32-3.71-28.32-9.33,22.13,1.12,74.81,1.12,74.81-9.26-40.6-8.4-67.15-8.4-67.15-12.6,36.36,14.92,104.94,14.92,104.94-21.83-49.21-24.19-88.35-24.19-88.35-1.24,50.61,36.36,125.33,43.37,138.79l19.87-2.6Z"/>
            <polygon class="cls-13" points="294.24 851.42 289.1 887 291.7 887.35 292.76 878.14 292.11 890.55 294.92 890.87 296.05 879.09 296.13 889.54 298.14 889.87 299.01 882.15 300.26 890.96 302.62 890.95 301.62 879.45 303.69 892.29 305.9 892.6 304.67 877.17 307.96 891.73 310.85 891.25 308.71 878.02 312.32 890.47 315.48 889.67 312.23 876.97 316.29 886.89 318.47 886.21 315.86 876 320.55 887.71 323.45 886.65 319.03 873.91 323.83 884.23 325.66 883.89 323.16 876.12 326.9 885.01 328.55 884.1 314.11 848.82 294.24 851.42"/>
            <path class="cls-12" d="M351.93,1161.63c.03.33-5.02,1.06-11.3,1.61-6.28.54-11.38.71-11.41.38-.04-.34,5.02-1.06,11.29-1.61,6.27-.54,11.38-.73,11.41-.38Z"/>
            <path class="cls-5" d="M326.48,1126.35c.82,10.79,1.66,21.81,2.5,33.22.42,1.37.83,2.54,1.2,3.48l5.54-.49c-12.54-30.85,4.78-66.14,1.56-83.3-3.36-17.84-15.62-48.62-17.62-63.12-2.01-14.5,2.89-34.79,0-45.51-2.91-10.71-6.03-17.17-6.03-17.17l-3.09-3.28c.04.37.09.74.12,1.1.66,1.79,2.03,5.54,4.97,13.78,3.44,9.61,1.36,21.96-.21,33.02.97,10.08,1.96,20.64,2.95,31.59,5,14.14,12.97,31.81,15.33,41.54,3.34,13.83-3.13,25.87-6.92,52.41-.13.92-.21,1.81-.31,2.7Z"/>
            <g class="cls-47">
              <path class="cls-19" d="M321.8,966.84c-.31-2.45-.61-4.89-.92-7.32-2.73-5.64-5.18-9.48-5.18-9.48,0,0,3.5,7.84,6.09,16.8Z"/>
              <path class="cls-19" d="M341.8,1120.31c.14-2.91.69-6.33,1.39-9.94-.66-3.93-1.34-8.03-2.03-12.29-1.44,19.34-4.78,49.06-.68,63.73l5.18-.46c-1.46-9.71-4.38-30.69-3.87-41.04Z"/>
              <path class="cls-19" d="M332.35,1042.12c-2.85-8.19-5.08-15.76-5.61-19.82-.52-4.08-.12-9.62.4-15.68-.97-6.87-1.93-13.76-2.84-20.64-1.26,12.54-1.77,33.41,2.77,48.36,2.21,7.25,5.07,15.59,7.71,23.66-.81-5.21-1.63-10.51-2.44-15.89Z"/>
            </g>
            <path class="cls-5" d="M330.05,1079.23c.9,9.16.18,13.39-1.31,13.53-1.49.14-3.2-3.84-4.1-13-.9-9.16-1.39-21.71.1-21.85,1.49-.16,4.4,12.16,5.31,21.33Z"/>
            <path class="cls-5" d="M325.87,1082.22c-.21-2.19.31-3.23,1.15-3.31.83-.08,1.64.83,1.86,3.02.21,2.19.09,5.2-.73,5.29-.83.08-2.05-2.8-2.27-5Z"/>
            <path class="cls-15" d="M351.8,1161.96c.08.02-17.02-95.24-28.56-183.12,1.43,16.92,15.19,175.92,28.56,183.12Z"/>
            <path class="cls-44" d="M310.02,837.29s7.02-61.23,2.67-90.66c.77,25.37-.53,56.81-2.67,90.66Z"/>
            <path class="cls-44" d="M300.58,814.95s-1.69-65.26-9.26-95.83c3.92,26.66,6.8,59.93,9.26,95.83Z"/>
            <path class="cls-44" d="M297.5,839.1s-19.51-45.48-21.44-69.36c4.53,19.8,12.33,43.75,21.44,69.36Z"/>
            <path class="cls-44" d="M295.8,855.52l-1.18,23s2.09-13.21,1.18-23Z"/>
            <path class="cls-44" d="M311.35,852.09l7.19,20.75s-5.93-13.3-7.19-20.75Z"/>
            <path class="cls-44" d="M304.91,854.69l2.25,13.04s-2.25-7.94-2.25-13.04Z"/>
            <path class="cls-44" d="M299.82,865.3l-.5,13.23s-.56-8.24.5-13.23Z"/>
            <path class="cls-23" d="M289.1,887l4.7-32.57s.32,13.3-4.7,32.57Z"/>
            <path class="cls-23" d="M315.12,851.6l13.43,32.5s-13.26-27.82-13.43-32.5Z"/>
            <path class="cls-27" d="M314.66,846.03c-.87-.52-2.61-1.08-6.06-.68,0,0-3.19.21-4.66.3,0,0-2.73.04-7.52.54-1.75.18-3.01,1.36-3.88,2.18.61,1.22,1.15,2.25,1.57,3.05l-.44,2.97c.1-.23,1.44-2.76,11.81-3.96,5.19-.59,7.98.07,9.51.93l-1.04-2.54c.26-.96.45-1.83.69-2.79Z"/>
            <path class="cls-20" d="M293.75,852.95c-.14,0-.27-.04-.38-.11-.36-.21-.48-.65-.28-1,.16-.26,1.67-2.62,9.67-4.64,8.76-2.23,11.86-1.37,12-1.32.4.11.62.54.5.93-.12.4-.54.63-.94.5-.02,0-2.95-.75-11.19,1.34-7.32,1.86-8.72,3.92-8.74,3.95-.14.22-.4.35-.65.35Z"/>
            <path class="cls-38" d="M292.97,849.87c-.19,0-.39-.08-.54-.23-.29-.29-.29-.75,0-1.03.21-.22,2.26-2.07,10.54-1.99,9.05.11,11.82,1.75,11.93,1.83.36.22.47.68.24,1.03-.21.36-.68.46-1.03.25-.01,0-2.65-1.5-11.15-1.61h-.64c-7.02,0-8.8,1.55-8.81,1.56-.16.13-.34.2-.52.2Z"/>
            <path class="cls-38" d="M293.66,853.22c-.16,0-.32-.04-.46-.15-.31-.25-.38-.7-.14-1.03.18-.24,1.98-2.39,10.17-3.41,8.99-1.11,11.94.14,12.07.19.38.17.56.62.39.99-.17.38-.62.55-.99.38-.02,0-2.83-1.11-11.27-.06-7.5.93-9.14,2.81-9.16,2.82-.16.18-.37.27-.59.27Z"/>
            <g class="cls-49">
              <path class="cls-18" d="M316.28,839.91c21.83-88.83,4.61-137.65,4.61-137.65,3.98,33.41-2.99,67.45-2.99,67.45,4.03-65.61-7.41-80.68-7.41-80.68,3.98,24.34.29,50.45.29,50.45-.96-40.5-15.49-61.08-15.49-61.08,6.19,23.25,4.61,50.28,4.61,50.28-2.96-31.56-15.47-54.77-15.47-54.77,4.14,16.42,4.57,40.82,4.57,40.82-1.54-20.71-11.53-45.83-11.53-45.83,3.13,11.2,3.99,33.34,4.18,49.25.69-8.78,1.07-21.89-.81-35.84,0,0,7.14,23.42,8.26,35.92,0,0,.66-21.64-1.35-33.46,0,0,12.04,31,12.72,55.76,0,0,2.89-26.54-.46-49.3,0,0,9.59,33.91,9.83,66.69,0,0,5.57-39.92,4.01-55.53,0,0,6.24,54.65,2.89,78.06,0,0,8.47-38.81,5.58-64.9,0,0,10.46,36.25-6.05,124.35Z"/>
              <path class="cls-18" d="M264.92,738.51c-.62-10.9-1.29-30.45,1.21-40.58,0,0,2.23,23.86,7.13,34.13,0,0-2.67-29.23-.22-41.94,0,0,3.13,19.34,5.73,31.9-2.79-17.41-4.98-39.22-4.98-39.22-5.09,9.34-2.67,33.87-2.67,33.87-3.8-10.94-3.71-28.3-3.71-28.3-5.11,12.12-4.28,33.37-2.49,50.14Z"/>
              <path class="cls-18" d="M259.83,748.02c-1.57-10.91-4.23-33.46-1.07-42.27,0,0,1.77,14.74,4.59,30.09-3.71-24.76-3.22-39.81-3.22-39.81-4.98,14.37-3.69,33.78-.3,51.99Z"/>
              <path class="cls-18" d="M253.22,739.85c6.66,37.94,25.62,80.3,35.67,100.96-8.17-18.45-28.39-65.98-35.67-100.96Z"/>
            </g>
          </g>
          <path class="cls-40" d="M295.46,954.88s-2.51-8.2-3.34-12.88c-.84-4.68-1.83-20.52,9.59-28.48,9.93-6.92,22.03-1.79,27.04,9.25,5.02,11.04-1.84,25.26-6.85,28.6-5.02,3.36-10.37,7.03-10.04,16.73.33,9.71-12.88-3.18-16.4-13.21Z"/>
          <path class="cls-18" d="M322.66,918.31c8.7,10.7,4.02,29.32-4.68,35.91,8.69-4.91,11.15-14.48,11.15-14.48,1.66-5.31,2.09-11.52-.39-16.98-5.01-11.03-17.11-16.17-27.04-9.25-10.12,7.05-10.5,20.24-9.86,26.43.29,8.71,5.38,23.26,15.51,37.83-3.85-7.06-13.81-27.03-13.01-43.08,1-19.84,19.63-27.1,28.32-16.38Z"/>
        </g>
      </g>
    </g>
  </g>
</svg>