<svg width="33" height="33" viewBox="0 0 33 33" fill="none" xmlns="http://www.w3.org/2000/svg">
<path d="M21.7542 16.5L31.8939 6.41667C33.3687 4.95 33.3687 2.75 31.8939 1.28333C31.3408 0.55 30.419 0 29.4972 0C28.5754 0 27.6536 0.366667 26.9162 1.1L16.5922 11.3667L6.45251 1.28333C4.97765 -0.183334 2.58101 -0.183334 1.2905 1.28333C0.553072 1.83333 0 2.75 0 3.85C0 4.95 0.368715 5.68333 1.10615 6.41667L11.2458 16.5L1.10615 26.5833C0.553073 27.3167 0 28.2333 0 29.3333C0 30.25 0.368715 31.1667 1.10615 31.9C1.84358 32.6333 2.76536 33 3.68715 33C4.60894 33 5.53073 32.6333 6.26816 31.9L16.4078 21.8167L26.5475 31.9C28.0223 33.3667 30.419 33.3667 31.7095 31.9C33.1844 30.4333 33.1844 28.05 31.7095 26.7667L21.7542 16.5Z" fill="white"/>
</svg>
