<svg width="32" height="28" viewBox="0 0 32 28" fill="none" xmlns="http://www.w3.org/2000/svg">
<path d="M0.214589 9.71256C0.328308 9.6061 0.308951 9.45488 0.337986 9.32301C0.7481 7.47326 2.30024 6.22356 4.14515 6.34212C5.64528 6.43769 6.77037 7.23251 7.52285 8.49794C8.51245 10.1626 8.63343 11.8914 7.56277 13.5693C6.51148 15.217 4.34598 15.6659 2.66197 14.6605C1.34089 13.873 0.584781 12.7031 0.282336 11.2163C0.271448 11.1607 0.295644 11.0881 0.213379 11.0651C0.214589 10.6138 0.214589 10.1638 0.214589 9.71256Z" fill="url(#paint0_linear_314_274)"/>
<path d="M31.6953 15.1856C31.5889 15.3078 31.607 15.4675 31.5731 15.609C31.1219 17.5471 29.4911 19.0738 27.5615 19.3569C25.4613 19.6642 23.5584 18.1265 23.3962 15.9913C23.2208 13.6867 24.7355 11.5248 26.9542 10.9139C29.1548 10.3065 31.1848 11.5623 31.63 13.8064C31.6409 13.8609 31.6094 13.9347 31.6941 13.9564C31.6953 14.3653 31.6953 14.7755 31.6953 15.1856Z" fill="url(#paint1_linear_314_274)"/>
<path d="M4.18265 22.9427C4.17902 21.9434 4.45122 21.0566 4.97143 20.2436C6.09168 18.4955 7.18895 16.7329 8.33824 15.0041C9.96781 12.5507 12.2869 11.3227 15.2267 11.4558C17.6547 11.5659 19.6472 12.6559 21.0361 14.6557C22.3414 16.5357 23.5669 18.4762 24.7525 20.4348C26.4595 23.2548 24.8989 26.8696 21.6918 27.6221C20.7433 27.8447 19.7972 27.8072 18.8899 27.4333C17.4442 26.8393 15.9586 26.4837 14.3823 26.5587C13.1616 26.6167 12.0063 26.9252 10.8788 27.3825C8.08539 28.5173 5.01861 26.9373 4.30605 24.006C4.21774 23.6467 4.19112 23.2802 4.18265 22.9427Z" fill="url(#paint2_linear_314_274)"/>
<path d="M7.86633 5.33439C7.90626 3.76168 8.50389 2.24099 9.929 1.13525C11.7461 -0.272926 14.1584 0.00895215 15.7456 1.77765C17.5833 3.82459 17.5542 7.30391 15.6827 9.31335C13.6829 11.4607 10.4928 11.2018 8.85351 8.7629C8.19539 7.78419 7.87964 6.70265 7.86633 5.33439Z" fill="url(#paint3_linear_314_274)"/>
<path d="M26.3082 7.15991C26.2235 8.96853 25.5375 10.4771 24.0072 11.5079C21.6784 13.0745 18.9092 12.1333 17.9631 9.48511C17.0873 7.03168 18.3696 4.05442 20.7323 3.05877C22.8688 2.1587 25.1794 3.16765 25.9803 5.35614C26.0783 5.6235 26.1545 5.90054 26.2174 6.17878C26.2888 6.49817 26.3045 6.82602 26.3082 7.15991Z" fill="url(#paint4_linear_314_274)"/>
<defs>
<linearGradient id="paint0_linear_314_274" x1="4.03458" y1="2.52283" x2="4.64672" y2="25.1716" gradientUnits="userSpaceOnUse">
<stop stop-color="#F5F9FD"/>
<stop offset="1" stop-color="#8FA4D4"/>
</linearGradient>
<linearGradient id="paint1_linear_314_274" x1="27.1903" y1="1.89698" x2="27.8025" y2="24.5458" gradientUnits="userSpaceOnUse">
<stop stop-color="#F5F9FD"/>
<stop offset="1" stop-color="#8FA4D4"/>
</linearGradient>
<linearGradient id="paint2_linear_314_274" x1="14.2601" y1="2.24644" x2="14.8722" y2="24.8952" gradientUnits="userSpaceOnUse">
<stop stop-color="#F5F9FD"/>
<stop offset="1" stop-color="#8FA4D4"/>
</linearGradient>
<linearGradient id="paint3_linear_314_274" x1="12.4017" y1="2.29671" x2="13.0138" y2="24.9455" gradientUnits="userSpaceOnUse">
<stop stop-color="#F5F9FD"/>
<stop offset="1" stop-color="#8FA4D4"/>
</linearGradient>
<linearGradient id="paint4_linear_314_274" x1="21.8496" y1="2.04134" x2="22.4617" y2="24.6901" gradientUnits="userSpaceOnUse">
<stop stop-color="#F5F9FD"/>
<stop offset="1" stop-color="#8FA4D4"/>
</linearGradient>
</defs>
</svg>
