<svg width="32" height="30" viewBox="0 0 32 30" fill="none" xmlns="http://www.w3.org/2000/svg">
<path d="M16.1804 29.9097C14.688 29.9097 13.1955 29.9165 11.7042 29.9074C9.55551 29.8939 7.727 28.4659 7.20538 26.4077C7.13636 26.135 7.08431 25.8578 7.07752 25.5761C7.0515 24.5023 7.00284 23.4251 7.09223 22.3558C7.2133 20.9018 7.96009 19.8167 9.22398 19.0948C9.40728 18.9907 9.37333 18.95 9.2319 18.8482C8.41608 18.2564 7.72587 17.5492 7.28798 16.627C6.65095 15.2885 6.72676 13.9748 7.45544 12.6951C7.5437 12.54 7.54257 12.4541 7.41471 12.316C6.63737 11.4821 6.15874 10.5248 6.26624 9.34808C6.34997 8.44062 6.77654 7.6927 7.37737 7.0319C7.63535 6.7479 7.92162 6.49557 8.22826 6.26588C8.30746 6.20704 8.3629 6.15612 8.32783 6.03618C7.95217 4.76211 8.33349 3.67927 9.1889 2.72881C10.0534 1.77043 11.1543 1.17413 12.3639 0.789419C15.0772 -0.0727842 17.7872 -0.0411023 20.4643 0.954617C21.6275 1.38798 22.6707 2.02502 23.4401 3.03092C24.1247 3.9248 24.3793 4.91713 24.0478 6.02034C24.0104 6.14481 24.0568 6.20025 24.1473 6.26814C24.6938 6.67774 25.1747 7.15184 25.5391 7.73343C26.4465 9.18175 26.2972 10.7692 25.134 12.1248C24.8206 12.4891 24.8262 12.4869 25.0344 12.9055C25.8808 14.6073 25.5923 16.1722 24.4517 17.6273C24.076 18.107 23.6234 18.5087 23.1278 18.8617C23.0079 18.9477 22.9808 18.9862 23.1324 19.0711C24.3567 19.7601 25.0672 20.8068 25.2754 22.194C25.2958 22.3286 25.3082 22.4667 25.3082 22.6025C25.3105 23.5473 25.3331 24.4921 25.3015 25.4346C25.2189 27.9352 23.1822 29.8961 20.6781 29.9052C19.18 29.9142 17.6797 29.9097 16.1804 29.9097ZM10.9857 9.36958C11.0231 10.9028 11.461 12.4348 12.2191 13.8797C12.7203 14.8336 13.3404 15.6958 14.2014 16.36C15.5015 17.3625 16.8435 17.3648 18.1526 16.3758C18.4706 16.1359 18.7637 15.8678 19.0148 15.5611C20.6623 13.5493 21.4487 11.2422 21.3831 8.64203C21.3797 8.50738 21.3389 8.46891 21.2066 8.48022C20.6668 8.52209 20.1644 8.38405 19.6858 8.1419C18.7591 7.67233 18.0384 6.96288 17.3957 6.16631C17.287 6.03279 17.2259 6.0045 17.08 6.1267C16.3196 6.766 15.4766 7.27631 14.5579 7.65649C13.4807 8.1023 12.3616 8.35463 11.195 8.37047C11.0197 8.37273 10.9721 8.42931 10.9812 8.5945C10.9959 8.81628 10.9857 9.04031 10.9857 9.36958ZM11.1113 19.2555C11.1634 19.3686 11.2392 19.4128 11.3048 19.4671C12.055 20.0804 12.9013 20.5205 13.8054 20.8554C15.6543 21.5423 17.5778 21.7595 19.5365 21.7686C19.7141 21.7697 19.808 21.7097 19.8861 21.557C20.2584 20.8373 20.3896 20.0623 20.4428 19.2645C20.4541 19.0903 20.3987 19.0269 20.2346 18.9896C19.6587 18.8606 19.085 18.7203 18.5113 18.5789C18.2533 18.5155 18.164 18.3978 18.1594 18.1364C18.156 17.9203 18.1504 17.7042 18.1594 17.4881C18.1662 17.3286 18.1334 17.298 17.984 17.3806C17.467 17.6669 16.9148 17.8423 16.3196 17.866C15.6701 17.8909 15.0625 17.7348 14.49 17.436C14.3508 17.3636 14.2988 17.3772 14.3067 17.5458C14.3157 17.7472 14.3112 17.9497 14.3067 18.1512C14.301 18.4023 14.2094 18.5155 13.9638 18.5777C13.7545 18.6309 13.544 18.6784 13.3336 18.7282C12.6004 18.9025 11.8649 19.0767 11.1113 19.2555ZM21.1545 21.712C22.0823 21.6486 23.0826 21.5321 24.0783 21.3782C24.2582 21.3499 24.2311 21.2809 24.1711 21.1677C23.9606 20.7683 23.6845 20.4232 23.3451 20.1245C22.7895 19.6357 22.1152 19.4264 21.4114 19.2747C21.2439 19.2385 21.1873 19.251 21.1783 19.4399C21.1443 20.0973 21.0278 20.74 20.7992 21.3601C20.6623 21.7357 20.6623 21.7357 21.1545 21.712ZM21.4544 12.7958C21.6173 12.7743 21.7304 12.7279 21.8345 12.6634C22.4184 12.299 22.7477 11.7627 22.8857 11.0985C22.9445 10.8122 22.9491 10.526 22.8416 10.2488C22.7522 10.0202 22.5994 9.85952 22.3471 9.81652C22.1944 9.7905 22.1129 9.82671 22.0982 10.0089C22.0574 10.4966 21.9647 10.9763 21.8515 11.4527C21.744 11.8985 21.5969 12.3318 21.4544 12.7958ZM10.8748 12.7901C10.911 12.7437 10.8952 12.7098 10.8839 12.677C10.5772 11.7978 10.3555 10.8994 10.2751 9.97041C10.2616 9.81879 10.1858 9.79842 10.0613 9.81087C9.75125 9.84029 9.50685 10.1141 9.46838 10.5079C9.39483 11.2456 9.66413 11.8611 10.171 12.3816C10.3657 12.5819 10.5942 12.7392 10.8748 12.7901Z" fill="url(#paint0_linear_314_223)"/>
<path d="M7.03004 18.8402C7.02438 18.9704 6.96554 19.0699 6.87276 19.1593C6.52426 19.4931 6.18254 19.8348 5.83178 20.1664C5.73221 20.2603 5.69826 20.3485 5.72428 20.4877C5.8148 20.9618 5.88722 21.4393 5.97208 21.9145C6.00377 22.0922 5.98227 22.2461 5.82386 22.3547C5.67563 22.4576 5.52514 22.4316 5.37578 22.3524C4.96165 22.134 4.54413 21.9224 4.13453 21.695C3.98517 21.6113 3.86749 21.6124 3.717 21.6961C3.31532 21.9213 2.90232 22.1272 2.49498 22.3445C2.33884 22.4282 2.18382 22.4633 2.02768 22.3535C1.87266 22.2438 1.8489 22.091 1.88171 21.9123C1.96771 21.437 2.03786 20.9595 2.12951 20.4866C2.15667 20.3451 2.12046 20.2614 2.02202 20.1675C1.67578 19.8416 1.33972 19.5056 0.996879 19.1763C0.869019 19.053 0.784157 18.9172 0.840732 18.7361C0.89957 18.5461 1.05119 18.4816 1.23676 18.4567C1.70746 18.3933 2.17703 18.3152 2.64887 18.2564C2.78917 18.2394 2.86385 18.1794 2.92156 18.0561C3.12184 17.6329 3.33456 17.2154 3.53596 16.7934C3.6163 16.6236 3.72606 16.5026 3.9252 16.5026C4.12434 16.5026 4.23297 16.6202 4.31444 16.7911C4.51245 17.2075 4.7263 17.616 4.91979 18.0346C4.98994 18.1862 5.08499 18.2417 5.24566 18.262C5.7175 18.3209 6.18707 18.3944 6.65777 18.4657C6.89312 18.4997 7.0289 18.6422 7.03004 18.8402Z" fill="url(#paint1_linear_314_223)"/>
<path d="M26.8346 21.1632C26.9183 20.6744 26.9987 20.1686 27.096 19.6662C27.1243 19.5191 27.0903 19.4263 26.984 19.3268C26.6524 19.0167 26.3311 18.6954 26.0041 18.3808C25.8649 18.2462 25.7427 18.1081 25.8117 17.892C25.8819 17.6725 26.0675 17.6397 26.2564 17.6125C26.6909 17.5492 27.1254 17.4813 27.5622 17.4281C27.7274 17.4077 27.8303 17.3523 27.9039 17.1905C28.0974 16.7639 28.318 16.3509 28.5194 15.9277C28.5997 15.7603 28.7163 15.6607 28.903 15.6664C29.0772 15.6709 29.1915 15.7625 29.2673 15.9243C29.4744 16.36 29.6984 16.7877 29.9021 17.2256C29.9632 17.3557 30.0458 17.4043 30.1782 17.4213C30.607 17.4768 31.0347 17.5413 31.4624 17.6035C31.5269 17.6125 31.5903 17.6227 31.6537 17.6374C32.0101 17.7144 32.1164 18.0391 31.8607 18.3005C31.5224 18.6445 31.1739 18.9794 30.822 19.3098C30.7055 19.4184 30.6613 19.518 30.6953 19.6843C30.7903 20.1505 30.8571 20.6212 30.942 21.0896C30.9725 21.2616 30.9442 21.4087 30.8028 21.5151C30.6602 21.6226 30.5052 21.6067 30.3547 21.5275C29.927 21.3035 29.4982 21.0817 29.075 20.8498C28.9483 20.7807 28.8487 20.774 28.7174 20.8464C28.2886 21.084 27.8552 21.3125 27.4185 21.5332C27.1141 21.6848 26.8199 21.5004 26.8346 21.1632Z" fill="url(#paint2_linear_314_223)"/>
<path d="M0.992302 15.1221C1.06811 14.6763 1.14392 14.2067 1.23105 13.7394C1.25707 13.5991 1.23897 13.4996 1.12695 13.3966C0.808999 13.1035 0.505757 12.7969 0.194595 12.4959C0.0656036 12.3714 -0.0430204 12.2379 0.016949 12.0422C0.0791815 11.8396 0.239855 11.7797 0.431078 11.7548C0.866705 11.6959 1.30007 11.6247 1.7357 11.5692C1.86469 11.5522 1.9371 11.4968 1.99255 11.3803C2.17925 10.9831 2.37839 10.5916 2.56961 10.1956C2.64882 10.0315 2.75065 9.89799 2.95319 9.89686C3.15573 9.89573 3.25983 10.0213 3.34016 10.1888C3.53026 10.5848 3.73393 10.974 3.91949 11.3723C3.97946 11.5002 4.0564 11.5522 4.19331 11.5703C4.62894 11.6258 5.06231 11.6982 5.49793 11.7582C5.68237 11.7842 5.83286 11.8464 5.89283 12.0399C5.95053 12.2244 5.86567 12.3579 5.73894 12.4801C5.4176 12.7901 5.10191 13.1058 4.77717 13.4124C4.68212 13.5029 4.65723 13.5901 4.68099 13.7179C4.76359 14.157 4.83148 14.5982 4.91069 15.0373C4.94237 15.2138 4.92087 15.3699 4.76585 15.4797C4.61197 15.5894 4.45695 15.56 4.29854 15.4763C3.90478 15.2658 3.50763 15.0633 3.115 14.8506C3.00185 14.7895 2.90906 14.7861 2.79478 14.8483C2.38405 15.0723 1.96992 15.2918 1.55239 15.5012C1.26499 15.6449 0.980987 15.4593 0.992302 15.1221Z" fill="url(#paint3_linear_314_223)"/>
<path d="M10.9858 9.36958C10.9858 9.04144 10.996 8.81741 10.9824 8.5945C10.9733 8.4293 11.0208 8.37273 11.1962 8.37046C12.3628 8.35462 13.4819 8.1023 14.559 7.65649C15.4778 7.2763 16.3208 6.766 17.0812 6.1267C17.2271 6.00337 17.2882 6.03165 17.3968 6.1663C18.0407 6.96288 18.7603 7.67233 19.687 8.1419C20.1656 8.38404 20.668 8.52208 21.2077 8.48022C21.3413 8.47004 21.3809 8.50851 21.3843 8.64202C21.451 11.2422 20.6635 13.5493 19.016 15.5611C18.7648 15.8678 18.4706 16.1359 18.1538 16.3758C16.8447 17.3648 15.5027 17.3636 14.2026 16.36C13.3416 15.6958 12.7204 14.8336 12.2202 13.8797C11.461 12.4348 11.0231 10.9028 10.9858 9.36958Z" fill="url(#paint4_linear_314_223)"/>
<path d="M11.1113 19.2554C11.8638 19.0767 12.5993 18.9024 13.3347 18.7282C13.5452 18.6784 13.7556 18.6308 13.965 18.5777C14.2105 18.5154 14.3022 18.4023 14.3078 18.1511C14.3123 17.9497 14.3169 17.7471 14.3078 17.5457C14.2999 17.3783 14.3508 17.3636 14.4911 17.436C15.0637 17.7347 15.6713 17.8908 16.3208 17.866C16.9159 17.8422 17.4681 17.6668 17.9852 17.3805C18.1345 17.2979 18.1674 17.3285 18.1606 17.488C18.1515 17.7041 18.156 17.9203 18.1606 18.1364C18.1651 18.3978 18.2545 18.5154 18.5125 18.5788C19.0861 18.7202 19.6598 18.8605 20.2357 18.9895C20.3987 19.0257 20.4553 19.0891 20.4439 19.2645C20.3908 20.0622 20.2595 20.8373 19.8872 21.5569C19.808 21.7097 19.7153 21.7696 19.5376 21.7685C17.5801 21.7583 15.6566 21.5411 13.8066 20.8554C12.9025 20.5193 12.0561 20.0792 11.3059 19.467C11.2403 19.4127 11.1634 19.3686 11.1113 19.2554Z" fill="url(#paint5_linear_314_223)"/>
<path d="M21.1545 21.712C20.6623 21.7357 20.6612 21.7357 20.8004 21.3601C21.0289 20.74 21.1455 20.0973 21.1794 19.4399C21.1896 19.251 21.2462 19.2385 21.4125 19.2747C22.1163 19.4263 22.7907 19.6357 23.3462 20.1245C23.6857 20.4232 23.9618 20.7683 24.1722 21.1677C24.2322 21.2809 24.2594 21.3499 24.0795 21.3782C23.0826 21.5321 22.0824 21.6486 21.1545 21.712Z" fill="url(#paint6_linear_314_223)"/>
<path d="M21.4543 12.7957C21.598 12.333 21.744 11.8985 21.8492 11.4538C21.9624 10.9774 22.0552 10.4977 22.0959 10.01C22.1106 9.82782 22.1921 9.79048 22.3448 9.81764C22.5983 9.86063 22.751 10.0213 22.8393 10.2499C22.9479 10.5271 22.9434 10.8134 22.8834 11.0996C22.7465 11.7627 22.4173 12.3001 21.8323 12.6645C21.7293 12.7279 21.6173 12.7742 21.4543 12.7957Z" fill="url(#paint7_linear_314_223)"/>
<path d="M10.8749 12.7901C10.5943 12.7381 10.3657 12.5808 10.1699 12.3805C9.66304 11.8612 9.39374 11.2445 9.46729 10.5068C9.50689 10.113 9.75016 9.83917 10.0602 9.80975C10.1858 9.79731 10.2616 9.8188 10.274 9.96929C10.3544 10.8983 10.5762 11.7978 10.8828 12.6758C10.8952 12.7109 10.9111 12.7449 10.8749 12.7901Z" fill="url(#paint8_linear_314_223)"/>
<defs>
<linearGradient id="paint0_linear_314_223" x1="21.3016" y1="27.846" x2="7.0842" y2="-3.45963" gradientUnits="userSpaceOnUse">
<stop offset="0.02" stop-color="#E84A4D"/>
<stop offset="0.5617" stop-color="#E84681"/>
<stop offset="0.9972" stop-color="#F19CC2"/>
</linearGradient>
<linearGradient id="paint1_linear_314_223" x1="3.89261" y1="17.9575" x2="4.0124" y2="21.112" gradientUnits="userSpaceOnUse">
<stop offset="0.0307" stop-color="#FFF3C4"/>
<stop offset="0.5084" stop-color="#FFDF3E"/>
</linearGradient>
<linearGradient id="paint2_linear_314_223" x1="28.8972" y1="15.4567" x2="28.8972" y2="20.3881" gradientUnits="userSpaceOnUse">
<stop offset="0.0307" stop-color="#FFF3C4"/>
<stop offset="0.5084" stop-color="#FFDF3E"/>
</linearGradient>
<linearGradient id="paint3_linear_314_223" x1="2.95672" y1="10.4255" x2="2.95672" y2="14.3006" gradientUnits="userSpaceOnUse">
<stop offset="0.0307" stop-color="#FFF3C4"/>
<stop offset="0.5084" stop-color="#FFDF3E"/>
</linearGradient>
<linearGradient id="paint4_linear_314_223" x1="16.1851" y1="23.6823" x2="16.1851" y2="43.5289" gradientUnits="userSpaceOnUse">
<stop stop-color="#F5F9FD"/>
<stop offset="1" stop-color="#8FA4D4"/>
</linearGradient>
<linearGradient id="paint5_linear_314_223" x1="15.7784" y1="7.28425" x2="15.7784" y2="27.1308" gradientUnits="userSpaceOnUse">
<stop stop-color="#F5F9FD"/>
<stop offset="1" stop-color="#8FA4D4"/>
</linearGradient>
<linearGradient id="paint6_linear_314_223" x1="22.4693" y1="7.2843" x2="22.4693" y2="27.1308" gradientUnits="userSpaceOnUse">
<stop stop-color="#F5F9FD"/>
<stop offset="1" stop-color="#8FA4D4"/>
</linearGradient>
<linearGradient id="paint7_linear_314_223" x1="22.1904" y1="7.28429" x2="22.1904" y2="27.1308" gradientUnits="userSpaceOnUse">
<stop stop-color="#F5F9FD"/>
<stop offset="1" stop-color="#8FA4D4"/>
</linearGradient>
<linearGradient id="paint8_linear_314_223" x1="10.1763" y1="7.28432" x2="10.1763" y2="27.1309" gradientUnits="userSpaceOnUse">
<stop stop-color="#F5F9FD"/>
<stop offset="1" stop-color="#8FA4D4"/>
</linearGradient>
</defs>
</svg>
