<?xml version="1.0" ?>
<!-- Uploaded to: SVG Repo, www.svgrepo.com, Generator: SVG Repo Mixer Tools -->
<svg width="800px" height="800px" viewBox="0 0 64 64" xmlns="http://www.w3.org/2000/svg">
<g id="flat">
<circle cx="57" cy="7" r="4" style="fill:#ebebe8"/>
<path d="M49,21H15A18,18,0,0,1,33,3H57V7l-5.18,3.237A6,6,0,0,0,49,15.325Z" style="fill:#dd4a43"/>
<polyline points="49 38.618 49 25 15 25 15 38.618" style="fill:#fec9a3"/>
<rect height="2" style="fill:#fec093" width="34" x="15" y="27"/>
<path d="M28.912,37H21a11.757,11.757,0,0,0-1.474.1c-.122.015-.243.036-.364.055-.392.061-.779.139-1.157.237-.087.022-.173.043-.259.066A12.082,12.082,0,0,0,15,38.618h0A11.993,11.993,0,0,0,21,61H55a6,6,0,0,0,6-6V52a3,3,0,0,1-6,0V49a11.987,11.987,0,0,0-6-10.382h0a12.082,12.082,0,0,0-2.746-1.16c-.086-.023-.172-.044-.259-.066-.378-.1-.765-.176-1.157-.237-.121-.019-.242-.04-.364-.055A11.757,11.757,0,0,0,43,37H35.088" style="fill:#ebebe8"/>
<path d="M58,55a3,3,0,0,1-3-3V49a11.9,11.9,0,0,0-3.1-8C42.278,54.994,21.7,55.678,10.552,54.891A11.991,11.991,0,0,0,21,61H55a6,6,0,0,0,6-6V52A3,3,0,0,1,58,55Z" style="fill:#e3e3e1"/>
<path d="M27,44H37a0,0,0,0,1,0,0v1a5,5,0,0,1-5,5h0a5,5,0,0,1-5-5V44A0,0,0,0,1,27,44Z" style="fill:#dd4a43"/>
<path d="M20.54,17.286l-1.916-.572a15.044,15.044,0,0,1,3.888-6.428l1.4,1.428A13.047,13.047,0,0,0,20.54,17.286Zm5.032-6.95L24.428,8.7A15.02,15.02,0,0,1,26.57,7.449l.86,1.806A13.2,13.2,0,0,0,25.572,10.336Z" style="fill:#e66b65"/>
<path d="M50,28H49V38h1a5,5,0,0,0,0-10Z" style="fill:#feb784"/>
<path d="M9,33a5,5,0,0,0,5,5h1V28H14A5,5,0,0,0,9,33Z" style="fill:#feb784"/>
<circle cx="23" cy="32" r="2" style="fill:#7a4321"/>
<circle cx="41" cy="32" r="2" style="fill:#7a4321"/>
<path d="M32,40h0a3.09,3.09,0,0,1-2.764-4.472L32,30l2.764,5.528A3.09,3.09,0,0,1,32,40Z" style="fill:#dd4a43"/>
<rect height="6" rx="3" ry="3" style="fill:#ebebe8" width="42" x="11" y="21"/>
<path d="M38.2,21H49V15.326a6,6,0,0,1,2.82-5.089L57,7V5.224C42.627,7.18,39.041,15.808,38.2,21Z" style="fill:#d13e37"/>
<circle cx="57" cy="7" r="4" style="fill:#ebebe8"/>
</g>
</svg>