<svg width="32" height="30" viewBox="0 0 32 30" fill="none" xmlns="http://www.w3.org/2000/svg">
<path d="M12.9054 0.814233C17.16 0.927066 20.6293 2.60703 23.245 6.00001C23.3932 6.19149 23.424 6.35447 23.3556 6.59951C23.0376 7.74038 23.1083 8.86985 23.5698 9.96286C23.6485 10.1486 23.6382 10.2786 23.5231 10.4324C21.9856 12.4931 20.7638 14.7383 19.6742 17.0577C19.5945 17.2286 19.4919 17.3221 19.3061 17.3814C17.2751 18.0265 15.9052 19.3656 15.3045 21.408C14.6594 23.602 13.3009 25.0426 11.0909 25.6387C9.48162 26.0718 7.9635 25.7823 6.5377 24.9458C3.1584 22.9638 1.03963 20.0518 0.257779 16.2234C-1.0871 9.63119 2.95552 3.10737 9.46567 1.28608C10.586 0.972656 11.7303 0.799416 12.9054 0.814233ZM13.0501 9.04993C13.0535 7.39048 11.7645 6.10031 10.0959 6.09347C8.46498 6.08663 7.14518 7.39048 7.13606 9.01916C7.12694 10.6421 8.45815 11.9779 10.1039 11.9961C11.6984 12.0144 13.0467 10.6661 13.0501 9.04993ZM11.369 17.0383C11.3679 15.4017 10.064 14.0978 8.42623 14.0932C6.79642 14.0898 5.48231 15.4005 5.47547 17.0383C5.46749 18.6898 6.77476 19.9891 8.44333 19.9925C10.0731 19.9948 11.3702 18.6852 11.369 17.0383ZM21.0248 10.4427C21.0305 8.80033 19.7392 7.49648 18.0969 7.48508C16.4636 7.47368 15.1484 8.77298 15.1358 10.4119C15.1233 12.0691 16.4226 13.3752 18.0843 13.3775C19.7346 13.3798 21.0191 12.0976 21.0248 10.4427Z" fill="url(#paint0_linear_314_235)"/>
<path d="M25.0743 9.9572C24.2559 8.65677 24.3277 6.8446 25.2281 5.81998C25.7798 5.19199 26.5046 4.80106 27.2466 4.44774C28.0045 4.08645 28.7921 3.79468 29.5979 3.55533C30.1518 3.39121 30.7456 3.60662 30.9576 4.12862C31.4853 5.42905 31.8807 6.76368 31.9902 8.17922C32.1349 10.0518 30.6122 11.3101 29.3448 11.6611C29.2662 11.6828 29.1841 11.7238 29.1066 11.7169C29.1078 11.7169 26.2026 12.0121 25.0743 9.9572Z" fill="url(#paint1_linear_314_235)"/>
<path d="M18.9414 29.1412C17.6934 29.1389 16.8249 27.9752 17.1839 26.7728C18.1299 23.6021 19.4395 20.5772 20.8915 17.6105C21.2653 16.8457 22.3515 14.719 22.7242 13.9542C22.8165 13.7651 22.8906 13.7252 23.0877 13.822C24.3847 14.4603 25.6852 15.0906 26.9902 15.7129C27.1794 15.8029 27.2181 15.8747 27.1258 16.0776C25.4208 19.825 22.87 24.8603 20.5222 28.2556C20.1335 28.8152 19.6298 29.1378 18.9414 29.1412Z" fill="url(#paint2_linear_314_235)"/>
<path d="M25.0481 10.5669C24.2948 11.6645 23.5551 12.7723 22.8029 13.887C22.9123 13.9485 23 14.0055 23.0935 14.0511C24.3221 14.646 25.5564 15.2273 26.7771 15.8405C27.0655 15.9852 27.1224 15.9123 27.2045 15.641C27.5191 14.6039 27.8815 13.5815 28.1812 12.5409C28.3249 12.0417 28.5015 11.6634 29.1079 11.7169C29.1079 11.7169 26.4477 11.473 25.0345 9.89221C25.1724 10.2683 25.0949 10.4666 25.0481 10.5669Z" fill="url(#paint3_linear_314_235)"/>
<defs>
<linearGradient id="paint0_linear_314_235" x1="14.422" y1="2.69036" x2="7.95266" y2="23.2305" gradientUnits="userSpaceOnUse">
<stop stop-color="#F5A460"/>
<stop offset="0.9777" stop-color="#ED7227"/>
</linearGradient>
<linearGradient id="paint1_linear_314_235" x1="27.3722" y1="10.3926" x2="30.1482" y2="3.2132" gradientUnits="userSpaceOnUse">
<stop stop-color="#E6215D"/>
<stop offset="0.5452" stop-color="#EB5F62"/>
<stop offset="0.9693" stop-color="#F29DA5"/>
</linearGradient>
<linearGradient id="paint2_linear_314_235" x1="22.0796" y1="26.2744" x2="22.1859" y2="17.6653" gradientUnits="userSpaceOnUse">
<stop offset="0.00558659" stop-color="#E66C1C"/>
<stop offset="0.9665" stop-color="#FDCE6B"/>
</linearGradient>
<linearGradient id="paint3_linear_314_235" x1="23.4292" y1="11.2646" x2="25.911" y2="12.7753" gradientUnits="userSpaceOnUse">
<stop stop-color="#F5F9FD"/>
<stop offset="1" stop-color="#8FA4D4"/>
</linearGradient>
</defs>
</svg>
