<svg width="32" height="32" viewBox="0 0 32 32" fill="none" xmlns="http://www.w3.org/2000/svg">
<path d="M9.14275 24.4137C8.45732 24.4137 7.77335 24.4006 7.08792 24.4195C6.7699 24.4282 6.64065 24.3455 6.57821 23.9984C6.15708 21.6372 5.69384 19.2832 5.2698 16.9234C5.20155 16.5415 5.02003 16.3876 4.67005 16.2583C1.73666 15.1837 0.00131562 12.2285 0.516837 9.23414C1.03381 6.23541 3.58092 4.00632 6.64211 3.90467C7.62232 3.87272 8.5764 4.0586 9.45787 4.50296C9.81365 4.68303 9.97194 4.69755 10.1694 4.26335C11.3021 1.7874 13.2509 0.438327 15.9825 0.426709C18.7474 0.415092 20.705 1.78159 21.8493 4.28223C22.025 4.66561 22.1542 4.68303 22.51 4.52329C26.335 2.80682 30.5071 4.90667 31.4278 8.99744C32.1031 11.9962 30.391 15.1227 27.443 16.2089C26.9929 16.3745 26.8041 16.5894 26.7199 17.0744C26.3162 19.3936 25.85 21.7025 25.4274 24.0187C25.3722 24.3222 25.2706 24.4224 24.9671 24.4195C23.5527 24.4065 22.1397 24.4036 20.7253 24.421C20.3927 24.4253 20.323 24.3353 20.355 24.01C20.5321 22.1875 20.6861 20.3636 20.8473 18.5411C20.8763 18.2115 20.8894 17.8804 20.9257 17.5522C20.9794 17.057 20.795 16.6911 20.2882 16.6548C19.8264 16.6228 19.5853 16.9278 19.5432 17.3997C19.4343 18.6297 19.308 19.8582 19.1918 21.0882C19.0989 22.0757 18.9987 23.0646 18.9333 24.0536C18.9144 24.3455 18.8244 24.421 18.5441 24.4181C16.8436 24.4065 15.1417 24.405 13.4412 24.4195C13.1362 24.4224 13.0956 24.2975 13.0738 24.0332C12.9082 22.0554 12.7267 20.079 12.5466 18.1026C12.522 17.8397 12.4784 17.5769 12.4493 17.314C12.4014 16.861 12.1212 16.617 11.6986 16.6562C11.276 16.6954 11.0393 16.9844 11.077 17.4389C11.1918 18.7793 11.3079 20.1196 11.4227 21.46C11.4953 22.295 11.5417 23.1329 11.6477 23.9635C11.7015 24.3803 11.5403 24.4311 11.1903 24.4195C10.5122 24.3977 9.82672 24.4137 9.14275 24.4137Z" fill="url(#paint0_linear_314_244)"/>
<path d="M16.0145 25.8355C18.884 25.8355 21.7535 25.8471 24.6215 25.8238C25.0862 25.8195 25.214 25.9386 25.2024 26.4047C25.169 27.7712 25.1966 29.1392 25.1893 30.5071C25.1849 31.3189 25.0325 31.4713 24.2076 31.4713C18.7344 31.4743 13.2611 31.4757 7.7879 31.4713C6.97469 31.4713 6.82657 31.316 6.82221 30.4897C6.8164 29.1217 6.84399 27.7538 6.80769 26.3873C6.79462 25.8979 6.96888 25.8224 7.40743 25.8253C10.2769 25.8442 13.145 25.8355 16.0145 25.8355Z" fill="url(#paint1_linear_314_244)"/>
<defs>
<linearGradient id="paint0_linear_314_244" x1="16.0014" y1="4.94911" x2="16.0014" y2="28.6999" gradientUnits="userSpaceOnUse">
<stop stop-color="#F5F9FD"/>
<stop offset="1" stop-color="#8FA4D4"/>
</linearGradient>
<linearGradient id="paint1_linear_314_244" x1="16.0058" y1="4.94918" x2="16.0058" y2="28.6999" gradientUnits="userSpaceOnUse">
<stop stop-color="#F5F9FD"/>
<stop offset="1" stop-color="#8FA4D4"/>
</linearGradient>
</defs>
</svg>
