<svg width="32" height="26" viewBox="0 0 32 26" fill="none" xmlns="http://www.w3.org/2000/svg">
<path d="M10.2424 10.8316C9.71023 13.6366 9.17919 16.4427 8.64475 19.2477C8.58234 19.5745 8.46774 19.8774 8.10236 19.9705C7.73245 20.0647 7.50211 19.8434 7.29105 19.5824C6.7169 18.8732 6.14047 18.1663 5.55837 17.4617C5.02166 16.8115 4.64494 16.7366 3.8915 17.1383C3.13125 17.5434 2.37781 17.9632 1.62097 18.3762C1.30099 18.551 0.995752 18.8006 0.604282 18.5226C0.21735 18.248 0.316069 17.8577 0.381881 17.5093C0.784699 15.3818 1.21134 13.2576 1.62664 11.1323C1.75373 10.4799 1.87401 9.82743 1.99769 9.17384C2.25186 9.11484 2.47426 9.22944 2.70915 9.29412C5.18619 9.98061 7.68252 10.5638 10.2424 10.8316Z" fill="url(#paint0_linear_314_260)"/>
<path d="M29.9691 9.20555C30.4934 11.8857 31.0165 14.567 31.5396 17.2471C31.5725 17.4162 31.619 17.5842 31.6326 17.7544C31.6893 18.5237 31.2638 18.8289 30.5864 18.4806C29.7547 18.0528 28.9422 17.5853 28.1162 17.1473C27.3219 16.7263 26.9713 16.8069 26.4016 17.507C25.857 18.1765 25.3146 18.8482 24.7677 19.5154C24.5487 19.7832 24.3342 20.0725 23.9178 19.9852C23.4526 19.8876 23.4106 19.4893 23.3402 19.133C22.8274 16.5504 22.3247 13.9667 21.8152 11.383C21.7868 11.2378 21.738 11.0971 21.6995 10.9553C21.7936 10.8089 21.9468 10.8236 22.0909 10.8043C23.9813 10.5468 25.8468 10.1666 27.702 9.72638C28.4566 9.54709 29.1669 9.17037 29.9691 9.20555Z" fill="url(#paint1_linear_314_260)"/>
<path d="M20.1721 10.9848C20.1869 13.8419 20.2005 16.7002 20.2187 19.5574C20.2209 19.857 20.1188 20.0975 19.8544 20.2314C19.5628 20.3789 19.2916 20.3154 19.0386 20.1009C18.3044 19.4825 17.5533 18.8823 16.8225 18.2593C16.262 17.7816 15.7321 17.7805 15.1715 18.2582C14.4408 18.8823 13.6919 19.4848 12.9555 20.1021C12.7036 20.3131 12.4301 20.3812 12.1373 20.2326C11.8718 20.0975 11.7708 19.8547 11.7731 19.5574C11.7901 16.6991 11.8037 13.8419 11.8185 10.9836C14.603 11.3014 17.3876 11.3025 20.1721 10.9848Z" fill="url(#paint2_linear_314_260)"/>
<path d="M20.1722 10.9848C17.3876 11.3025 14.6031 11.3013 11.8174 10.9848C11.2943 10.9121 10.6146 10.8758 10.2424 10.8316C7.68257 10.5627 5.28609 10.0486 2.80678 9.3769C2.39148 9.26457 2.31318 9.22826 1.99887 9.17266C1.28288 8.88217 1.28288 8.88217 0.920908 8.75168C0.463625 8.58488 0.269592 8.28305 0.405756 7.84279C0.538515 7.41274 0.908426 7.32424 1.31011 7.44338C2.88393 7.91087 4.44755 8.42376 6.06222 8.74034C8.00823 9.12273 9.9565 9.46427 11.9366 9.66058C13.2097 9.78653 14.4919 9.83078 15.7548 9.86028C17.1596 9.89319 18.5927 9.77518 20.0133 9.6549C22.1216 9.47676 24.1936 9.11819 26.2485 8.66204C27.7077 8.33865 29.1374 7.88478 30.5774 7.47515C31.0358 7.34466 31.4454 7.35601 31.5918 7.8791C31.7325 8.38291 31.4068 8.56559 30.962 8.78346C30.5308 8.99451 30.6227 8.89012 29.9703 9.20443C29.1 9.40981 28.4566 9.54597 27.7032 9.72525C25.8479 10.1655 23.9814 10.5456 22.0921 10.8032C21.948 10.8225 21.6167 10.8747 21.207 10.9121C20.6385 10.9848 20.5455 10.9848 20.1722 10.9848Z" fill="url(#paint3_linear_314_260)"/>
<path d="M15.883 21.391C15.883 21.391 16.1508 20.9723 16.3415 21.3002C16.3415 21.3002 16.9576 22.1558 17.5034 22.7254C17.5034 22.7254 17.8722 22.8729 17.4364 23.3359L16.2745 24.6487C16.2745 24.6487 16.1179 24.8632 15.8728 24.5239L14.7222 23.1884C14.7222 23.1884 14.4318 22.9955 14.7222 22.7583L15.883 21.391Z" fill="url(#paint4_linear_314_260)"/>
<path d="M27.3877 21.391C27.3877 21.391 27.6555 20.9723 27.8461 21.3002C27.8461 21.3002 28.4623 22.1558 29.0081 22.7254C29.0081 22.7254 29.3768 22.8729 28.9411 23.3359L27.7792 24.6487C27.7792 24.6487 27.6226 24.8632 27.3775 24.5239L26.2258 23.1895C26.2258 23.1895 25.9353 22.9966 26.2258 22.7595L27.3877 21.391Z" fill="url(#paint5_linear_314_260)"/>
<path d="M3.77806 22.048C3.77806 22.048 4.04585 21.6293 4.23648 21.9572C4.23648 21.9572 4.85262 22.8128 5.39841 23.3824C5.39841 23.3824 5.76718 23.5299 5.33146 23.9929L4.16953 25.3057C4.16953 25.3057 4.01294 25.5202 3.76785 25.1809L2.61726 23.8454C2.61726 23.8454 2.32678 23.6525 2.61726 23.4153L3.77806 22.048Z" fill="url(#paint6_linear_314_260)"/>
<path d="M15.7582 0.842798C15.7582 0.842798 16.0259 0.424095 16.2166 0.752022C16.2166 0.752022 16.8327 1.60758 17.3785 2.1772C17.3785 2.1772 17.7473 2.32471 17.3116 2.78767L16.1496 4.10051C16.1496 4.10051 15.993 4.31497 15.7479 3.9757L14.5974 2.64016C14.5974 2.64016 14.3069 2.44726 14.5974 2.21011L15.7582 0.842798Z" fill="url(#paint7_linear_314_260)"/>
<path d="M25.3419 1.54971C25.3419 1.54971 25.6097 1.131 25.8003 1.45893C25.8003 1.45893 26.4165 2.31449 26.9622 2.88411C26.9622 2.88411 27.331 3.03162 26.8953 3.49458L25.7334 4.80742C25.7334 4.80742 25.5768 5.02188 25.3317 4.68261L24.1811 3.34707C24.1811 3.34707 23.8906 3.15417 24.1811 2.91702L25.3419 1.54971Z" fill="url(#paint8_linear_314_260)"/>
<path d="M6.15187 2.53469C6.15187 2.53469 6.41966 2.11599 6.61029 2.44392C6.61029 2.44392 7.22643 3.29948 7.77222 3.8691C7.77222 3.8691 8.141 4.01661 7.70527 4.47956L6.54334 5.79354C6.54334 5.79354 6.38676 6.008 6.14166 5.66873L4.98994 4.33432C4.98994 4.33432 4.69946 4.14142 4.98994 3.90427L6.15187 2.53469Z" fill="url(#paint9_linear_314_260)"/>
<defs>
<linearGradient id="paint0_linear_314_260" x1="4.54761" y1="19.0986" x2="5.66434" y2="11.877" gradientUnits="userSpaceOnUse">
<stop offset="0.00857102" stop-color="#F18F92"/>
<stop offset="1" stop-color="#E9514C"/>
</linearGradient>
<linearGradient id="paint1_linear_314_260" x1="26.971" y1="16.5259" x2="26.3258" y2="11.9101" gradientUnits="userSpaceOnUse">
<stop offset="0.00298443" stop-color="#75A0D5"/>
<stop offset="1" stop-color="#4871B5"/>
</linearGradient>
<linearGradient id="paint2_linear_314_260" x1="15.996" y1="18.4415" x2="15.996" y2="13.0233" gradientUnits="userSpaceOnUse">
<stop offset="0.00298443" stop-color="#FDF07F"/>
<stop offset="1" stop-color="#F9B93A"/>
</linearGradient>
<linearGradient id="paint3_linear_314_260" x1="15.9134" y1="9.34686" x2="15.8142" y2="10.8855" gradientUnits="userSpaceOnUse">
<stop stop-color="#F5F9FD"/>
<stop offset="1" stop-color="#8FA4D4"/>
</linearGradient>
<linearGradient id="paint4_linear_314_260" x1="16.1848" y1="24.436" x2="16.0856" y2="22.1529" gradientUnits="userSpaceOnUse">
<stop offset="0.00857102" stop-color="#F18F92"/>
<stop offset="1" stop-color="#E9514C"/>
</linearGradient>
<linearGradient id="paint5_linear_314_260" x1="27.6833" y1="23.8968" x2="27.5841" y2="22.3086" gradientUnits="userSpaceOnUse">
<stop offset="0.00298443" stop-color="#75A0D5"/>
<stop offset="1" stop-color="#4871B5"/>
</linearGradient>
<linearGradient id="paint6_linear_314_260" x1="4.04088" y1="24.7417" x2="3.99124" y2="22.5579" gradientUnits="userSpaceOnUse">
<stop offset="0.00298443" stop-color="#FDF07F"/>
<stop offset="1" stop-color="#F9B93A"/>
</linearGradient>
<linearGradient id="paint7_linear_314_260" x1="16.0602" y1="3.88729" x2="15.9609" y2="1.60419" gradientUnits="userSpaceOnUse">
<stop offset="0.00857102" stop-color="#F18F92"/>
<stop offset="1" stop-color="#E9514C"/>
</linearGradient>
<linearGradient id="paint8_linear_314_260" x1="25.6376" y1="4.0554" x2="25.5384" y2="2.46716" gradientUnits="userSpaceOnUse">
<stop offset="0.00298443" stop-color="#75A0D5"/>
<stop offset="1" stop-color="#4871B5"/>
</linearGradient>
<linearGradient id="paint9_linear_314_260" x1="6.41496" y1="5.22888" x2="6.36533" y2="3.04506" gradientUnits="userSpaceOnUse">
<stop offset="0.00298443" stop-color="#FDF07F"/>
<stop offset="1" stop-color="#F9B93A"/>
</linearGradient>
</defs>
</svg>
