<svg width="32" height="32" viewBox="0 0 32 32" fill="none" xmlns="http://www.w3.org/2000/svg">
<path d="M5.86019 17.817C6.38083 17.3028 6.88865 16.8129 7.38236 16.3076C7.51829 16.1691 7.59139 16.2025 7.70552 16.3217C8.00688 16.6372 8.31977 16.9386 8.62626 17.2489C8.80707 17.4323 9.00969 17.5092 9.20333 17.2976C9.37645 17.1091 9.31361 16.9091 9.14177 16.7385C8.83272 16.432 8.53393 16.114 8.21334 15.8191C8.05304 15.6729 8.09536 15.5921 8.22873 15.4638C8.66986 15.0394 9.10587 14.6085 9.52776 14.1648C9.67908 14.0058 9.76116 14.0084 9.91248 14.1648C10.528 14.7983 11.1577 15.4177 11.7809 16.0435C11.972 16.2358 12.1771 16.3243 12.381 16.0819C12.5529 15.8793 12.4605 15.6934 12.2926 15.5267C11.6655 14.9047 11.0487 14.2725 10.4139 13.6595C10.2536 13.5044 10.26 13.4249 10.4164 13.2761C10.8601 12.8542 11.2923 12.4208 11.7155 11.9784C11.8565 11.8309 11.9386 11.8322 12.0745 11.9784C12.3631 12.2887 12.6708 12.5811 12.9684 12.8824C13.1453 13.062 13.3479 13.153 13.5518 12.9542C13.7557 12.7555 13.6749 12.5503 13.4941 12.3708C13.1941 12.072 12.9042 11.7604 12.5901 11.477C12.4169 11.3205 12.4503 11.2359 12.6003 11.0922C13.0427 10.6691 13.4762 10.2369 13.8994 9.79321C14.0417 9.64317 14.1199 9.65727 14.2571 9.79705C14.8829 10.437 15.5164 11.0679 16.1538 11.6975C16.3936 11.9348 16.659 11.9053 16.7924 11.6488C16.9065 11.4282 16.768 11.2923 16.6347 11.1576C16.0204 10.5395 15.4087 9.91888 14.7829 9.31232C14.6136 9.14817 14.6226 9.06226 14.788 8.90452C15.3241 8.39158 15.8473 7.86581 16.3615 7.33106C16.5064 7.17974 16.5808 7.20026 16.7167 7.33747C19.361 9.98941 22.0078 12.6375 24.6623 15.2779C24.8431 15.4587 24.7867 15.5395 24.6405 15.6831C22.7131 17.6028 20.7908 19.5277 18.8685 21.4499C16.8283 23.4902 14.7893 25.5291 12.7491 27.5694C12.0669 28.2516 11.3782 28.2491 10.6947 27.5656C8.61344 25.4843 6.53087 23.403 4.44959 21.3217C3.75198 20.6241 3.75454 19.9444 4.45472 19.2443C4.70478 18.9942 4.96253 18.7531 5.19977 18.4915C5.32929 18.3492 5.40239 18.3761 5.52421 18.4992C6.13462 19.1212 6.75528 19.7328 7.36826 20.3522C7.55933 20.5459 7.77477 20.6933 8.00175 20.4574C8.22616 20.224 8.06971 20.0137 7.87864 19.8239C7.2054 19.1648 6.54241 18.4979 5.86019 17.817Z" fill="url(#paint0_linear_314_281)"/>
<path d="M16.8541 3.08767C17.3093 3.08639 17.6504 3.31209 17.9607 3.6237C20.1638 5.83194 22.3695 8.03505 24.5752 10.2407C25.8653 11.5308 27.1579 12.8183 28.4441 14.1109C29.0019 14.6713 29.0827 15.3753 28.6736 15.9627C28.2171 16.6179 27.3182 16.759 26.686 16.2717C26.6026 16.2076 26.527 16.1319 26.4526 16.0563C22.9491 12.5528 19.4457 9.0494 15.941 5.54725C15.5589 5.16639 15.3614 4.73167 15.4883 4.18153C15.6371 3.52239 16.1808 3.08382 16.8541 3.08767Z" fill="url(#paint1_linear_314_281)"/>
<path d="M31.4666 7.17847C31.4461 7.62088 31.1896 8.06715 30.6407 8.31208C30.0919 8.55701 29.5764 8.46212 29.1391 8.06202C28.7403 7.69654 28.3684 7.30157 27.9849 6.91815C26.6615 5.59474 25.333 4.27647 24.016 2.94665C23.2132 2.13619 23.5479 0.86152 24.6315 0.581963C25.1227 0.455009 25.5741 0.578116 25.9319 0.933332C27.6515 2.64273 29.3648 4.35854 31.0767 6.07691C31.3332 6.33467 31.4691 6.65782 31.4666 7.17847Z" fill="url(#paint2_linear_314_281)"/>
<path d="M27.7708 7.73894C27.7285 7.79152 27.6952 7.83769 27.6554 7.87872C26.9655 8.56992 26.2705 9.25727 25.5857 9.95488C25.4536 10.0895 25.3882 10.0395 25.283 9.93308C24.2123 8.85589 23.1402 7.77998 22.0592 6.71305C21.9271 6.58225 21.9579 6.51941 22.0682 6.41169C22.7465 5.74101 23.4223 5.06777 24.0904 4.38812C24.2123 4.26501 24.2828 4.23295 24.4239 4.37401C25.4831 5.44607 26.5513 6.50787 27.617 7.5748C27.667 7.62353 27.7119 7.67611 27.7708 7.73894Z" fill="url(#paint3_linear_314_281)"/>
<path d="M9.28546 27.2513C9.2534 27.2872 9.2175 27.3321 9.17646 27.3731C8.87767 27.6732 8.58144 27.9759 8.27624 28.2695C8.06208 28.4747 7.84023 28.4696 7.62736 28.2554C6.33858 26.9653 5.0498 25.6753 3.75846 24.3878C3.53276 24.1621 3.53019 23.939 3.75204 23.7145C4.04186 23.4222 4.34065 23.1375 4.62149 22.8374C4.75357 22.6951 4.83436 22.7246 4.95747 22.8477C6.3514 24.2493 7.75047 25.6445 9.14697 27.0436C9.20211 27.0987 9.27905 27.1423 9.28546 27.2513Z" fill="url(#paint4_linear_314_281)"/>
<path d="M0.533325 31.4921C0.667974 30.524 1.01678 29.7289 1.74132 29.0736C2.65565 28.2439 3.50457 27.3411 4.37017 26.4576C4.53432 26.2909 4.62921 26.2447 4.80233 26.4447C5.04854 26.7282 5.32554 26.9872 5.59868 27.2462C5.72307 27.3642 5.75128 27.436 5.60894 27.5758C4.55227 28.6171 3.50586 29.6686 2.4556 30.7163C2.17347 30.9984 1.82467 31.1613 1.44637 31.2639C1.15271 31.3447 0.857764 31.4126 0.533325 31.4921Z" fill="url(#paint5_linear_314_281)"/>
<path d="M24.6597 15.2791C24.8405 15.4599 24.7841 15.5407 24.6379 15.6843C22.7105 17.604 20.7882 19.5288 18.866 21.4511C16.8257 23.4913 14.7867 25.5303 12.7465 27.5706C12.0643 28.2528 11.3756 28.2502 10.6921 27.5667L4.97534 21.8512L24.6597 15.2791Z" fill="url(#paint6_linear_314_281)"/>
<defs>
<linearGradient id="paint0_linear_314_281" x1="18.9184" y1="23.2136" x2="9.78141" y2="12.9345" gradientUnits="userSpaceOnUse">
<stop stop-color="#81B3E1"/>
<stop offset="0.4814" stop-color="#84CEE8"/>
<stop offset="0.9525" stop-color="#DAEEF9"/>
</linearGradient>
<linearGradient id="paint1_linear_314_281" x1="14.3885" y1="2.10306" x2="25.3529" y2="12.9533" gradientUnits="userSpaceOnUse">
<stop stop-color="#F5F9FD"/>
<stop offset="1" stop-color="#8FA4D4"/>
</linearGradient>
<linearGradient id="paint2_linear_314_281" x1="22.9021" y1="-0.13011" x2="31.1254" y2="8.09322" gradientUnits="userSpaceOnUse">
<stop stop-color="#F5F9FD"/>
<stop offset="1" stop-color="#8FA4D4"/>
</linearGradient>
<linearGradient id="paint3_linear_314_281" x1="21.7199" y1="4.02176" x2="27.3163" y2="9.61819" gradientUnits="userSpaceOnUse">
<stop stop-color="#F5F9FD"/>
<stop offset="1" stop-color="#8FA4D4"/>
</linearGradient>
<linearGradient id="paint4_linear_314_281" x1="3.58677" y1="25.5809" x2="9.28509" y2="25.5809" gradientUnits="userSpaceOnUse">
<stop stop-color="#F5F9FD"/>
<stop offset="1" stop-color="#8FA4D4"/>
</linearGradient>
<linearGradient id="paint5_linear_314_281" x1="0.986065" y1="27.4512" x2="4.41245" y2="30.5349" gradientUnits="userSpaceOnUse">
<stop stop-color="#F5F9FD"/>
<stop offset="1" stop-color="#8FA4D4"/>
</linearGradient>
<linearGradient id="paint6_linear_314_281" x1="13.262" y1="16.8093" x2="17.2356" y2="21.2902" gradientUnits="userSpaceOnUse">
<stop offset="0.02" stop-color="#E95C6D"/>
<stop offset="0.9982" stop-color="#E31D2E"/>
</linearGradient>
</defs>
</svg>
