<svg width="22" height="29" viewBox="0 0 22 29" fill="none" xmlns="http://www.w3.org/2000/svg">
<path d="M11.1194 28.0627C8.78754 28.075 6.60607 28.0014 4.42971 27.8018C3.40241 27.7077 2.38126 27.5665 1.37135 27.3547C0.934444 27.2626 0.676596 26.9444 0.712408 26.4891C0.80245 25.3236 0.996859 24.1715 1.22094 23.0245C1.70082 20.5637 2.40377 18.1735 3.50269 15.9122C4.16777 14.5431 4.96178 13.258 5.99726 12.1314C6.14972 11.9657 6.28069 11.9166 6.50989 11.9729C7.93316 12.3218 9.38714 12.3617 10.8432 12.3647C12.4363 12.3678 14.0274 12.334 15.5837 11.9422C15.776 11.893 15.8313 12.023 15.9162 12.112C16.8821 13.1291 17.6229 14.3017 18.2573 15.5449C19.4166 17.8153 20.1492 20.2291 20.6629 22.7165C20.8992 23.8604 21.0639 25.0167 21.2195 26.1739C21.3116 26.8564 21.1305 27.2524 20.3897 27.3956C19.2304 27.6207 18.0619 27.7711 16.8872 27.8612C14.9186 28.0095 12.9469 28.0842 11.1194 28.0627Z" fill="url(#paint0_linear_314_208)"/>
<path d="M10.9218 12.3525C9.45969 12.3586 7.99855 12.3228 6.55993 12.0046C6.32459 11.9524 6.17827 11.846 6.08209 11.6076C5.52444 10.2324 4.71407 9.00147 3.9835 7.72451C3.46883 6.82613 3.32762 5.88786 3.84127 4.92604C3.91085 4.7961 3.99168 4.67024 4.08684 4.55974C5.12539 3.34008 5.67895 1.91271 5.77411 0.296043C5.78741 0.0750305 5.84061 -0.00068664 6.05651 0.0187542C6.34096 0.0443344 6.71648 -0.0712878 6.89042 0.0781001C7.07255 0.233627 6.95181 0.63677 6.94465 0.929406C6.88019 3.3851 8.48458 4.8094 9.93957 5.18287C12.1037 5.73847 14.3261 4.27119 14.7844 1.99252C14.898 1.42566 14.9011 0.853689 14.8857 0.280695C14.8796 0.0637752 14.9451 -0.0119419 15.1456 0.0218238C15.1999 0.0310327 15.2561 0.0228471 15.3114 0.0228471C16.0501 0.0218239 16.0348 0.0238703 16.1095 0.768763C16.2425 2.08767 16.6958 3.29403 17.5461 4.27938C18.5048 5.38955 18.5069 6.65219 17.7957 7.83911C17.0334 9.11095 16.2507 10.3715 15.6879 11.758C15.6071 11.9565 15.4373 11.9626 15.2827 11.9974C14.1746 12.2471 13.0511 12.3371 11.9195 12.3514C11.5869 12.3555 11.2544 12.3525 10.9218 12.3525Z" fill="url(#paint1_linear_314_208)"/>
<defs>
<linearGradient id="paint0_linear_314_208" x1="10.9754" y1="13.6237" x2="10.9754" y2="27.7781" gradientUnits="userSpaceOnUse">
<stop offset="0.02" stop-color="#EF8AB6"/>
<stop offset="1" stop-color="#E84675"/>
</linearGradient>
<linearGradient id="paint1_linear_314_208" x1="10.9108" y1="0.935771" x2="10.9108" y2="11.973" gradientUnits="userSpaceOnUse">
<stop stop-color="#FDF2F8"/>
<stop offset="0.1157" stop-color="#F8EFF7"/>
<stop offset="0.5224" stop-color="#EEE7F3"/>
<stop offset="0.9777" stop-color="#EAE4F2"/>
</linearGradient>
</defs>
</svg>
