<svg width="32" height="30" viewBox="0 0 32 30" fill="none" xmlns="http://www.w3.org/2000/svg">
<path fill-rule="evenodd" clip-rule="evenodd" d="M28.9998 7.4734C27.3467 7.4734 26.0056 8.81453 26.0056 10.4677C26.0056 11.0511 26.1717 11.5967 26.4634 12.0573C26.1825 12.3679 25.8678 12.7258 25.5167 13.1243C24.6888 14.0683 24.2741 14.541 23.8109 14.614C23.5529 14.6545 23.2936 14.614 23.0559 14.4938C22.6291 14.279 22.3441 13.6956 21.7742 12.5273L18.7705 6.37132C18.5881 5.99991 18.422 5.65956 18.2667 5.34892C18.9163 4.79923 19.3296 3.97808 19.3296 3.06103C19.3296 1.40521 17.9885 0.0667725 16.3354 0.0667725C14.6822 0.0667725 13.3411 1.40521 13.3411 3.06103C13.3411 3.97808 13.7544 4.79923 14.404 5.34892C14.2487 5.65956 14.0826 5.99856 13.9003 6.37132L10.8965 12.5273C10.3266 13.6956 10.0416 14.279 9.61484 14.4938C9.37714 14.614 9.11782 14.6558 8.85986 14.614C8.39661 14.541 7.98198 14.0683 7.15407 13.1243C6.35317 12.214 5.75081 11.5306 5.2727 11.0808C5.71974 10.5581 5.98851 9.8788 5.98851 9.13732C5.98851 7.4842 4.64737 6.14307 2.99425 6.14307C1.34113 6.14307 0 7.4842 0 9.13732C0 10.7634 1.29521 12.0884 2.91052 12.1316C2.89161 12.8568 2.9902 13.8873 3.12526 15.3176L3.4332 18.5887C3.93967 23.9762 4.19493 26.672 5.78187 28.2954C7.36881 29.9188 9.7499 29.9188 14.5107 29.9188H18.1641C22.9235 29.9188 25.3046 29.9188 26.8929 28.2954C28.4799 26.672 28.7365 23.9762 29.2416 18.5887L29.5495 15.3176C29.6198 14.5626 29.6819 13.9198 29.721 13.3741C31.0284 13.0527 31.9968 11.8709 31.9968 10.4663C31.9954 8.81453 30.6543 7.4734 28.9998 7.4734ZM19.4458 20.4269L19.2702 20.6295C19.0784 20.855 18.9825 20.9671 18.9393 21.1062C18.8961 21.2453 18.9096 21.3939 18.9393 21.6951L18.9663 21.9666C19.0663 23.02 19.1189 23.5494 18.8083 23.7818C18.5004 24.0168 18.0371 23.802 17.1093 23.3752L16.8702 23.2658C16.6055 23.1429 16.4731 23.0835 16.334 23.0835C16.1949 23.0835 16.0625 23.1429 15.7978 23.2658L15.5588 23.3752C14.6309 23.802 14.1677 24.0168 13.8597 23.7818C13.5491 23.5494 13.6018 23.02 13.7017 21.9666L13.7287 21.6951C13.7584 21.3939 13.772 21.2453 13.7287 21.1062C13.6855 20.9671 13.5896 20.855 13.3978 20.6295L13.2223 20.4269C12.547 19.6354 12.2093 19.2411 12.3282 18.8629C12.4443 18.4847 12.9413 18.3726 13.9313 18.1471L14.1893 18.0904C14.4702 18.0269 14.6107 17.9945 14.7228 17.908C14.8362 17.8243 14.9091 17.6933 15.0537 17.434L15.186 17.1963C15.6965 16.2792 15.9518 15.8227 16.3327 15.8227C16.7135 15.8227 16.9688 16.2792 17.4793 17.1963L17.6117 17.434C17.7548 17.6946 17.8278 17.8243 17.9426 17.908C18.0547 17.9945 18.1951 18.0269 18.476 18.0904L18.734 18.1471C19.724 18.3726 20.221 18.4847 20.3372 18.8629C20.4587 19.2411 20.1211 19.6354 19.4458 20.4269Z" fill="url(#paint0_linear_314_204)"/>
<path fill-rule="evenodd" clip-rule="evenodd" d="M15.4278 15.7969C15.4278 15.7969 16.1112 14.1452 17.0512 15.5849L18.0114 17.3042C18.0114 17.3042 18.1911 17.6837 18.5517 17.704L20.5316 18.1443C20.5316 18.1443 21.8106 18.4238 21.111 19.4841L19.6916 21.0832C19.6916 21.0832 19.4512 21.3033 19.4917 21.7625L19.6119 23.9613C19.6119 23.9613 19.8712 25.2808 18.5719 24.8216L16.6527 23.8816C16.6527 23.8816 16.1733 23.7019 15.8924 23.941C15.6128 24.1814 14.3135 24.7405 14.3135 24.7405C14.3135 24.7405 13.0534 25.2808 13.0737 23.9613C13.0939 22.6417 13.1939 21.4019 13.1939 21.4019L11.634 19.4422C11.634 19.4422 10.8938 18.6426 11.8136 18.3023L14.2325 17.5824C14.2311 17.5824 14.8119 17.4231 15.4278 15.7969Z" fill="url(#paint1_linear_314_204)"/>
<defs>
<linearGradient id="paint0_linear_314_204" x1="15.9964" y1="2.49879" x2="15.9964" y2="29.4718" gradientUnits="userSpaceOnUse">
<stop offset="0.00298442" stop-color="#FFDF3E"/>
<stop offset="1" stop-color="#DC5514"/>
</linearGradient>
<linearGradient id="paint1_linear_314_204" x1="16.3351" y1="15.8027" x2="16.3351" y2="24.7685" gradientUnits="userSpaceOnUse">
<stop stop-color="#EC6F84"/>
<stop offset="0.1035" stop-color="#EA6074"/>
<stop offset="0.3408" stop-color="#E74356"/>
<stop offset="0.5731" stop-color="#E52E40"/>
<stop offset="0.7957" stop-color="#E32132"/>
<stop offset="0.9982" stop-color="#E31D2E"/>
</linearGradient>
</defs>
</svg>
