<svg width="167" height="111" viewBox="0 0 167 111" fill="none" xmlns="http://www.w3.org/2000/svg">
<path d="M36.6194 68.5303C36.6194 68.5303 32.2244 97.1634 64.1652 104.432C64.1652 104.432 99.75 116.106 128.902 102.01C128.902 102.01 137.263 96.7234 125.472 91.2177L129.759 74.0386C129.759 74.0386 132.331 46.9477 86.0285 48.9301C86.0298 48.9274 50.5531 46.9464 36.6194 68.5303Z" fill="#FDDFBD" stroke="#111111" stroke-width="2.5649" stroke-miterlimit="10"/>
<path d="M47.0954 94.0695L53.8754 87.4724L60.5213 94.9604L75.7412 73.3765L93.5323 86.8116L95.2481 70.9527L125.694 83.5331L128.581 72.186L123.372 47.6072H59.8782L35.8695 70.2933L37.2143 80.589L41.1798 89.2889L42.6248 90.1597L47.0954 94.0695Z" fill="#F29488"/>
<path d="M34.7968 66.3365C34.7968 66.3365 42.9425 66.3085 37.7976 72.503C37.7976 72.503 26.53 82.3533 12.9309 85.8016C12.9309 85.8016 8.37055 86.6751 6.49979 84.3958C4.33872 81.762 0.940897 75.6197 2.31956 71.8409C2.31956 71.8409 2.86112 69.9521 5.26694 69.0332C9.80128 67.3037 19.5352 66.0289 34.7968 66.3365Z" fill="#2864AE" stroke="#111111" stroke-width="2.5649" stroke-miterlimit="10"/>
<mask id="mask0_2_42" style="mask-type:luminance" maskUnits="userSpaceOnUse" x="3" y="66" width="39" height="20">
<path d="M36.4176 66.1519C36.4176 66.1519 44.5632 66.1238 39.4183 72.3184C39.4183 72.3184 28.1508 82.1686 14.5517 85.617C14.5517 85.617 9.99134 86.4905 8.12058 84.2112C5.95951 81.5774 2.56169 75.435 3.94034 71.6563C3.94034 71.6563 4.48191 69.7675 6.88773 68.8486C11.4208 67.1177 21.156 65.8429 36.4176 66.1519Z" fill="white"/>
</mask>
<g mask="url(#mask0_2_42)">
<path d="M5.09381 79.674C5.09381 79.674 33.0445 72.111 38.8325 69.0278C44.6206 65.9446 35.1587 76.0811 21.0141 81.9332C14.2523 84.7288 7.94746 87.4375 5.09381 79.674Z" fill="#273270"/>
</g>
<path d="M36.6194 68.5303C36.6194 68.5303 32.2244 97.1634 64.1652 104.432C64.1652 104.432 99.75 116.106 128.902 102.01C128.902 102.01 137.263 96.7234 125.472 91.2177L129.759 74.0386C129.759 74.0386 132.331 46.9477 86.0285 48.9301C86.0298 48.9274 50.5531 46.9464 36.6194 68.5303Z" stroke="#111111" stroke-width="0.4807" stroke-miterlimit="10"/>
<path d="M35.173 71.0089L28.2602 46.3953C28.2602 46.3953 34.4818 22.0572 50.6078 9.39259C50.6078 9.39259 85.1732 -4.15353 124.08 5.42787C124.08 5.42787 133.405 6.41905 134.048 20.9563C134.048 20.9563 113.564 28.3186 101.573 35.5659C101.573 35.5659 102.001 22.8277 92.0339 16.5515C92.0339 16.5515 89.7023 47.3316 60.8442 82.8482L55.1981 76.7473C55.1981 76.7473 43.3903 90.2265 35.3514 94.5216L35.173 71.0089Z" fill="#E7383A" stroke="#111111" stroke-width="2.5649" stroke-miterlimit="10"/>
<path d="M87.1025 78.4421L91.6043 61.7031L130.19 73.3765L128.864 77.6315C136.795 81.3755 158.915 82.4068 158.915 82.4068C155.699 77.1205 143.695 60.3815 143.695 60.3815C149.055 58.1784 164.06 57.7383 164.06 57.7383C157.415 42.9817 134.263 21.1757 134.263 21.1757C125.046 22.9374 101.681 34.8315 101.681 34.8315C100.18 20.0749 92.0339 16.5502 92.0339 16.5502C89.2232 31.2989 82.2765 46.6026 75.6839 58.7081L87.1025 78.4421Z" fill="#5AA3DA" stroke="#111111" stroke-width="2.5649" stroke-miterlimit="10"/>
<path d="M35.173 71.0089L28.2602 47.3865C28.2602 47.3865 32.9221 23.5995 50.6078 9.39264C50.6078 9.39264 55.9128 11.0446 57.5206 16.3309C57.5206 16.3309 62.6655 34.5012 62.987 59.611C62.987 59.611 45.1335 62.7331 35.173 71.0089Z" fill="#AC1A4B" stroke="#111111" stroke-width="2.5649" stroke-miterlimit="10"/>
<mask id="mask1_2_42" style="mask-type:luminance" maskUnits="userSpaceOnUse" x="75" y="16" width="90" height="67">
<path d="M87.1025 78.4421L91.6043 61.7031L130.19 73.3765L129.236 77.6422C137.166 81.3862 158.914 82.4068 158.914 82.4068C155.698 77.1205 143.694 60.3815 143.694 60.3815C149.054 58.1784 164.059 57.7383 164.059 57.7383C157.414 42.9817 134.262 21.1757 134.262 21.1757C125.045 22.9374 101.679 34.8315 101.679 34.8315C100.178 20.0749 92.0326 16.5502 92.0326 16.5502C88.5033 29.8837 86.79 37.456 75.6827 58.7081L87.1025 78.4421Z" fill="white"/>
</mask>
<g mask="url(#mask1_2_42)">
<path d="M92.2461 18.3132C92.2461 18.3132 96.7479 29.2162 95.4616 47.0561C95.4616 47.0561 121.185 35.8227 130.51 34.8315C130.51 34.8315 143.694 44.0825 150.767 52.341H124.079L150.322 79.9469C150.322 79.9469 151.552 80.2278 155.749 80.4953C155.749 80.4953 158.17 81.0197 158.008 80.3375C154.982 76.0103 151.023 70.732 145.755 62.6728C145.755 62.6728 143.38 59.9588 150.874 59.829L161.592 58.3978C161.592 58.3978 169.094 61.1506 160.734 50.1928C160.734 50.1928 146.585 28.5527 136.94 22.936C136.94 22.936 132.042 15.2541 123.682 23.1835L108.966 30.0937C108.966 30.0937 103.504 34.9947 101.57 29.5426C101.57 29.5426 100.396 25.4187 98.4286 22.2672C94.8888 16.5944 89.8689 11.1971 92.2461 18.3132Z" fill="#8CD0E0"/>
</g>
<path d="M87.1025 78.4421L91.6043 61.7031L130.19 73.3765L129.236 77.6422C137.166 81.3862 158.914 82.4068 158.914 82.4068C155.698 77.1205 143.694 60.3815 143.694 60.3815C149.054 58.1784 164.059 57.7383 164.059 57.7383C157.414 42.9817 134.262 21.1757 134.262 21.1757C125.045 22.9374 101.679 34.8315 101.679 34.8315C100.178 20.0749 92.0326 16.5502 92.0326 16.5502C88.5033 29.8837 86.79 37.456 75.6827 58.7081L87.1025 78.4421Z" stroke="#111111" stroke-width="0.4807" stroke-miterlimit="10"/>
<path d="M35.8695 70.2933L35.4438 93.8729C35.4438 93.8729 35.8695 95.2306 46.7985 85.4726C51.5112 81.2645 53.5655 78.9945 54.4612 77.8067C54.8882 77.2409 55.7136 77.2168 56.1901 77.7398L60.8442 82.8469C60.8442 82.8469 68.0916 74.5523 74.429 63.5557L72.855 58.3991C72.855 58.3991 67.2779 58.4981 62.9883 59.611C56.233 61.3606 45.5878 63.3684 35.8695 70.2933Z" fill="#5AA3DA" stroke="#111111" stroke-width="2.5649" stroke-miterlimit="10"/>
<path d="M46.158 38.5755C46.158 38.5755 80.2417 59.4999 81.3132 79.983V88.7926C81.3132 88.7926 81.528 97.8229 87.1012 91.215L89.0305 77.5592L94.3902 84.1671C94.3902 84.1671 96.3196 87.2503 99.5351 84.1671L105.966 79.3209V90.9943C105.966 90.9943 106.395 96.9414 111.111 89.8934C111.111 89.8934 114.97 81.7446 114.112 69.8505C114.112 69.8505 130.19 52.4507 130.403 40.3372C130.403 40.3372 119.47 59.7193 99.9634 78.8808C99.9634 78.8808 97.6058 82.1847 93.7471 77.5592C93.7471 77.5592 69.0953 46.2856 46.158 38.5755Z" fill="#020203"/>
</svg>
