<svg width="32" height="32" viewBox="0 0 32 32" fill="none" xmlns="http://www.w3.org/2000/svg">
<path d="M15.6256 22.4183C15.736 22.3873 15.8763 22.3625 15.8242 22.1738C15.5114 21.0467 15.34 19.8922 15.129 18.744C15.0881 18.523 15.026 18.2884 14.6424 18.2636C13.9771 18.2202 13.3179 18.0613 12.6526 17.9669C10.9991 17.7298 9.35063 17.4567 7.69594 17.2308C6.50426 17.0682 5.31879 16.8621 4.12711 16.6933C3.38976 16.5891 2.6611 16.4128 2.07892 15.8889C1.92996 15.7549 1.78224 15.6196 1.63825 15.4805C0.76311 14.634 0.452777 13.5801 0.465191 12.3896C0.283957 11.6399 0.789178 11.7355 0.995238 11.7652C1.83189 11.8881 2.33215 11.8956 3.16881 12.016C4.358 12.1861 5.48513 12.3785 6.68053 12.5175C7.34712 12.5957 11.9425 13.4311 12.7829 13.4646C12.9679 13.2871 13.0001 13.3976 12.7407 12.4331C12.5135 11.5853 12.2578 10.1192 12.0716 9.25652C11.7427 7.73092 11.3554 5.93347 11.0264 4.40788C10.8489 3.58239 10.7049 2.63526 10.4827 1.81598C10.232 0.891191 11.3529 0.520033 12.3286 0.533688C14.1136 0.559756 15.664 1.79612 16.1047 3.51909C16.3319 4.40415 16.4585 5.31653 16.6571 6.21153C16.9488 7.53107 17.1735 8.8655 17.4404 10.1912C17.7259 11.615 18.0387 13.0339 18.3093 14.4602C18.359 14.7209 18.4794 14.7928 18.6904 14.8226C19.8424 14.9803 20.9968 15.1193 22.1425 15.3055C22.4119 15.349 22.4119 15.349 22.7806 15.2521C24.4477 16.9428 22.7024 18.3865 22.7024 18.3865C22.6353 18.2375 22.5795 18.1581 22.397 18.1258C21.9712 18.0501 21.5442 17.9955 21.1172 17.9359C20.0472 17.7845 18.9771 17.6268 17.9096 17.4543C17.6613 17.4145 17.6042 17.4617 17.6713 17.7025C18.0685 19.1387 18.215 20.6283 18.5948 22.0695C17.5149 23.0738 15.6256 22.4183 15.6256 22.4183Z" fill="url(#paint0_linear_314_248)"/>
<path d="M19.6599 22.0037C19.9777 22.1316 20.3029 22.2544 20.5947 22.4307C21.1346 22.7559 21.5641 23.2301 21.9167 23.7304C22.7223 24.8712 22.9941 26.1758 22.6913 27.5351C22.371 28.9713 21.5306 30.0897 20.2421 30.8122C19.2776 31.3546 18.1803 31.5309 17.1214 31.3162C15.242 30.9351 13.894 29.8415 13.2956 27.9509C13.2162 27.7014 13.2087 27.4345 13.1467 27.185C12.8525 25.9983 13.2212 24.9246 13.8058 23.9501C14.383 22.9868 15.2172 22.252 16.3481 21.9379C16.3468 21.9379 17.999 21.3992 19.6599 22.0037ZM22.0644 16.2626C22.3462 15.1615 23.0339 14.3335 23.9289 13.6868C24.8326 13.0351 25.8889 12.7508 26.985 12.8253C28.528 12.9296 29.8041 13.6334 30.6916 14.9107C31.6226 16.2526 31.8063 17.7534 31.2875 19.2889C30.848 20.5898 29.9468 21.537 28.7043 22.1365C27.7708 22.5871 26.7492 22.6517 25.7809 22.4655C24.1238 22.1477 22.9197 21.1484 22.222 19.5881C22.222 19.5893 21.6113 18.2921 22.0644 16.2626ZM24.1585 17.5734C24.1809 19.068 25.1627 20.2336 26.707 20.2063C28.1246 20.1814 29.1139 19.2616 29.1996 17.6044C29.2542 16.5443 28.1382 15.0734 26.599 15.2C25.2211 15.1156 24.1436 16.5419 24.1585 17.5734ZM17.9382 29.006C19.5259 28.9564 20.4109 27.9149 20.4457 26.4241C20.4742 25.1964 19.4154 23.9923 17.8675 23.9799C16.5789 23.97 15.3091 25.2361 15.427 26.5135C15.4009 27.7858 16.4461 29.0532 17.9382 29.006Z" fill="url(#paint1_linear_314_248)"/>
<defs>
<linearGradient id="paint0_linear_314_248" x1="0.426213" y1="11.5821" x2="24.6388" y2="11.5821" gradientUnits="userSpaceOnUse">
<stop stop-color="#F5F9FD"/>
<stop offset="1" stop-color="#8FA4D4"/>
</linearGradient>
<linearGradient id="paint1_linear_314_248" x1="13.0427" y1="22.1099" x2="31.5722" y2="22.1099" gradientUnits="userSpaceOnUse">
<stop offset="0.02" stop-color="#E84A4D"/>
<stop offset="0.9759" stop-color="#E84681"/>
</linearGradient>
</defs>
</svg>
