<svg width="32" height="30" viewBox="0 0 32 30" fill="none" xmlns="http://www.w3.org/2000/svg">
<path d="M4.51312 22.2443C4.51312 20.7297 4.50606 19.2163 4.51901 17.7018C4.52137 17.4262 4.44128 17.3473 4.1704 17.3567C3.66279 17.3732 3.14812 17.3991 2.6464 17.3378C1.54874 17.2036 0.778498 16.5994 0.452263 15.5371C0.121317 14.4618 0.418109 13.5243 1.26491 12.7847C4.66976 9.81323 8.07933 6.84885 11.4877 3.88212C12.3687 3.1154 13.2461 2.34752 14.1294 1.58316C15.3107 0.559701 16.6439 0.55499 17.8204 1.57963C22.1015 5.30365 26.3803 9.03121 30.659 12.7576C31.5482 13.5325 31.8462 14.6208 31.4611 15.6666C31.0748 16.7195 30.1231 17.3567 28.9289 17.3626C28.5709 17.3649 28.2105 17.3849 27.8548 17.3567C27.5274 17.3296 27.4285 17.4226 27.4296 17.7677C27.445 20.6567 27.4344 23.5469 27.4414 26.4359C27.4426 27.0695 27.3107 27.6513 26.922 28.1589C26.3956 28.8467 25.6889 29.1895 24.8268 29.1965C23.6138 29.206 22.3995 29.2213 21.1864 29.1942C19.62 29.1588 18.5695 28.0565 18.5601 26.4771C18.553 25.2982 18.573 24.1193 18.5506 22.9404C18.5247 21.5836 17.4436 20.4306 16.1445 20.3317C14.7171 20.2233 13.4439 21.3304 13.4039 22.7625C13.3686 24.0097 13.398 25.2593 13.3874 26.5066C13.3756 27.8186 12.5983 28.8291 11.3853 29.1259C11.125 29.1895 10.86 29.2001 10.5938 29.2001C9.49615 29.2012 8.39732 29.2036 7.29966 29.2001C5.5778 29.1942 4.5143 28.1271 4.51194 26.4065C4.51077 25.0179 4.51312 23.6305 4.51312 22.2443Z" fill="url(#paint0_linear_314_203)"/>
<defs>
<linearGradient id="paint0_linear_314_203" x1="11.4361" y1="-0.130374" x2="18.5508" y2="23.2057" gradientUnits="userSpaceOnUse">
<stop stop-color="#DAA2FA"/>
<stop offset="0.9944" stop-color="#A74DC8"/>
</linearGradient>
</defs>
</svg>
