<svg width="24" height="28" viewBox="0 0 24 28" fill="none" xmlns="http://www.w3.org/2000/svg">
<path d="M1.37251 27.3813C0.99993 27.1434 0.886281 26.7837 0.886281 26.3655C0.887453 23.1856 0.894483 20.007 0.87808 16.8272C0.875737 16.4277 1.01868 16.362 1.37251 16.3632C4.46094 16.3749 7.54937 16.3784 10.6378 16.3609C11.0397 16.3585 11.0982 16.5062 11.0959 16.8553C11.0842 20.0351 11.0912 23.2138 11.0865 26.3936C11.0854 27.0356 10.8171 27.4914 10.1422 27.6261C9.96645 27.4305 9.73212 27.5055 9.52123 27.5031C8.55346 27.4961 7.58334 27.5453 6.61909 27.4902C4.97294 27.3953 3.30454 27.7761 1.67596 27.27C1.59395 27.243 1.47444 27.3403 1.37251 27.3813Z" fill="url(#paint0_linear_314_212)"/>
<path d="M20.4656 9.46577C20.4082 9.56184 20.3507 9.65791 20.2922 9.75282C20.2617 9.79265 20.2324 9.83249 20.2019 9.87232L20.1996 9.87701C20.1539 9.92153 19.9044 10.2754 19.7321 10.4558C19.5329 10.6643 19.4252 10.7956 19.0819 10.7956C17.656 10.7956 16.2266 10.9327 14.8066 10.7042C14.7515 10.6948 14.6636 10.689 14.5699 10.5706C14.5699 10.5706 14.4129 10.3691 14.3086 10.1781C14.2348 10.0434 14.0778 9.79499 14.0345 9.74696C13.2659 8.539 12.4422 7.36268 11.7404 6.11723C10.2442 3.45997 12.2044 0.120808 15.2565 0.0774572C16.5359 0.0598827 17.8153 0.0493382 19.0936 0.0809724C20.6542 0.119636 21.8364 0.855423 22.5839 2.21218C23.3337 3.57244 23.2962 4.96083 22.4972 6.30001C22.0918 6.98073 21.6395 7.63216 21.2072 8.29765C21.1803 8.33514 21.1533 8.37146 21.1252 8.40895L21.1217 8.41715C21.0701 8.50034 21.0303 8.54135 20.8674 8.82254C20.8335 8.87409 20.7995 8.92681 20.7643 8.97836C20.7573 9.0018 20.7444 9.02289 20.7268 9.04046C20.6636 9.14591 20.6015 9.25253 20.5382 9.35797C20.5089 9.39078 20.4831 9.42593 20.4656 9.46577Z" fill="url(#paint1_linear_314_212)"/>
<path d="M19.7027 17.8653C19.705 20.5823 19.5621 22.9537 19.0126 25.2841C18.8603 25.9285 18.6623 26.56 18.3178 27.1294C17.643 28.2459 16.6799 28.2436 16.0261 27.1212C15.4626 26.1534 15.2306 25.0708 15.0654 23.9835C14.4866 20.1886 14.4807 16.3902 15.0244 12.5871C15.0841 12.1711 15.2482 12.0985 15.616 12.1055C16.6506 12.1266 17.6875 12.1289 18.722 12.1043C19.104 12.095 19.2446 12.1969 19.3067 12.5964C19.5984 14.4546 19.7156 16.3211 19.7027 17.8653Z" fill="url(#paint2_linear_314_212)"/>
<path d="M5.9689 8.43356C7.04915 8.43356 8.1294 8.44879 9.20847 8.42535C9.57754 8.41715 9.70525 8.51674 9.70173 8.8987C9.6865 10.8624 9.68299 12.826 9.70525 14.7885C9.70993 15.2185 9.5459 15.2923 9.16395 15.2888C7.04798 15.2724 4.93201 15.2689 2.81603 15.2911C2.40128 15.2958 2.29817 15.1787 2.30169 14.7768C2.3216 12.8354 2.32981 10.894 2.30051 8.95259C2.29349 8.48979 2.45283 8.41247 2.86056 8.42301C3.89628 8.44996 4.93318 8.43356 5.9689 8.43356Z" fill="url(#paint3_linear_314_212)"/>
<path d="M8.73979 1.05937C8.75737 1.3511 8.67301 1.64518 8.50078 1.9088C7.59745 3.2925 6.40121 4.31768 4.83122 4.87187C4.3075 5.05698 3.77792 5.10151 3.37605 4.63051C2.98238 4.17006 3.13586 3.65102 3.40417 3.21518C4.36842 1.64636 5.67831 0.482923 7.50958 0.048247C8.32035 -0.145073 8.75737 0.254455 8.73979 1.05937Z" fill="url(#paint4_linear_314_212)"/>
<path d="M3.28113 7.23035C3.28113 6.81559 3.28113 6.40083 3.28113 5.97084C5.63729 6.42661 7.12526 4.948 8.69291 3.54907C8.69291 4.79686 8.69408 5.92515 8.69408 7.14248C8.69408 7.16591 8.69759 7.23621 8.67885 7.27487C8.66713 7.2983 8.62964 7.32876 8.55817 7.32876C6.83587 7.32642 5.11356 7.32525 3.39243 7.32291C3.33502 7.32056 3.28816 7.3065 3.28113 7.23035Z" fill="url(#paint5_linear_314_212)"/>
<path d="M21.1263 8.41013C21.1533 8.37264 21.1802 8.33632 21.2084 8.29883C21.1814 8.33632 21.1533 8.37264 21.1263 8.41013Z" fill="url(#paint6_linear_314_212)"/>
<path d="M20.4656 9.4658C20.4843 9.42596 20.5089 9.39081 20.5394 9.36035C20.5148 9.3955 20.4902 9.43065 20.4656 9.4658Z" fill="url(#paint7_linear_314_212)"/>
<path d="M20.2019 9.87353C20.2324 9.8337 20.2617 9.79386 20.2921 9.75403C20.2628 9.79386 20.2324 9.8337 20.2019 9.87353Z" fill="url(#paint8_linear_314_212)"/>
<defs>
<linearGradient id="paint0_linear_314_212" x1="1.17657" y1="17.4002" x2="14.3831" y2="29.3369" gradientUnits="userSpaceOnUse">
<stop stop-color="#F2A1C6"/>
<stop offset="0.3328" stop-color="#E73588"/>
<stop offset="0.9888" stop-color="#E62766"/>
</linearGradient>
<linearGradient id="paint1_linear_314_212" x1="17.1756" y1="0.63778" x2="17.1756" y2="10.4266" gradientUnits="userSpaceOnUse">
<stop offset="0.00558659" stop-color="#FBE3EF"/>
<stop offset="1" stop-color="#E5B7D6"/>
</linearGradient>
<linearGradient id="paint2_linear_314_212" x1="12.7526" y1="15.455" x2="24.0543" y2="25.4869" gradientUnits="userSpaceOnUse">
<stop stop-color="#F2A1C6"/>
<stop offset="0.4893" stop-color="#E73588"/>
<stop offset="0.9888" stop-color="#E62766"/>
</linearGradient>
<linearGradient id="paint3_linear_314_212" x1="3.79453" y1="9.90636" x2="9.25617" y2="14.7296" gradientUnits="userSpaceOnUse">
<stop stop-color="#F2A1C6"/>
<stop offset="0.4893" stop-color="#E73588"/>
<stop offset="0.9888" stop-color="#E62766"/>
</linearGradient>
<linearGradient id="paint4_linear_314_212" x1="5.93933" y1="1.4725" x2="5.93933" y2="7.27733" gradientUnits="userSpaceOnUse">
<stop offset="0.00558659" stop-color="#FBE3EF"/>
<stop offset="1" stop-color="#E5B7D6"/>
</linearGradient>
<linearGradient id="paint5_linear_314_212" x1="5.98724" y1="1.47248" x2="5.98724" y2="7.27731" gradientUnits="userSpaceOnUse">
<stop offset="0.00558659" stop-color="#FBE3EF"/>
<stop offset="1" stop-color="#E5B7D6"/>
</linearGradient>
<linearGradient id="paint6_linear_314_212" x1="21.1674" y1="1.60253" x2="21.1674" y2="27.501" gradientUnits="userSpaceOnUse">
<stop stop-color="#E2DFF0"/>
<stop offset="0.7849" stop-color="#7E7BB8"/>
<stop offset="1" stop-color="#6A4694"/>
</linearGradient>
<linearGradient id="paint7_linear_314_212" x1="20.5026" y1="1.60257" x2="20.5026" y2="27.5009" gradientUnits="userSpaceOnUse">
<stop stop-color="#E2DFF0"/>
<stop offset="0.7849" stop-color="#7E7BB8"/>
<stop offset="1" stop-color="#6A4694"/>
</linearGradient>
<linearGradient id="paint8_linear_314_212" x1="20.2472" y1="1.60262" x2="20.2472" y2="27.5008" gradientUnits="userSpaceOnUse">
<stop stop-color="#E2DFF0"/>
<stop offset="0.7849" stop-color="#7E7BB8"/>
<stop offset="1" stop-color="#6A4694"/>
</linearGradient>
</defs>
</svg>
