<svg width="110" height="147" viewBox="0 0 110 147" fill="none" xmlns="http://www.w3.org/2000/svg">
<path d="M16.2285 102.958C16.2692 102.006 17.8457 101.627 18.3137 102.458C20.5089 106.355 24.2547 112.087 28.5039 114.693C32.7541 117.299 39.5609 118.039 44.0294 118.228C44.9819 118.269 45.3597 119.846 44.5295 120.314C40.6321 122.509 34.9008 126.255 32.2947 130.504C29.6887 134.754 28.9485 141.561 28.7596 146.03C28.7189 146.982 27.1415 147.36 26.6735 146.529C24.4783 142.632 20.7334 136.901 16.4833 134.295C12.2337 131.689 5.42694 130.949 0.957709 130.76C0.00567592 130.719 -0.372365 129.141 0.457815 128.674C4.35521 126.478 10.0869 122.733 12.6932 118.483C15.2994 114.234 16.0387 107.427 16.2285 102.958Z" fill="url(#paint0_linear_10_7)"/>
<path d="M88.1093 102.974C88.0357 102.024 86.3726 101.625 85.8768 102.439C84.3836 104.887 82.2299 107.842 79.837 109.31C77.4433 110.778 73.8328 111.357 70.9736 111.578C70.0238 111.652 69.6251 113.314 70.4389 113.81C72.8872 115.304 75.8417 117.456 77.3098 119.85C78.778 122.244 79.3569 125.854 79.5779 128.714C79.6515 129.663 81.3138 130.062 81.8104 129.248C83.3037 126.8 85.4565 123.846 87.8502 122.377C90.244 120.909 93.8536 120.33 96.7136 120.109C97.6635 120.036 98.0622 118.373 97.2484 117.877C94.8 116.384 91.8447 114.23 90.3774 111.837C88.9093 109.443 88.3295 105.833 88.1093 102.974Z" fill="url(#paint1_linear_10_7)"/>
<path d="M72.6666 17.349L70.5666 14.6964C62.4486 4.44304 58.39 -0.683635 53.6684 0.0732246C48.9459 0.829998 46.6882 6.96903 42.1729 19.2472L41.0046 22.4237C39.7211 25.9127 39.0798 27.6572 37.8491 28.9377C36.6184 30.2181 34.938 30.8895 31.578 32.2323L28.5186 33.4547L26.3705 34.3142C15.9747 38.4852 10.7363 40.8487 10.0675 45.4414C9.35405 50.3402 14.3123 54.5311 24.2287 62.9126L26.7942 65.081C29.6122 67.4628 31.0211 68.6537 31.8289 70.2771C32.637 71.9004 32.7514 73.7715 32.9819 77.5155L33.1908 80.9233C34.0002 94.0975 34.405 100.684 38.6854 102.955C42.9668 105.225 48.289 101.676 58.9334 94.5785L61.6876 92.742C64.7123 90.7253 66.2246 89.7164 67.9545 89.44C69.6844 89.1626 71.435 89.648 74.9381 90.6187L78.1266 91.5026C90.4514 94.919 96.6143 96.6273 99.9735 93.132C103.333 89.6367 101.664 83.2529 98.326 70.4843L97.4628 67.1808C96.5138 63.5524 96.0397 61.7382 96.3014 59.9436C96.5623 58.1491 97.5295 56.5774 99.4648 53.434L101.226 50.5719C108.034 39.5098 111.439 33.9788 109.233 29.5477C107.028 25.1165 100.675 24.7198 87.9676 23.9266L84.6794 23.7214C81.0689 23.4959 79.2636 23.3833 77.695 22.5513C76.1272 21.7195 74.9736 20.2627 72.6666 17.349Z" fill="url(#paint2_linear_10_7)"/>
<defs>
<linearGradient id="paint0_linear_10_7" x1="20.1585" y1="115.829" x2="9.65851" y2="135.329" gradientUnits="userSpaceOnUse">
<stop stop-color="#FFF500"/>
<stop offset="1" stop-color="#FF7617"/>
</linearGradient>
<linearGradient id="paint1_linear_10_7" x1="86.3419" y1="103.013" x2="80.8419" y2="126.513" gradientUnits="userSpaceOnUse">
<stop stop-color="#FFF501"/>
<stop offset="1" stop-color="#FF7617"/>
</linearGradient>
<linearGradient id="paint2_linear_10_7" x1="64.7328" y1="2.66663" x2="40.7328" y2="105.667" gradientUnits="userSpaceOnUse">
<stop stop-color="#FFF501"/>
<stop offset="1" stop-color="#FF6B18"/>
</linearGradient>
</defs>
</svg>
