<svg width="32" height="32" viewBox="0 0 32 32" fill="none" xmlns="http://www.w3.org/2000/svg">
<path d="M11.4317 28.9045C10.9476 28.3249 10.462 27.7485 9.98106 27.1657C9.04271 26.0253 9.18527 24.5418 10.3132 23.5784C10.7925 23.168 11.3283 22.8186 11.734 22.3283C12.4468 21.4683 12.37 20.2323 11.5664 19.413C10.8238 18.6564 9.57063 18.589 8.71844 19.2532C8.18896 19.6668 7.72057 20.1602 7.14096 20.508C6.10706 21.1283 4.79432 20.9231 4.01106 20.002C2.99439 18.8052 1.98712 17.6006 0.992381 16.3849C0.127664 15.3291 0.270217 13.8127 1.31038 12.9308C2.4931 11.9282 3.68366 10.9366 4.87891 9.94968C5.93788 9.07557 7.41667 9.18992 8.33935 10.2176C8.68711 10.6045 9.00825 11.0149 9.34348 11.4112C10.1581 12.3715 11.4865 12.5047 12.4217 11.723C13.3679 10.9303 13.4713 9.59095 12.6739 8.61031C12.2635 8.10433 11.7826 7.6516 11.4598 7.07982C10.8755 6.04592 11.0995 4.77078 12.0034 4.00318C13.1783 3.00845 14.3626 2.02311 15.5485 1.0409C16.667 0.113522 18.1739 0.248242 19.1154 1.3636C20.0553 2.4774 20.9858 3.60215 21.921 4.72065C22.333 5.2141 22.6056 5.22977 23.1069 4.83031C23.7272 4.33685 24.2771 3.75097 25.0134 3.40947C26.8242 2.56982 29.0001 3.1839 30.0842 4.84597C31.187 6.53781 30.8674 8.78733 29.3307 10.1048C28.9594 10.4243 28.5787 10.7329 28.2043 11.0478C27.7924 11.394 27.7595 11.712 28.101 12.1224C29.0268 13.2362 29.9573 14.3453 30.8847 15.4576C31.9154 16.6951 31.7823 18.1629 30.5416 19.2C29.4388 20.1226 28.3328 21.0422 27.23 21.9649C26.7992 22.3252 26.782 22.6212 27.1313 23.0614C27.6294 23.6896 28.2247 24.2457 28.5772 24.9867C29.4059 26.7271 28.8498 28.8497 27.2566 29.9933C25.6995 31.1118 23.4813 30.9379 22.1216 29.5907C21.6861 29.1599 21.3242 28.6633 20.9247 28.2012C20.566 27.7876 20.2809 27.761 19.8564 28.115C18.7285 29.0549 17.6053 30.0011 16.4727 30.9363C15.4576 31.7744 14.1073 31.7932 13.1783 30.9473C12.7898 30.5932 12.4797 30.1531 12.135 29.7489C11.9 29.4701 11.6682 29.1865 11.4317 28.9045Z" fill="url(#paint0_linear_314_290)"/>
<defs>
<linearGradient id="paint0_linear_314_290" x1="11.3468" y1="4.05107" x2="24.6352" y2="24.9161" gradientUnits="userSpaceOnUse">
<stop stop-color="#C7E6F0"/>
<stop offset="0.3438" stop-color="#8BD0E5"/>
<stop offset="0.4614" stop-color="#74CAE2"/>
<stop offset="0.6049" stop-color="#5FC4E0"/>
<stop offset="0.7456" stop-color="#52C0DE"/>
<stop offset="0.8788" stop-color="#4EBFDE"/>
</linearGradient>
</defs>
</svg>
