<svg width="32" height="32" viewBox="0 0 32 32" fill="none" xmlns="http://www.w3.org/2000/svg">
<path d="M31.5722 15.6538C31.5722 15.9303 31.5722 16.208 31.5722 16.4845C31.1197 17.3565 30.4332 17.828 29.4206 17.7204C29.0885 17.685 29.0035 17.8445 28.9456 18.1446C27.8313 23.9285 23.9191 27.8443 18.1482 28.9432C17.7878 29.0117 17.6933 29.1559 17.7193 29.4856C17.8043 30.5348 17.3116 31.2119 16.3451 31.5722C16.0686 31.5722 15.7909 31.5722 15.5144 31.5722C14.6424 31.1185 14.1709 30.432 14.2785 29.4206C14.3139 29.0874 14.1532 29.0046 13.8531 28.9467C8.07154 27.8349 4.1652 23.9285 3.05214 18.1458C2.99424 17.8457 2.91034 17.685 2.57832 17.7204C1.56569 17.828 0.879186 17.3565 0.426636 16.4845C0.426636 16.1619 0.426636 15.8382 0.426636 15.5156C0.879186 14.6436 1.56569 14.1697 2.57832 14.2796C2.97533 14.3234 3.00723 14.0859 3.05804 13.7857C4.00923 8.27359 8.27714 4.00095 13.7798 3.06277C14.1367 3.00133 14.3174 2.91507 14.282 2.51569C14.1875 1.46644 14.6861 0.788203 15.6538 0.426636C15.8842 0.426636 16.1158 0.426636 16.3462 0.426636C17.314 0.787022 17.8067 1.46526 17.7204 2.51451C17.6933 2.84654 17.7913 2.98715 18.1505 3.05568C23.912 4.14747 27.8443 8.081 28.9432 13.8507C29.0117 14.2123 29.1571 14.3044 29.4867 14.2785C30.5348 14.1946 31.2119 14.6873 31.5722 15.6538ZM17.7228 20.8209C17.7228 22.279 17.7417 23.639 17.7122 24.9979C17.7027 25.4351 17.7996 25.5497 18.2403 25.4646C21.5323 24.8265 24.8892 21.4602 25.4681 18.212C25.5378 17.8209 25.454 17.7039 25.0404 17.7122C23.6579 17.7382 22.2755 17.7216 20.828 17.7216C21.1648 16.5613 21.1553 15.434 20.8351 14.2749C22.2849 14.2749 23.6686 14.2572 25.0499 14.2855C25.4847 14.295 25.5331 14.1473 25.4658 13.7751C24.8679 10.5044 21.5393 7.17353 18.2285 6.53665C17.8681 6.46694 17.7015 6.49412 17.7122 6.94194C17.7441 8.20979 17.7263 9.47882 17.7193 10.7479C17.7181 10.9192 17.8256 11.2146 17.4428 11.1071C16.3982 10.8128 15.3537 10.8766 14.2761 11.172C14.2761 9.75295 14.2465 8.39294 14.2903 7.0341C14.308 6.46694 14.0941 6.4504 13.6581 6.56619C12.1197 6.97502 10.7396 7.6828 9.55562 8.74741C7.91557 10.2232 6.86986 12.0358 6.45512 14.282C8.055 14.282 9.58989 14.282 11.172 14.282C10.84 15.4494 10.8306 16.5637 11.185 17.7263C9.58398 17.7263 8.04673 17.7263 6.50357 17.7263C7.01992 21.9293 11.1697 25.3133 14.2832 25.4315C14.2832 23.912 14.2832 22.3936 14.2832 20.8127C15.4305 21.173 16.5447 21.1612 17.7228 20.8209Z" fill="url(#paint0_linear_314_300)"/>
<path d="M18.1482 16.0179C18.1376 17.19 17.1533 18.1589 15.9824 18.1494C14.8102 18.1388 13.8413 17.1545 13.8508 15.9836C13.8614 14.8114 14.8457 13.8425 16.0166 13.852C17.1888 13.8615 18.1577 14.8457 18.1482 16.0179Z" fill="url(#paint1_linear_314_300)"/>
<defs>
<linearGradient id="paint0_linear_314_300" x1="15.9989" y1="5.35637" x2="15.9989" y2="29.1549" gradientUnits="userSpaceOnUse">
<stop offset="0.0104" stop-color="#E69360"/>
<stop offset="0.987" stop-color="#E42926"/>
</linearGradient>
<linearGradient id="paint1_linear_314_300" x1="15.9989" y1="5.35648" x2="15.9989" y2="29.155" gradientUnits="userSpaceOnUse">
<stop offset="0.02" stop-color="#E69360"/>
<stop offset="0.987" stop-color="#EA5E59"/>
</linearGradient>
</defs>
</svg>
