<svg width="800" height="800" viewBox="0 0 800 800" fill="none" xmlns="http://www.w3.org/2000/svg">
<g clip-path="url(#clip0_1_2)">
<path d="M752.457 245.105C746.128 231.503 729.986 225.626 716.41 232L603.333 284.759C602.713 285.053 602.316 285.6 601.701 285.962C600.073 286.871 598.735 287.965 597.348 289.172C596.493 289.931 595.368 290.397 594.617 291.242H399.008C399.139 269.127 394.41 247.487 381.414 229.048C340.399 170.719 271.831 210.306 255.281 258.816C223.483 251.655 183.897 264.322 166.411 291.242H91.7132C85.4748 284.547 76.3343 280.768 66.8094 282.73C52.1266 285.668 42.5747 299.94 45.5266 314.659L117.896 676.444C118.724 680.562 120.717 684.084 123.095 687.271C93.5169 689.007 69.8834 713.427 69.8834 743.461C69.8834 774.622 95.2393 800.005 126.409 800.005C157.578 800.005 182.934 774.622 182.934 743.461C182.934 724.918 173.82 708.563 159.983 698.251H526.967C513.125 708.563 504.016 724.918 504.016 743.461C504.016 774.622 529.372 800.005 560.555 800.005C591.715 800.005 617.071 774.622 617.071 743.461C617.071 713.427 593.446 689.007 563.846 687.271C566.246 684.088 568.276 680.567 569.08 676.444L638.711 328.121L739.339 281.202C752.914 274.814 758.795 258.649 752.457 245.105ZM554.601 472.141H132.407L121.531 417.845H253.554C302.584 432.383 351.723 431.257 351.723 431.257C351.723 431.257 354.928 426.267 359.634 417.845H565.473L554.601 472.141ZM536.483 562.616H150.485L139.622 508.32H547.355L536.483 562.616ZM163.898 350.647C169.123 362.793 176.926 372.901 186.116 381.667H114.321L103.458 327.384H157.659C158.337 334.694 160.344 342.455 163.898 350.647ZM377.309 381.698C384.176 365.637 390.803 346.976 394.903 327.416H583.56L572.71 381.698H377.309ZM126.436 763.795C115.211 763.795 106.075 754.681 106.075 743.43C106.075 732.182 115.211 723.096 126.436 723.096C137.656 723.096 146.796 732.182 146.796 743.43C146.796 754.681 137.66 763.795 126.436 763.795ZM166.773 643.95L157.741 598.794H529.272L520.24 643.95H166.773ZM580.888 743.43C580.888 754.654 571.806 763.795 560.555 763.795C549.335 763.795 540.194 754.681 540.194 743.43C540.194 732.182 549.33 723.096 560.555 723.096C571.752 723.096 580.888 732.237 580.888 743.43Z" fill="#E0B418"/>
<path d="M462.413 266.881C462.413 266.881 556.631 286.586 588.903 238.076C614.074 200.428 574.903 168.938 542.387 170.249C537.55 138.063 499.342 105.478 467.033 137.195C425.43 177.997 462.413 266.881 462.413 266.881Z" fill="#FB33FF"/>
<path d="M447.635 81.7906C456.107 41.8468 412.764 28.5383 385.948 40.4952C371.175 15.1393 328.274 0.641876 311.829 38.0089C290.627 86.0806 351.252 148.162 351.252 148.162C351.252 148.162 436.764 133.171 447.635 81.7906Z" fill="#FB33FF"/>
<path d="M157.27 174.349C185.072 194.949 233.718 165.023 233.718 165.023C233.718 165.023 236.511 107.951 205.098 93.4943C180.664 82.2607 165.832 108.164 169.643 127.096C151.231 132.932 135.68 158.369 157.27 174.349Z" fill="#FB33FF"/>
<path d="M621.397 69.8879C640.153 59.7618 630.804 38.036 617.012 31.3817C622.116 16.9385 613.377 -5.05404 592.94 1.03969C566.648 8.84218 562.399 53.962 562.399 53.962C562.399 53.962 597.271 82.9117 621.397 69.8879Z" fill="#FB33FF"/>
<path d="M710.854 152.239C723.413 145.494 717.165 130.929 707.921 126.467C711.338 116.78 705.516 102.061 691.809 106.134C674.197 111.346 671.345 141.58 671.345 141.58C671.345 141.58 694.721 161 710.854 152.239Z" fill="#FB33FF"/>
</g>
<defs>
<clipPath id="clip0_1_2">
<rect width="800" height="800" fill="white"/>
</clipPath>
</defs>
</svg>
