<svg width="32" height="30" viewBox="0 0 32 30" fill="none" xmlns="http://www.w3.org/2000/svg">
<path d="M6.43685 20.0803C4.84409 21.665 3.25539 23.255 1.66533 24.8437C0.951429 25.5563 0.648561 26.4027 0.774305 27.4113C0.962246 28.9216 2.52391 30.0885 4.03149 29.8532C4.76297 29.7383 5.36059 29.4084 5.87573 28.8905C7.44551 27.314 9.02475 25.7469 10.5905 24.1663L6.43685 20.0803Z" fill="url(#paint0_linear_314_292)"/>
<path d="M15.8218 22.5695C15.9394 22.4397 15.9719 22.3937 16.0124 22.3586C17.4591 21.0957 18.9072 19.8329 20.3553 18.57C23.5814 15.7563 26.8102 12.948 30.0255 10.1222C30.2377 9.9356 30.4027 9.63814 30.4757 9.36231C30.5812 8.96615 30.5852 8.54294 30.6298 8.13056C30.7556 6.97182 30.88 5.81308 31.0044 4.65434C31.1193 3.57402 31.2518 2.4937 31.3383 1.41068C31.3992 0.652158 30.6447 -0.0144211 29.8916 0.0748167C29.1682 0.16135 28.4449 0.24518 27.7201 0.319545C25.8921 0.507485 24.0614 0.687313 22.2334 0.875253C21.8507 0.914464 21.5262 1.06725 21.272 1.37147C20.934 1.7771 20.5798 2.1692 20.2323 2.56672C16.8777 6.408 13.5246 10.2506 10.17 14.0919C9.75901 14.5624 9.34527 15.0316 8.9126 15.5224L15.8218 22.5695Z" fill="url(#paint1_linear_314_292)"/>
<path d="M8.88695 15.1573C8.76662 15.0438 8.67468 14.964 8.58949 14.8788C8.04055 14.3312 7.49566 13.7796 6.944 13.236C6.30041 12.6019 5.49862 12.61 4.90505 13.2833C3.83826 14.4908 3.58406 15.8726 4.10597 17.391C4.31014 17.9859 4.68061 18.4794 5.1295 18.9161C5.60949 19.3853 6.08948 19.8545 6.66277 20.4156L10.9502 24.7382C11.4289 25.2439 11.9237 25.7347 12.424 26.2188C13.9965 27.7385 16.4221 27.7858 17.9703 26.3323C18.6098 25.732 18.6355 24.9383 18.023 24.3123C17.4578 23.7336 16.8846 23.1631 16.3059 22.5979C16.1544 22.4505 8.88695 15.1573 8.88695 15.1573Z" fill="url(#paint2_linear_314_292)"/>
<defs>
<linearGradient id="paint0_linear_314_292" x1="2.74351" y1="27.6719" x2="9.60058" y2="21.2719" gradientUnits="userSpaceOnUse">
<stop stop-color="#F5A353"/>
<stop offset="0.4921" stop-color="#F08433"/>
<stop offset="0.9581" stop-color="#B45018"/>
</linearGradient>
<linearGradient id="paint1_linear_314_292" x1="32.6143" y1="-0.717586" x2="13.8717" y2="16.6536" gradientUnits="userSpaceOnUse">
<stop stop-color="#F5F9FD"/>
<stop offset="0.169" stop-color="#EBF1F9"/>
<stop offset="0.452" stop-color="#D2DBEF"/>
<stop offset="0.8121" stop-color="#A8B9DE"/>
<stop offset="1" stop-color="#8FA4D4"/>
</linearGradient>
<linearGradient id="paint2_linear_314_292" x1="11.6435" y1="19.5788" x2="8.21494" y2="23.4645" gradientUnits="userSpaceOnUse">
<stop offset="0.00298442" stop-color="#FFDF3E"/>
<stop offset="1" stop-color="#DC5514"/>
</linearGradient>
</defs>
</svg>
