<svg width="32" height="32" viewBox="0 0 32 32" fill="none" xmlns="http://www.w3.org/2000/svg">
<path d="M0.426636 23.2408C0.565792 22.7974 0.545744 22.3315 0.608246 21.8775C0.770988 20.7053 0.997412 19.5461 1.31582 18.4057C1.32407 18.3786 1.3453 18.355 1.34412 18.3573C5.44215 22.4554 9.5449 26.5569 13.65 30.6632C13.0085 30.8578 12.3304 31.0099 11.6488 31.1408C10.7148 31.3201 9.77368 31.4545 8.82318 31.5135C8.77365 31.517 8.72058 31.5123 8.69817 31.5725C7.60379 31.5725 6.50941 31.5725 5.41385 31.5725C4.95393 31.5029 4.48457 31.53 4.02583 31.4545C2.57884 31.2163 1.49861 30.4793 0.871228 29.1195C0.537489 28.3943 0.50329 27.623 0.456118 26.8506C0.450222 26.7621 0.483242 26.669 0.426636 26.5852C0.426636 25.4708 0.426636 24.3564 0.426636 23.2408Z" fill="url(#paint0_linear_314_304)"/>
<path d="M29.995 15.7099C29.9679 15.7854 29.9455 15.8526 29.9195 15.9174C27.4371 22.3634 23.0289 26.9485 16.656 29.6337C16.4049 29.7399 16.1431 29.8213 15.8978 29.9392C15.7162 30.0265 15.6065 29.9746 15.4756 29.8437C11.0426 25.4048 6.60732 20.9683 2.16612 16.5389C1.99276 16.3656 2.00809 16.2276 2.08357 16.033C4.6214 9.51861 9.11685 4.93118 15.5794 2.25537C16.1383 2.02423 16.4567 2.08201 16.8907 2.52071C21.1692 6.84044 25.4771 11.1319 29.7756 15.4327C29.8582 15.5165 29.9667 15.5837 29.995 15.7099Z" fill="url(#paint1_linear_314_304)"/>
<path d="M30.646 13.6568C26.5503 9.56108 22.4535 5.46423 18.3472 1.35794C18.5925 1.23648 18.8979 1.1893 19.1915 1.11737C21.3378 0.598481 23.516 0.369699 25.7236 0.441635C26.5432 0.468759 27.3569 0.538337 28.16 0.727023C29.9301 1.14213 30.9479 2.266 31.3158 4.0196C31.6118 5.43003 31.6012 6.86051 31.5399 8.28627C31.4644 10.0387 31.1778 11.764 30.7132 13.4575C30.6931 13.5353 30.6837 13.6155 30.646 13.6568Z" fill="url(#paint2_linear_314_304)"/>
<path d="M11.7562 16.4882C12.1123 16.4811 12.3328 16.592 12.5203 16.776C12.7161 16.967 12.913 17.1569 13.0994 17.3574C13.1996 17.4647 13.2645 17.4623 13.3659 17.3574C13.7621 16.9517 14.1607 16.5484 14.5699 16.1545C14.7044 16.0248 14.6737 15.9481 14.5558 15.8384C14.3624 15.6592 14.1772 15.4717 13.9968 15.2806C13.6265 14.8879 13.6241 14.3219 13.985 13.9728C14.3376 13.632 14.886 13.6402 15.2704 14.0011C15.4697 14.1874 15.6643 14.3808 15.8506 14.5813C15.9615 14.7016 16.0358 14.6898 16.1443 14.5778C16.5405 14.1709 16.9391 13.7688 17.3483 13.3761C17.4769 13.2534 17.4332 13.1839 17.3307 13.0872C17.1467 12.9138 16.9686 12.7322 16.7929 12.5506C16.3931 12.139 16.3695 11.593 16.7328 11.2227C17.0995 10.8489 17.6443 10.863 18.0583 11.2616C18.2411 11.4373 18.4274 11.6107 18.5937 11.8005C18.7234 11.9503 18.8118 11.9303 18.9298 11.7923C19.0418 11.6614 19.1668 11.5411 19.2965 11.4291C19.6704 11.1048 20.194 11.1154 20.5348 11.4468C20.8756 11.7781 20.9004 12.3053 20.5831 12.6827C20.4593 12.8301 20.3237 12.968 20.1798 13.0954C20.0572 13.2039 20.069 13.2806 20.1834 13.3855C20.3838 13.5718 20.5761 13.7664 20.7636 13.9657C21.1315 14.3561 21.1398 14.8856 20.7907 15.2476C20.4393 15.6132 19.8826 15.6132 19.4852 15.2394C19.2788 15.046 19.0784 14.8431 18.8838 14.6379C18.7941 14.5436 18.734 14.5377 18.6397 14.6344C18.2363 15.0471 17.8295 15.4575 17.4156 15.8597C17.2929 15.9788 17.32 16.0519 17.4285 16.1533C17.6278 16.3408 17.8212 16.5342 18.0076 16.7347C18.3625 17.1168 18.3637 17.6746 18.0182 18.0201C17.6726 18.3657 17.1137 18.3657 16.7328 18.0107C16.5323 17.8244 16.34 17.6298 16.1525 17.4317C16.0523 17.3255 15.9792 17.2913 15.8589 17.4151C15.4579 17.8303 15.0475 18.2371 14.636 18.6416C14.5428 18.7324 14.5357 18.7926 14.6348 18.8857C14.8341 19.072 15.0263 19.2678 15.2162 19.4647C15.6077 19.8751 15.6195 20.4329 15.248 20.7926C14.8789 21.15 14.347 21.1334 13.9437 20.7478C13.768 20.5792 13.5899 20.4129 13.4307 20.2301C13.2951 20.0744 13.1913 20.0473 13.0522 20.223C12.9519 20.3492 12.8293 20.4589 12.7078 20.565C12.3234 20.9011 11.7903 20.8893 11.4484 20.5403C11.1064 20.1924 11.1052 19.6629 11.4448 19.2784C11.4578 19.2631 11.4731 19.2489 11.4861 19.2348C11.6311 19.0803 11.8823 18.9329 11.8929 18.769C11.9059 18.5732 11.6229 18.4458 11.4767 18.2819C11.3693 18.1616 11.2396 18.0579 11.1441 17.9281C10.9189 17.6274 10.8847 17.3008 11.0615 16.9611C11.2208 16.6474 11.4955 16.5083 11.7562 16.4882Z" fill="url(#paint3_linear_314_304)"/>
<path d="M29.9914 15.9681L16.0121 2.13034C15.9661 2.08317 18.4544 1.22347 18.4544 1.22347C17.748 1.13738 30.6884 13.5789 30.6884 13.5789C30.7344 13.6249 30.0362 16.0153 29.9914 15.9681Z" fill="url(#paint4_linear_314_304)"/>
<path d="M15.8977 29.9392L2.08473 16.033C2.03992 15.9847 1.05167 18.5402 1.05167 18.5402C0.999784 17.8303 13.65 30.8756 13.65 30.8756C13.6948 30.9227 15.9437 29.9876 15.8977 29.9392Z" fill="url(#paint5_linear_314_304)"/>
<defs>
<linearGradient id="paint0_linear_314_304" x1="-1.14735" y1="20.2128" x2="4.63606" y2="26.9601" gradientUnits="userSpaceOnUse">
<stop offset="0.0475" stop-color="#F5A661"/>
<stop offset="0.9926" stop-color="#E74617"/>
</linearGradient>
<linearGradient id="paint1_linear_314_304" x1="6.55426" y1="6.55563" x2="12.9803" y2="12.9816" gradientUnits="userSpaceOnUse">
<stop offset="0.0475" stop-color="#F5A661"/>
<stop offset="0.9926" stop-color="#E74617"/>
</linearGradient>
<linearGradient id="paint2_linear_314_304" x1="20.5767" y1="-1.24417" x2="27.806" y2="5.34249" gradientUnits="userSpaceOnUse">
<stop offset="0.0475" stop-color="#F5A661"/>
<stop offset="0.9926" stop-color="#E74617"/>
</linearGradient>
<linearGradient id="paint3_linear_314_304" x1="13.2031" y1="13.0419" x2="18.3693" y2="18.5243" gradientUnits="userSpaceOnUse">
<stop stop-color="#F5F9FD"/>
<stop offset="1" stop-color="#8FA4D4"/>
</linearGradient>
<linearGradient id="paint4_linear_314_304" x1="16.0119" y1="8.59539" x2="30.6906" y2="8.59539" gradientUnits="userSpaceOnUse">
<stop stop-color="#F5F9FD"/>
<stop offset="1" stop-color="#8FA4D4"/>
</linearGradient>
<linearGradient id="paint5_linear_314_304" x1="1.05125" y1="23.4546" x2="15.8988" y2="23.4546" gradientUnits="userSpaceOnUse">
<stop stop-color="#F5F9FD"/>
<stop offset="1" stop-color="#8FA4D4"/>
</linearGradient>
</defs>
</svg>
