<svg id="subway_surfers" data-name="subway surfers" xmlns="http://www.w3.org/2000/svg" xmlns:xlink="http://www.w3.org/1999/xlink" viewBox="0 0 144.22 147.24"><defs><style>.cls-1{fill:none;}.cls-2{fill:url(#linear-gradient);}.cls-3{fill:#f18421;}.cls-4{clip-path:url(#clip-path);}.cls-5{fill:#fdfbea;}.cls-6{fill:#f3e615;}.cls-7{fill:#f1e84f;}.cls-8{fill:#f39433;}.cls-9{fill:#ef7a26;}</style><linearGradient id="linear-gradient" x1="88.66" y1="13.72" x2="62.66" y2="131.26" gradientUnits="userSpaceOnUse"><stop offset="0" stop-color="#f4e728"/><stop offset="0.98" stop-color="#e53229"/></linearGradient><clipPath id="clip-path" transform="translate(-0.78 -1.55)"><path id="SVGID" class="cls-1" d="M3.35,110.3l11.56,6.78L39,105.78,25.2,117.08l33.15,24.11s17.58,12.06,41.95,1.26c0,0,28.38-17.58,30.89-32.65,0,0,5-10-10.55-17.83,0,0-9.29-5-38.68-11,0,0-14.6-4.87-11.55-12.06L90.5,51.28s-6.28,14.31-6.28,21.35l39.18-9.55S113.86,47,143.75,8.58L120.64,7.33l-8.79,11.3a51.74,51.74,0,0,1,6.53-15.57l-47.22,5s-.25,17.08-20.84,30.64L30,52.28s-16.07,12.81-7,24.37c0,0,9.86,9.1,31,12.4,0,0,33.34,4.8,35.22,10.45,0,0,3.2,7.16-6.12,10.08,0,0-16.2,5.27-31.08-12.72l-4.43,3.68L41,94.41Z"/></clipPath></defs><path class="cls-2" d="M3.35,110.3l11.56,6.78L39,105.78,25.2,117.08l33.15,24.11s17.58,12.06,41.95,1.26c0,0,28.38-17.58,30.89-32.65,0,0,5-10-10.55-17.83,0,0-9.29-5-38.68-11,0,0-16.82-4-11.55-12.06L90.5,51.28s-6.28,14.31-6.28,21.35l39.18-9.55S113.86,47,143.75,8.58L120.64,7.33l-8.79,11.3a51.74,51.74,0,0,1,6.53-15.57l-47.22,5s-.25,17.08-20.84,30.64L30,52.28s-16.07,12.81-7,24.37c0,0,9.86,9.1,31,12.4,0,0,33.34,4.8,35.22,10.45,0,0,3.2,7.16-6.12,10.08,0,0-16.2,5.27-31.08-12.72l-4.43,3.68L41,94.41Z" transform="translate(-0.78 -1.55)"/><circle class="cls-3" cx="73.71" cy="132.17" r="11.62"/><g class="cls-4"><path class="cls-5" d="M119.38,64.09S114.11,47,139.48,12.85l-18.09-2.26L107.83,25.16,118.3,4.77S97.45,7,74.49,11.35c0,0-6.84,20.84-23.17,29.38,0,0-15.32,10.55-23.1,13.06,0,0,17.33-13.56,23.35-18.33,0,0,15.32-11.56,18.84-27.38l46.21-6.53,3.27,2,1.5,2.26L145,6.57s-19.34,31.9-20.84,47C124.16,53.54,129.43,70.12,119.38,64.09Z" transform="translate(-0.78 -1.55)"/><path class="cls-6" d="M129,118s10.8-17.08-1.26-23.61c0,0-8-7.78-35.16-11.8,0,0-21.24-2-21.09-11.8a9.2,9.2,0,0,1,4.77-6.56s-7.54,2.79-8,10.57c0,0-1.6,4.71,18,8.67,0,0,27.6,5.72,36.83,12.05C123,95.54,135.52,100.19,129,118Z" transform="translate(-0.78 -1.55)"/><path class="cls-7" d="M4.52,108.07,41.19,93.76,47.72,98l4.77-2.76,12.56,9.29s11.89,10.31,24.3-.24c0,0-1.23,10.82-19.94,6.55,0,0-3.77-.56-9.74-4.39-2.29-1.48-8.22-7.6-8.22-7.6l-5.1,2.71L40,96.42,2.52,110.75Z" transform="translate(-0.78 -1.55)"/><path class="cls-8" d="M3.35,110.3l11.3,4.56L45,102.55l-9,5.24-22.85,12-8-5S-3.33,110.93,3.35,110.3Z" transform="translate(-0.78 -1.55)"/><path class="cls-3" d="M41.14,104.78,30,116.83s18.84,16.58,29.64,22.1c0,0,23.11,15.07,57.51-9.29,0,0-16.07,20.34-40.93,19.09,0,0-18.46,3-51.36-31.46C24.83,117.27,28.22,113.06,41.14,104.78Z" transform="translate(-0.78 -1.55)"/></g><circle class="cls-9" cx="88.37" cy="138.67" r="3.05"/></svg>