<svg id="toca_boca" data-name="toca boca" xmlns="http://www.w3.org/2000/svg" viewBox="0 0 122.94 134.75"><defs><style>.cls-1{fill:#f6aa7e;}.cls-2{fill:#6dc6db;}.cls-3{fill:#b61918;}.cls-4{fill:#151515;}.cls-5{fill:#c45331;}</style></defs><path class="cls-1" d="M28.71,105.69s9.67,32.36,42.94,32.07c0,0,29.7,2.77,46.84-24.88,0,0,14.1,4.72,17.41-7.33,0,0,4.23-13.88-10.29-15.58,0,0-13.18-2.32-19.24-7.54,0,0-2.4-1.26-3.81.85,0,0-6.62,5.5-11.55,3.38,0,0-3-2,.56-4.6l4.09-1.74s2.11-1.55-.14-2.82c0,0-13.54-7.12-16.78-11.8a3.64,3.64,0,0,0-4.65,0s-11,7.29-18.6,8.56c0,0-3.67,1.41-2.12,3.8l6.49,3s2.39,1.27.84,3.25c0,0-1,2-4.37.7,0,0-6.24-2.54-8.77-4.79a4.35,4.35,0,0,0-4.23-1,116.78,116.78,0,0,1-19,2.8s-12,1.71-10.73,12.84C13.62,94.87,14.94,108.46,28.71,105.69Z" transform="translate(-13.53 -3.09)"/><path class="cls-2" d="M77.76,52.69s15.5,20.86,49.05,29.6c0,0,4.79-46.3-46.9-50.63,0,0-22.49-2.18-38.86,12.16-7.3,6.39-13.38,16.06-15.73,30.65C25.32,74.47,54.5,74.26,77.76,52.69Z" transform="translate(-13.53 -3.09)"/><path class="cls-2" d="M42.1,3.78S71.55-4.25,67,34.3c0,0-13.32-.07-25.86,10.92a28.64,28.64,0,0,1-11-20.29S27.15,8.72,42.1,3.78Z" transform="translate(-13.53 -3.09)"/><path class="cls-2" d="M121.19,8.81S93.32-3.66,91.92,35.13c0,0,13.17,2,23.87,14.77a28.64,28.64,0,0,0,14-18.36S135.2,16,121.19,8.81Z" transform="translate(-13.53 -3.09)"/><path class="cls-3" d="M85.58,111.16a29.69,29.69,0,0,1-6.48,1.55,50,50,0,0,1-7.24,0,2.08,2.08,0,0,1-1.89-2h0c0-1.25,1-1.46,1.79-1.53a64.85,64.85,0,0,0,6.85-.16,53.1,53.1,0,0,0,6.49-1.57c.76-.07,1.67.22,1.75,1.73h0A2,2,0,0,1,85.58,111.16Z" transform="translate(-13.53 -3.09)"/><circle class="cls-4" cx="34.71" cy="93.16" r="8.18"/><ellipse class="cls-4" cx="87.1" cy="96.82" rx="7.71" ry="8.18"/><path class="cls-5" d="M76.12,99.91H70.45a.82.82,0,0,1-.75-1.33c1.89-3.13,3.77-6.28,5.66-9.42a.82.82,0,0,1,1.53,0q2.82,4.71,5.65,9.42a.86.86,0,0,1,.08.92.84.84,0,0,1-.82.41Z" transform="translate(-13.53 -3.09)"/></svg>