<svg width="32" height="30" viewBox="0 0 32 30" fill="none" xmlns="http://www.w3.org/2000/svg">
<path d="M31.7756 18.5526C31.5659 16.8191 30.9693 15.2345 29.9328 13.827C28.1486 11.4045 25.7441 10.0184 22.7633 9.71275C20.4794 9.47929 18.3366 9.99696 16.4035 11.2646C16.126 11.4473 15.9467 11.4586 15.658 11.2736C13.2772 9.7432 10.6888 9.31012 7.93922 9.9417C5.64636 10.4695 3.77757 11.6955 2.32945 13.5451C1.23998 14.9357 0.574567 16.5112 0.321936 18.2661C0.0490038 20.1552 0.289229 21.9733 1.05953 23.7112C2.10614 26.0695 3.82043 27.7872 6.17193 28.8518C7.98884 29.674 9.89147 29.895 11.8561 29.586C13.3042 29.3593 14.6339 28.8225 15.8463 27.9981C15.9704 27.9123 16.064 27.8988 16.1982 27.9902C17.5539 28.9059 19.0415 29.4699 20.6745 29.6481C22.1238 29.8059 23.5414 29.6774 24.9287 29.2217C26.7377 28.6262 28.2602 27.5954 29.4839 26.1405C30.6839 24.7138 31.4373 23.0763 31.7192 21.2255C31.9358 19.703 31.7824 18.6067 31.7756 18.5526ZM13.8343 25.7526C14.0745 26.0785 14.0813 26.0796 13.7193 26.2702C12.6276 26.8443 11.467 27.1375 9.74485 27.1251C6.92305 27.0766 4.14073 25.1052 3.16404 21.9484C2.2584 19.0263 2.96328 16.4357 5.14899 14.2838C6.33771 13.1142 7.80275 12.4669 9.45162 12.2932C11.0091 12.1297 12.4945 12.4195 13.8727 13.1966C14.043 13.2936 14.061 13.3443 13.9347 13.5022C13.0776 14.5838 12.455 15.7906 12.1223 17.1304C11.3441 20.2691 11.9114 23.1473 13.8343 25.7526ZM16.1824 15.2188C17.1163 16.4729 17.6103 17.8793 17.6892 19.8406C17.7072 21.2097 17.211 22.8112 16.1384 24.23C15.9952 24.4195 15.9512 24.2684 15.8813 24.177C15.0738 23.1191 14.5821 21.9259 14.4275 20.6086C14.1975 18.6293 14.6791 16.8282 15.8678 15.2199C15.9997 15.0417 16.0494 15.0394 16.1824 15.2188ZM24.4967 26.6289C23.6305 26.9514 22.7452 27.1274 21.8215 27.1274C20.5234 27.1353 19.3087 26.8116 18.1708 26.1879C17.9802 26.0841 18.0095 26.021 18.1212 25.88C19.1576 24.5571 19.8411 23.0706 20.114 21.4093C20.5787 18.574 19.9572 15.9936 18.2509 13.6782C17.9734 13.3015 17.9666 13.3037 18.3941 13.0838C22.6719 10.8891 27.8959 13.2191 29.0632 18C29.9249 21.5368 27.9027 25.3635 24.4967 26.6289Z" fill="url(#paint0_linear_314_252)"/>
<path d="M31.7868 19.0714C31.7812 19.0217 31.7722 18.9699 31.8387 18.9507C31.8387 18.9924 31.8387 19.033 31.8387 19.0747C31.8195 19.1018 31.8015 19.1029 31.7868 19.0714Z" fill="#747177"/>
<path d="M31.7868 19.0714C31.8037 19.0725 31.8218 19.0737 31.8387 19.0748C31.8387 19.1165 31.8387 19.1571 31.8387 19.1989C31.7823 19.1718 31.7767 19.1244 31.7868 19.0714Z" fill="#5B585E"/>
<path d="M31.7869 20.374C31.7768 20.321 31.7801 20.2725 31.8388 20.2477C31.8388 20.2894 31.8388 20.33 31.8388 20.3717C31.823 20.3977 31.8061 20.3977 31.7869 20.374Z" fill="#666369"/>
<path d="M31.7868 20.374C31.8038 20.3729 31.8218 20.3717 31.8387 20.3706C31.8387 20.4123 31.8387 20.4529 31.8387 20.4947C31.7688 20.4777 31.779 20.4247 31.7868 20.374Z" fill="#807E83"/>
<path d="M13.8421 0.280773C14.6056 0.258216 15.2496 0.678892 15.7977 1.26423C15.9985 1.47851 16.0944 1.45145 16.2827 1.25859C16.8883 0.637163 17.5786 0.216487 18.5101 0.290923C19.7225 0.387915 20.8628 1.45821 21.0331 2.65821C21.1752 3.66197 20.9079 4.53377 20.2673 5.2849C19.2083 6.52888 17.9857 7.58677 16.5669 8.41008C16.2026 8.62098 15.8586 8.61422 15.4944 8.40444C14.009 7.5473 12.7244 6.44655 11.6564 5.1146C10.6797 3.89656 10.7462 2.32551 11.7703 1.17062C12.2902 0.583028 12.9692 0.296562 13.8421 0.280773Z" fill="url(#paint1_linear_314_252)"/>
<defs>
<linearGradient id="paint0_linear_314_252" x1="11.9302" y1="12.0226" x2="21.5816" y2="30.08" gradientUnits="userSpaceOnUse">
<stop offset="0.00298442" stop-color="#FFDF3E"/>
<stop offset="1" stop-color="#DC5514"/>
</linearGradient>
<linearGradient id="paint1_linear_314_252" x1="16.0146" y1="-1.46193" x2="16.0146" y2="6.22888" gradientUnits="userSpaceOnUse">
<stop offset="0.2024" stop-color="#E95C6D"/>
<stop offset="0.4053" stop-color="#E7495A"/>
<stop offset="0.7864" stop-color="#E4293A"/>
<stop offset="0.9982" stop-color="#E31D2E"/>
</linearGradient>
</defs>
</svg>
